<svg xmlns="http://www.w3.org/2000/svg" viewBox="0 0 433.13 249.19"><defs><style>.cls-1{fill:#f15a24;}</style></defs><g id="Layer_2" data-name="Layer 2"><g id="Layer_1-2" data-name="Layer 1"><path d="M241,184v36.67A27.62,27.62,0,0,1,233,240c-28.25-15-45-44.39-47.71-84.39V93.46l-.38.57-10,14.93L141.1,159.57c-12.32,19.23-28.84,19.23-41.14,0L55.36,93.46V220.77a27.68,27.68,0,0,1-55.36,0V35.07a35.11,35.11,0,0,1,35-35C47.3.07,58.44,7,64.6,16.61l55.74,85.72,56.12-85.72A35.87,35.87,0,0,1,181.93,10s0,0,0,0A35.28,35.28,0,0,1,205.49.08a26.12,26.12,0,0,1,3.72.57,29,29,0,0,1,22.15,28.24v113.2C231.36,160.46,234.67,174.44,241,184Z"/><path class="cls-1" d="M320.19,232v0c-11.3-8.4-17.87-22.25-19.67-42.89-6.86,7.19-16.28,10.74-28.06,10.74-13.89,0-24.5-5.27-31.45-15.81-6.34-9.6-9.65-23.58-9.65-41.95V28.89A29,29,0,0,0,209.21.65a26.12,26.12,0,0,0-3.72-.57C204.77,0,204.05,0,203.33,0A28,28,0,0,0,182,10s0,0,0,0a29,29,0,0,0-7,18.9V142.12c0,3.93.12,7.78.38,11.52,2.68,40,19.46,69.42,47.71,84.39,13.75,7.3,30.2,11.16,49,11.16,21.37,0,39.69-4.67,54.5-13.55A40.52,40.52,0,0,1,320.19,232ZM342,0a28,28,0,0,0-24.27,14.57,29.09,29.09,0,0,0-3.76,14.32V143.26A108.32,108.32,0,0,1,311.75,166v10.59c0,27.75,6.71,45.47,20.18,55.47l.05.05c13.71-9.81,24-23.64,30.36-41.13a107,107,0,0,0,3.55-11.73,149.44,149.44,0,0,0,4.07-36V28.89C370,13.09,357.63,0,342,0Z"/><rect class="cls-1" x="269.28" y="70.09" width="163.85" height="56.92" rx="28.46"/></g></g></svg>