<svg xmlns="http://www.w3.org/2000/svg" xmlns:xlink="http://www.w3.org/1999/xlink" viewBox="0 0 598.8 643.6"><defs><style>.cls-1,.cls-48{fill:none;}.cls-2{isolation:isolate;}.cls-3{fill:#828282;}.cls-4{fill:#b4b4b4;}.cls-43,.cls-5{fill:#fff;}.cls-6{fill:#dfdfdf;}.cls-7{clip-path:url(#clip-path);}.cls-8{fill:#100028;}.cls-9{fill:#0f0026;}.cls-10{fill:#0d0024;}.cls-11{fill:#0d0023;}.cls-12{fill:#0c0022;}.cls-13{fill:#0a001f;}.cls-14{fill:#0a001e;}.cls-15{fill:#09001d;}.cls-16{fill:#0f002b;}.cls-17{clip-path:url(#clip-path-2);}.cls-18{clip-path:url(#clip-path-3);}.cls-19{fill:#858585;}.cls-20{clip-path:url(#clip-path-4);}.cls-21{fill:#09001c;}.cls-22{clip-path:url(#clip-path-5);}.cls-23{clip-path:url(#clip-path-6);}.cls-24{fill:#a9a9a9;}.cls-25{fill:#a4a4a4;}.cls-26{fill:#9e9e9e;}.cls-27{clip-path:url(#clip-path-7);}.cls-28{clip-path:url(#clip-path-8);}.cls-29{fill:#8a8a8a;}.cls-30{fill:#8f8f8f;}.cls-31{fill:#949494;}.cls-32{fill:#999;}.cls-33{clip-path:url(#clip-path-9);}.cls-34{clip-path:url(#clip-path-10);}.cls-35{clip-path:url(#clip-path-11);}.cls-36{clip-path:url(#clip-path-12);}.cls-37{clip-path:url(#clip-path-13);}.cls-38{clip-path:url(#clip-path-14);}.cls-39{clip-path:url(#clip-path-15);}.cls-40{fill:#180037;}.cls-41{clip-path:url(#clip-path-16);}.cls-42,.cls-45{fill:#f15a24;}.cls-43{font-size:19.19px;letter-spacing:0.1em;}.cls-43,.cls-45{font-family:MyriadPro-Regular, Myriad Pro;}.cls-44{letter-spacing:0.1em;}.cls-45{font-size:20.63px;letter-spacing:0.05em;}.cls-46{letter-spacing:0.05em;}.cls-47{letter-spacing:0.05em;}.cls-48{stroke:#000;stroke-miterlimit:10;stroke-width:5px;}.cls-49{fill-rule:evenodd;}.cls-50{fill:#f6663f;}</style><clipPath id="clip-path"><path class="cls-1" d="M575.22,530.08,563,528.49c12.72-7.24,18.64-24.41,13.23-38.36l12.19,1.6C593.86,505.68,587.94,522.85,575.22,530.08Z"/></clipPath><clipPath id="clip-path-2"><path class="cls-1" d="M383.36,634l-12.19-1.6a23.07,23.07,0,0,0,14.29-2.89l12.19,1.6A23.07,23.07,0,0,1,383.36,634Z"/></clipPath><clipPath id="clip-path-3"><path class="cls-1" d="M383.31,634l-12.18-1.6c-7.93-1-14.92-6.43-18.3-15.12L365,618.84C368.4,627.54,375.39,632.93,383.31,634Z"/></clipPath><clipPath id="clip-path-4"><path class="cls-1" d="M381.76,643.36l-12.19-1.6c-10.57-1.39-19.91-8.57-24.41-20.13l12.19,1.59C361.85,634.79,371.19,642,381.76,643.36Z"/></clipPath><clipPath id="clip-path-5"><path class="cls-1" d="M378,9.59l12.19,1.6c7.91,1,14.95,6.43,18.34,15.17l-12.18-1.6C392.93,16,385.89,10.63,378,9.59Z"/></clipPath><clipPath id="clip-path-6"><path class="cls-1" d="M363.47,12.61a23.61,23.61,0,0,1,14.55-3l12.19,1.6a23.59,23.59,0,0,0-14.55,3Z"/></clipPath><clipPath id="clip-path-7"><path class="cls-1" d="M379.58.25l12.19,1.59a31.33,31.33,0,0,0-19.37,4L360.21,4.2A31.21,31.21,0,0,1,379.58.25Z"/></clipPath><clipPath id="clip-path-8"><path class="cls-1" d="M323.22,45c-1.75-4.53,0-9.52,3.66-11.62L339.07,35c-3.69,2.1-5.41,7.09-3.66,11.62,0,0,0,.11.07.17l-12.19-1.59Z"/></clipPath><clipPath id="clip-path-9"><path class="cls-1" d="M323.29,45.22l12.19,1.59c2.38,6.4-.34,14.18-6.15,17.47l-12.19-1.6C323,59.39,325.67,51.61,323.29,45.22Z"/></clipPath><clipPath id="clip-path-10"><path class="cls-1" d="M251.61,100l.06,0,12.18,1.6-.05,0Z"/></clipPath><clipPath id="clip-path-11"><path class="cls-1" d="M245.2,101.25a10.5,10.5,0,0,0,6.41-1.29l12.19,1.6a10.42,10.42,0,0,1-6.41,1.28Z"/></clipPath><clipPath id="clip-path-12"><path class="cls-1" d="M257.27,102.83l-12.19-1.6a10.54,10.54,0,0,1-8.4-6.94l12.19,1.6A10.54,10.54,0,0,0,257.27,102.83Z"/></clipPath><clipPath id="clip-path-13"><path class="cls-1" d="M231.08,89.41,243.27,91a7.18,7.18,0,0,1,5.6,4.88l-12.19-1.6A7.17,7.17,0,0,0,231.08,89.41Z"/></clipPath><clipPath id="clip-path-14"><path class="cls-1" d="M227,90.28a6.89,6.89,0,0,1,4.23-.87L243.38,91a6.85,6.85,0,0,0-4.24.87Z"/></clipPath><clipPath id="clip-path-15"><path class="cls-1" d="M185.08,153.47l-12.19-1.6c-5.42-13.94.49-31.1,13.22-38.34l12.19,1.59C185.57,122.36,179.66,139.53,185.08,153.47Z"/></clipPath><clipPath id="clip-path-16"><path class="cls-1" d="M177.41,157.83l-12.19-1.6c-7.22-18.56.69-41.5,17.63-51.12l12.18,1.6C178.1,116.33,170.19,139.27,177.41,157.83Z"/></clipPath></defs><g id="Layer_2" data-name="Layer 2"><g id="Layer_1-2" data-name="Layer 1"><g class="cls-2"><polygon class="cls-3" points="292.67 444.22 283.14 443.05 279.47 433.69 289 434.87 292.67 444.22"/><polygon class="cls-4" points="284.5 448.85 274.96 447.68 283.14 443.05 292.67 444.22 284.5 448.85"/><polygon points="284.5 448.85 274.96 447.68 271.3 438.33 280.83 439.5 284.5 448.85"/><polygon points="280.83 439.5 271.3 438.33 279.47 433.69 289 434.87 280.83 439.5"/><polygon class="cls-3" points="279.99 462.85 270.46 461.68 266.79 452.31 276.31 453.49 279.99 462.85"/><polygon class="cls-4" points="271.8 467.49 262.27 466.32 270.46 461.68 279.99 462.85 271.8 467.49"/><polygon class="cls-3" points="276.31 453.49 266.79 452.31 263.12 442.96 272.65 444.13 276.31 453.49"/><polygon class="cls-4" points="263.62 472.13 254.09 470.95 262.27 466.32 271.8 467.49 263.62 472.13"/><polygon class="cls-3" points="273.48 420.78 263.95 419.6 260.28 410.25 269.81 411.43 273.48 420.78"/><polygon points="264.45 448.77 254.92 447.6 263.12 442.96 272.65 444.13 264.45 448.77"/><polygon class="cls-3" points="274.32 397.44 264.79 396.27 261.12 386.91 270.65 388.09 274.32 397.44"/><polygon class="cls-3" points="268.98 434.78 259.45 433.61 255.77 424.24 265.3 425.41 268.98 434.78"/><polygon class="cls-4" points="265.3 425.41 255.77 424.24 263.95 419.6 273.48 420.78 265.3 425.41"/><polygon class="cls-4" points="266.14 402.07 256.61 400.9 264.79 396.27 274.32 397.44 266.14 402.07"/><polygon class="cls-3" points="264.45 448.77 254.92 447.6 251.25 438.25 260.79 439.42 264.45 448.77"/><polygon class="cls-4" points="260.79 439.42 251.25 438.25 259.45 433.61 268.98 434.78 260.79 439.42"/><polygon class="cls-4" points="255.44 476.76 245.91 475.58 254.09 470.95 263.62 472.13 255.44 476.76"/><polygon class="cls-3" points="270.65 388.09 261.12 386.91 257.45 377.54 266.98 378.72 270.65 388.09"/><polygon points="261.63 416.06 252.1 414.88 260.28 410.25 269.81 411.43 261.63 416.06"/><polygon points="266.14 402.07 256.61 400.9 252.94 391.55 262.47 392.72 266.14 402.07"/><polygon class="cls-3" points="261.63 416.06 252.1 414.88 248.43 405.53 257.96 406.7 261.63 416.06"/><polygon points="256.27 453.4 246.74 452.23 243.07 442.88 252.6 444.05 256.27 453.4"/><polygon class="cls-4" points="247.25 481.4 237.72 480.22 245.91 475.58 255.44 476.76 247.25 481.4"/><polygon points="262.47 392.72 252.94 391.55 249.27 382.18 258.8 383.35 262.47 392.72"/><polygon points="258.8 383.35 249.27 382.18 257.45 377.54 266.98 378.72 258.8 383.35"/><polygon points="248.09 458.04 238.56 456.86 246.74 452.23 256.27 453.4 248.09 458.04"/><polygon class="cls-3" points="263.31 369.37 253.78 368.19 250.11 358.84 259.64 360.01 263.31 369.37"/><polygon class="cls-3" points="257.96 406.7 248.43 405.53 244.76 396.18 254.29 397.35 257.96 406.7"/><polygon points="247.25 481.4 237.72 480.22 234.04 470.86 243.57 472.03 247.25 481.4"/><polygon class="cls-4" points="255.13 374 245.6 372.82 253.78 368.19 263.31 369.37 255.13 374"/><polygon class="cls-4" points="244.43 448.68 234.9 447.51 243.07 442.88 252.6 444.05 244.43 448.68"/><polygon class="cls-3" points="248.09 458.04 238.56 456.86 234.9 447.51 244.43 448.68 248.09 458.04"/><polygon points="251.46 364.64 241.93 363.47 250.11 358.84 259.64 360.01 251.46 364.64"/><polygon points="246.1 401.99 236.57 400.82 244.76 396.18 254.29 397.35 246.1 401.99"/><polygon points="244.43 448.68 234.9 447.51 231.22 438.14 240.75 439.31 244.43 448.68"/><polygon class="cls-4" points="235.39 476.66 225.86 475.49 234.04 470.86 243.57 472.03 235.39 476.66"/><polygon class="cls-4" points="246.95 378.63 237.42 377.46 245.6 372.82 255.13 374 246.95 378.63"/><polygon points="245.26 425.33 235.73 424.16 232.06 414.8 241.59 415.98 245.26 425.33"/><polygon points="236.23 453.32 226.7 452.15 234.9 447.51 244.43 448.68 236.23 453.32"/><polygon class="cls-3" points="251.46 364.64 241.93 363.47 238.25 354.1 247.79 355.28 251.46 364.64"/><polygon points="240.75 439.31 231.22 438.14 227.55 428.79 237.08 429.96 240.75 439.31"/><polygon points="237.08 429.96 227.55 428.79 235.73 424.16 245.26 425.33 237.08 429.96"/><polygon points="246.95 378.63 237.42 377.46 233.75 368.1 243.28 369.28 246.95 378.63"/><polygon points="237.92 406.62 228.39 405.45 236.57 400.82 246.1 401.99 237.92 406.62"/><polygon points="241.59 415.98 232.06 414.8 228.39 405.45 237.92 406.62 241.59 415.98"/><polygon class="cls-3" points="236.23 453.32 226.7 452.15 223.03 442.78 232.56 443.95 236.23 453.32"/><polygon class="cls-3" points="230.89 490.66 221.36 489.49 217.68 480.12 227.21 481.3 230.89 490.66"/><polygon class="cls-4" points="227.21 481.3 217.68 480.12 225.86 475.49 235.39 476.66 227.21 481.3"/><polygon class="cls-3" points="237.08 429.96 227.55 428.79 223.88 419.44 233.41 420.61 237.08 429.96"/><polygon points="243.28 369.28 233.75 368.1 230.08 358.74 239.61 359.91 243.28 369.28"/><polygon points="239.61 359.91 230.08 358.74 238.26 354.1 247.79 355.28 239.61 359.91"/><polygon class="cls-4" points="222.71 495.3 213.18 494.12 221.36 489.49 230.89 490.66 222.71 495.3"/><polygon class="cls-4" points="228.89 434.6 219.36 433.43 227.55 428.79 237.08 429.96 228.89 434.6"/><polygon class="cls-3" points="244.12 345.92 234.59 344.75 230.92 335.4 240.45 336.57 244.12 345.92"/><polygon class="cls-3" points="238.76 383.27 229.23 382.1 225.56 372.74 235.09 373.92 238.76 383.27"/><polygon class="cls-3" points="244.95 322.57 235.42 321.4 231.75 312.04 241.28 313.22 244.95 322.57"/><polygon points="224.38 448.59 214.85 447.41 223.03 442.78 232.56 443.95 224.38 448.59"/><polygon class="cls-3" points="239.61 359.91 230.08 358.74 226.41 349.38 235.94 350.56 239.61 359.91"/><polygon class="cls-4" points="235.94 350.56 226.41 349.38 234.59 344.75 244.12 345.92 235.94 350.56"/><polygon points="222.71 495.3 213.18 494.12 209.5 484.75 219.03 485.93 222.71 495.3"/><polygon class="cls-4" points="230.58 387.9 221.05 386.73 229.23 382.1 238.76 383.27 230.58 387.9"/><polygon points="225.22 425.25 215.69 424.07 223.88 419.44 233.41 420.61 225.22 425.25"/><polygon points="228.89 434.6 219.36 433.43 215.69 424.07 225.22 425.25 228.89 434.6"/><polygon class="cls-4" points="236.77 327.2 227.24 326.03 235.42 321.4 244.95 322.57 236.77 327.2"/><polygon points="223.54 471.94 214.01 470.77 210.34 461.42 219.88 462.59 223.54 471.94"/><polygon points="219.88 462.59 210.34 461.42 218.52 456.78 228.05 457.96 219.88 462.59"/><polygon class="cls-3" points="223.54 471.94 214.01 470.77 210.34 461.42 219.88 462.59 223.54 471.94"/><polygon class="cls-4" points="219.88 462.59 210.34 461.42 218.52 456.78 228.05 457.96 219.88 462.59"/><polygon class="cls-4" points="231.41 364.55 221.88 363.38 230.08 358.74 239.61 359.91 231.41 364.55"/><polygon class="cls-3" points="235.09 373.92 225.56 372.74 221.88 363.38 231.41 364.55 235.09 373.92"/><polygon class="cls-3" points="229.74 411.26 220.21 410.08 216.54 400.71 226.07 401.89 229.74 411.26"/><polygon class="cls-3" points="241.28 313.22 231.75 312.04 228.08 302.69 237.61 303.86 241.28 313.22"/><polygon class="cls-3" points="224.38 448.59 214.85 447.41 211.18 438.06 220.71 439.24 224.38 448.59"/><polygon points="240.45 336.57 244.12 345.92 235.94 350.56 232.27 341.2 240.45 336.57"/><polygon points="235.94 350.56 226.41 349.38 222.74 340.03 232.27 341.2 235.94 350.56"/><polygon points="232.27 341.2 222.74 340.03 230.92 335.4 240.45 336.57 232.27 341.2"/><polygon points="230.58 387.9 221.05 386.73 217.38 377.38 226.91 378.55 230.58 387.9"/><polygon class="cls-4" points="221.55 415.9 212.02 414.72 220.21 410.08 229.74 411.26 221.55 415.9"/><polygon points="227.75 355.19 218.22 354.02 226.41 349.38 235.94 350.56 227.75 355.19"/><polygon class="cls-4" points="210.84 490.57 201.31 489.39 209.5 484.75 219.03 485.93 210.84 490.57"/><polygon class="cls-3" points="214.52 499.94 204.99 498.76 201.31 489.39 210.84 490.57 214.52 499.94"/><polygon class="cls-3" points="226.07 401.89 216.54 400.71 212.87 391.36 222.4 392.54 226.07 401.89"/><polygon class="cls-3" points="237.61 303.86 228.08 302.69 224.41 293.34 233.94 294.51 237.61 303.86"/><polygon class="cls-4" points="228.59 331.83 219.06 330.66 227.24 326.03 236.77 327.2 228.59 331.83"/><polygon points="215.37 476.57 205.83 475.4 202.16 466.05 211.7 467.22 215.37 476.57"/><polygon points="226.91 378.55 217.38 377.38 213.71 368.01 223.24 369.18 226.91 378.55"/><polygon class="cls-4" points="206.34 504.57 196.81 503.39 204.99 498.76 214.52 499.94 206.34 504.57"/><polygon points="221.55 415.9 212.02 414.72 208.35 405.35 217.88 406.53 221.55 415.9"/><polygon points="212.53 443.87 203 442.69 211.18 438.06 220.71 439.24 212.53 443.87"/><polygon points="216.2 453.22 206.67 452.05 203 442.69 212.53 443.87 216.2 453.22"/><polygon class="cls-3" points="227.75 355.19 218.21 354.02 214.54 344.67 224.08 345.84 227.75 355.19"/><polygon points="207.17 481.21 197.64 480.04 205.83 475.4 215.37 476.57 207.17 481.21"/><polygon class="cls-3" points="222.4 392.54 212.87 391.36 209.2 382.01 218.73 383.18 222.4 392.54"/><polygon class="cls-3" points="233.94 294.51 224.41 293.34 220.74 283.97 230.27 285.14 233.94 294.51"/><polygon class="cls-3" points="217.04 429.88 207.51 428.71 203.84 419.35 213.37 420.53 217.04 429.88"/><polygon points="208.02 457.85 198.49 456.68 206.67 452.05 216.2 453.22 208.02 457.85"/><polygon points="223.24 369.18 213.71 368.01 210.03 358.65 219.57 359.83 223.24 369.18"/><polygon points="206.34 504.57 196.81 503.39 193.13 494.03 202.66 495.2 206.34 504.57"/><polygon points="217.88 406.53 208.35 405.35 204.68 396 214.21 397.17 217.88 406.53"/><polygon class="cls-4" points="208.86 434.51 199.33 433.34 207.51 428.71 217.04 429.88 208.86 434.51"/><polygon class="cls-4" points="220.4 336.47 210.87 335.3 219.06 330.66 228.59 331.83 220.4 336.47"/><polygon class="cls-4" points="203.5 471.86 193.97 470.69 202.16 466.05 211.7 467.22 203.5 471.86"/><polygon class="cls-3" points="218.73 383.18 209.2 382.01 205.53 372.64 215.06 373.81 218.73 383.18"/><polygon class="cls-3" points="230.27 285.14 220.74 283.97 217.07 274.62 226.6 275.79 230.27 285.14"/><polygon class="cls-3" points="208.02 457.85 198.49 456.68 194.82 447.33 204.35 448.5 208.02 457.85"/><polygon points="219.57 359.83 210.03 358.65 206.37 349.3 215.9 350.48 219.57 359.83"/><polygon points="215.9 350.48 206.37 349.3 214.55 344.67 224.08 345.84 215.9 350.48"/><polygon points="198.99 485.85 189.46 484.67 197.64 480.04 207.17 481.21 198.99 485.85"/><polygon points="202.66 495.2 193.13 494.03 189.46 484.67 198.99 485.85 202.66 495.2"/><polygon points="213.37 420.53 217.04 429.88 208.86 434.51 205.19 425.16 213.37 420.53"/><polygon points="205.19 425.16 195.66 423.99 203.84 419.36 213.37 420.53 205.19 425.16"/><polygon points="208.86 434.51 199.33 433.34 195.66 423.99 205.19 425.16 208.86 434.51"/><polygon class="cls-3" points="215.06 373.81 205.53 372.64 201.86 363.29 211.39 364.46 215.06 373.81"/><polygon class="cls-3" points="198.16 509.2 188.63 508.03 184.95 498.66 194.48 499.83 198.16 509.2"/><polygon class="cls-3" points="226.6 275.79 217.07 274.62 213.4 265.26 222.93 266.44 226.6 275.79"/><polygon class="cls-4" points="206.03 401.81 196.5 400.63 204.68 396 214.21 397.17 206.03 401.81"/><polygon class="cls-4" points="212.22 341.11 202.69 339.93 210.87 335.3 220.4 336.47 212.22 341.11"/><polygon class="cls-4" points="195.32 476.49 185.79 475.32 193.97 470.69 203.5 471.86 195.32 476.49"/><polygon class="cls-5" points="215.37 476.57 207.17 481.21 198.99 485.85 195.32 476.49 203.5 471.86 211.7 467.22 215.37 476.57"/><polygon class="cls-3" points="198.99 485.85 189.46 484.67 185.79 475.32 195.32 476.49 198.99 485.85"/><polygon class="cls-4" points="189.97 513.84 180.44 512.67 188.63 508.03 198.16 509.2 189.97 513.84"/><polygon class="cls-3" points="205.19 425.16 195.66 423.99 191.99 414.62 201.52 415.79 205.19 425.16"/><polygon points="196.16 453.14 186.63 451.97 194.82 447.33 204.35 448.5 196.16 453.14"/><polygon class="cls-3" points="211.39 364.46 201.86 363.29 198.19 353.93 207.72 355.11 211.39 364.46"/><polygon class="cls-3" points="194.48 499.83 184.95 498.66 181.28 489.31 190.81 490.48 194.48 499.83"/><polygon class="cls-4" points="190.81 490.48 181.28 489.31 189.46 484.67 198.99 485.85 190.81 490.48"/><polygon class="cls-3" points="222.93 266.44 213.4 265.26 209.73 255.89 219.26 257.07 222.93 266.44"/><polygon class="cls-4" points="197.01 429.79 187.48 428.62 195.66 423.99 205.19 425.16 197.01 429.79"/><polygon class="cls-3" points="200.68 439.15 191.15 437.97 187.48 428.62 197.01 429.79 200.68 439.15"/><polygon points="195.32 476.49 185.79 475.32 182.12 465.95 191.65 467.13 195.32 476.49"/><polygon points="189.97 513.84 180.44 512.67 176.76 503.3 186.29 504.47 189.97 513.84"/><polygon class="cls-4" points="197.85 406.44 188.32 405.27 196.5 400.63 206.03 401.81 197.85 406.44"/><polygon class="cls-3" points="201.52 415.79 191.99 414.62 188.32 405.27 197.85 406.44 201.52 415.79"/><polygon class="cls-3" points="196.16 453.14 186.63 451.97 182.96 442.61 192.49 443.79 196.16 453.14"/><polygon class="cls-4" points="192.49 443.79 182.96 442.61 191.15 437.97 200.68 439.15 192.49 443.79"/><polygon class="cls-4" points="204.04 345.74 194.51 344.56 202.69 339.93 212.22 341.11 204.04 345.74"/><polygon points="187.14 481.13 177.61 479.95 185.79 475.32 195.32 476.49 187.14 481.13"/><polygon points="197.01 429.79 187.48 428.62 183.81 419.25 193.34 420.43 197.01 429.79"/><polygon points="203.19 369.1 193.66 367.93 189.99 358.57 199.53 359.75 203.19 369.1"/><polygon points="199.53 359.75 189.99 358.57 198.19 353.93 207.72 355.11 199.53 359.75"/><polygon points="186.29 504.47 176.76 503.3 173.09 493.94 182.62 495.12 186.29 504.47"/><polygon points="211.08 261.7 201.55 260.53 209.73 255.89 219.26 257.07 211.08 261.7"/><polygon points="188.82 434.43 179.29 433.26 187.48 428.62 197.01 429.79 188.82 434.43"/><polygon class="cls-4" points="183.47 471.76 173.94 470.58 182.12 465.95 191.65 467.13 183.47 471.76"/><polygon class="cls-3" points="187.14 481.13 177.61 479.95 173.94 470.58 183.47 471.76 187.14 481.13"/><polygon points="195.01 373.73 185.48 372.56 193.66 367.93 203.19 369.1 195.01 373.73"/><polygon class="cls-3" points="181.79 518.47 172.25 517.3 168.58 507.93 178.11 509.1 181.79 518.47"/><polygon points="206.57 275.7 197.04 274.53 205.22 269.89 214.75 271.07 206.57 275.7"/><polygon class="cls-4" points="206.57 275.7 197.04 274.53 205.22 269.89 214.75 271.07 206.57 275.7"/><polygon points="193.34 420.43 183.81 419.25 180.14 409.9 189.67 411.07 193.34 420.43"/><polygon class="cls-4" points="195.85 350.38 186.32 349.2 194.51 344.56 204.04 345.74 195.85 350.38"/><polygon points="182.62 495.12 173.09 493.94 169.42 484.59 178.95 485.77 182.62 495.12"/><polygon points="202.36 392.45 194.18 397.09 190.5 387.72 198.68 383.09 202.36 392.45"/><polygon points="190.5 387.72 180.97 386.55 189.15 381.91 198.68 383.09 190.5 387.72"/><polygon class="cls-3" points="194.18 397.09 184.65 395.91 180.97 386.55 190.5 387.72 194.18 397.09"/><polygon class="cls-4" points="190.5 387.72 180.97 386.55 189.15 381.91 198.68 383.09 190.5 387.72"/><polygon points="194.18 397.09 184.65 395.91 180.97 386.55 190.5 387.72 194.18 397.09"/><polygon class="cls-4" points="173.61 523.11 164.08 521.93 172.25 517.3 181.79 518.47 173.61 523.11"/><polygon points="202.05 289.69 192.52 288.52 200.71 283.88 210.24 285.05 202.05 289.69"/><polygon class="cls-4" points="202.05 289.69 192.52 288.52 200.71 283.88 210.24 285.05 202.05 289.69"/><polygon class="cls-3" points="195.01 373.73 185.48 372.56 181.81 363.21 191.35 364.38 195.01 373.73"/><polygon class="cls-3" points="178.11 509.1 168.58 507.93 164.91 498.58 174.44 499.75 178.11 509.1"/><polygon points="202.9 266.33 193.37 265.16 201.55 260.53 211.08 261.7 202.9 266.33"/><polygon points="184.31 448.42 174.78 447.25 171.11 437.89 180.64 439.06 184.31 448.42"/><polygon points="180.64 439.06 171.11 437.89 179.29 433.26 188.82 434.43 180.64 439.06"/><polygon points="178.95 485.77 169.42 484.59 165.75 475.22 175.28 476.4 178.95 485.77"/><polygon class="cls-4" points="198.38 280.34 188.85 279.17 197.04 274.53 206.57 275.7 198.38 280.34"/><polygon points="198.38 280.34 188.85 279.17 197.04 274.53 206.57 275.7 198.38 280.34"/><polygon class="cls-4" points="181.48 415.71 171.95 414.54 180.14 409.9 189.67 411.07 181.48 415.71"/><polygon class="cls-3" points="185.15 425.06 175.62 423.89 171.95 414.54 181.48 415.71 185.15 425.06"/><polygon points="196.71 327.03 187.17 325.86 183.5 316.51 193.04 317.68 196.71 327.03"/><polygon class="cls-3" points="196.71 327.03 187.17 325.86 183.5 316.51 193.04 317.68 196.71 327.03"/><polygon points="176.13 453.05 166.6 451.88 174.78 447.25 184.31 448.42 176.13 453.05"/><polygon points="179.8 462.4 170.27 461.23 166.6 451.88 176.13 453.05 179.8 462.4"/><polygon class="cls-4" points="187.67 355.01 178.14 353.84 186.32 349.2 195.85 350.38 187.67 355.01"/><polygon class="cls-3" points="174.44 499.75 164.91 498.58 161.24 489.22 170.77 490.4 174.44 499.75"/><polygon points="186 401.72 176.47 400.55 172.79 391.18 182.32 392.35 186 401.72"/><polygon class="cls-4" points="165.43 527.74 155.9 526.56 164.08 521.93 173.61 523.11 165.43 527.74"/><polygon points="193.87 294.33 184.34 293.15 192.52 288.52 202.05 289.69 193.87 294.33"/><polygon class="cls-4" points="193.87 294.33 184.34 293.15 192.52 288.52 202.05 289.69 193.87 294.33"/><polygon class="cls-4" points="176.97 429.7 167.44 428.52 175.62 423.89 185.15 425.06 176.97 429.7"/><polygon class="cls-3" points="192.18 341.03 182.65 339.85 178.98 330.5 188.51 331.67 192.18 341.03"/><polygon points="192.18 341.03 182.65 339.85 178.98 330.5 188.51 331.67 192.18 341.03"/><polygon points="175.28 476.4 165.75 475.22 162.08 465.87 171.61 467.04 175.28 476.4"/><polygon points="171.61 467.04 162.08 465.87 170.27 461.23 179.8 462.4 171.61 467.04"/><polygon points="261.63 416.06 269.81 411.43 273.48 420.78 265.3 425.41 268.98 434.78 260.79 439.42 264.45 448.77 272.65 444.13 276.31 453.49 279.99 462.85 271.8 467.49 263.62 472.13 255.44 476.76 247.25 481.4 243.57 472.03 235.39 476.66 227.21 481.3 230.89 490.66 222.71 495.3 219.03 485.93 210.84 490.57 214.52 499.94 206.34 504.57 202.66 495.2 198.99 485.85 207.17 481.21 215.37 476.57 211.7 467.22 203.5 471.86 195.32 476.49 191.65 467.13 183.47 471.76 187.14 481.13 195.32 476.49 198.99 485.85 190.81 490.48 194.48 499.83 198.16 509.2 189.97 513.84 186.29 504.47 182.62 495.12 178.95 485.77 175.28 476.4 171.61 467.04 179.8 462.4 176.13 453.05 184.31 448.42 180.64 439.06 188.82 434.43 197.01 429.79 200.68 439.15 192.49 443.79 196.16 453.14 204.35 448.5 208.02 457.85 216.2 453.22 212.53 443.87 220.71 439.24 224.38 448.59 232.56 443.95 236.23 453.32 244.43 448.68 248.09 458.04 256.27 453.4 252.6 444.05 244.43 448.68 240.75 439.31 237.08 429.96 245.26 425.33 241.59 415.98 237.92 406.62 246.1 401.99 254.29 397.35 257.96 406.7 261.63 416.06"/><polygon points="183.17 369.01 173.64 367.84 181.81 363.21 191.35 364.38 183.17 369.01"/><polygon points="186.84 378.37 177.31 377.19 173.64 367.84 183.17 369.01 186.84 378.37"/><polygon points="194.71 270.97 185.18 269.8 193.37 265.16 202.9 266.33 194.71 270.97"/><polygon points="177.81 406.36 168.28 405.19 176.47 400.55 186 401.72 177.81 406.36"/><polygon points="193.04 317.68 183.5 316.51 179.83 307.14 189.36 308.31 193.04 317.68"/><polygon class="cls-3" points="193.04 317.68 183.5 316.51 179.83 307.14 189.36 308.31 193.04 317.68"/><polygon class="cls-3" points="176.13 453.05 166.6 451.88 162.93 442.52 172.46 443.7 176.13 453.05"/><polygon points="187.67 355.01 178.14 353.84 174.47 344.49 184 345.66 187.67 355.01"/><polygon class="cls-3" points="170.77 490.4 161.24 489.22 157.57 479.86 167.1 481.03 170.77 490.4"/><polygon points="178.66 383 169.13 381.82 177.31 377.19 186.84 378.37 178.66 383"/><polygon class="cls-4" points="190.2 284.97 180.67 283.8 188.85 279.17 198.38 280.34 190.2 284.97"/><polygon points="190.2 284.97 180.67 283.8 188.85 279.17 198.38 280.34 190.2 284.97"/><polygon points="188.51 331.67 178.98 330.5 175.31 321.15 184.84 322.32 188.51 331.67"/><polygon class="cls-3" points="188.51 331.67 178.98 330.5 175.31 321.15 184.84 322.32 188.51 331.67"/><polygon class="cls-4" points="167.94 457.69 158.41 456.52 166.6 451.88 176.13 453.05 167.94 457.69"/><polygon class="cls-3" points="177.81 406.36 168.28 405.19 164.6 395.82 174.13 396.99 177.81 406.36"/><polygon class="cls-4" points="174.13 396.99 164.6 395.82 172.79 391.18 182.32 392.35 174.13 396.99"/><polygon class="cls-4" points="157.24 532.38 147.7 531.2 155.9 526.56 165.43 527.74 157.24 532.38"/><polygon points="210.24 285.05 213.91 294.41 217.59 303.77 221.26 313.13 213.06 317.77 204.88 322.4 196.71 327.03 193.04 317.68 189.36 308.31 185.69 298.96 193.87 294.33 202.05 289.69 210.24 285.05"/><polygon points="185.69 298.96 176.16 297.79 184.34 293.15 193.87 294.33 185.69 298.96"/><polygon points="189.36 308.31 179.83 307.14 176.16 297.79 185.69 298.96 189.36 308.31"/><polygon class="cls-4" points="185.69 298.96 176.16 297.79 184.34 293.15 193.87 294.33 185.69 298.96"/><polygon class="cls-3" points="189.36 308.31 179.83 307.14 176.16 297.79 185.69 298.96 189.36 308.31"/><polygon points="218.42 280.42 222.09 289.77 225.77 299.14 229.44 308.5 233.1 317.85 224.93 322.48 216.73 327.12 208.55 331.75 200.37 336.39 192.18 341.03 188.51 331.67 184.84 322.32 181.17 312.95 177.5 303.6 173.83 294.25 182.02 289.61 190.2 284.97 198.38 280.34 206.57 275.7 214.75 271.07 218.42 280.42"/><polygon class="cls-6" points="198.38 280.34 206.57 275.7 214.75 271.07 218.42 280.42 222.09 289.77 225.77 299.14 229.44 308.5 233.1 317.85 224.93 322.48 216.73 327.12 208.55 331.75 200.37 336.39 192.18 341.03 188.51 331.67 184.84 322.32 181.17 312.95 177.5 303.6 173.83 294.25 182.02 289.61 190.2 284.97 198.38 280.34"/><polygon class="cls-6" points="213.91 294.41 217.59 303.77 221.26 313.13 213.06 317.77 204.88 322.4 196.71 327.03 193.04 317.68 189.36 308.31 185.69 298.96 193.87 294.33 202.05 289.69 210.24 285.05 213.91 294.41"/><polygon class="cls-3" points="172.46 443.7 162.93 442.52 159.26 433.16 168.79 434.33 172.46 443.7"/><polygon class="cls-4" points="168.79 434.33 159.26 433.16 167.44 428.52 176.97 429.7 168.79 434.33"/><polygon points="184 345.66 174.47 344.49 170.8 335.13 180.33 336.31 184 345.66"/><polygon class="cls-3" points="167.1 481.03 157.57 479.86 153.9 470.5 163.43 471.68 167.1 481.03"/><polygon class="cls-3" points="178.66 383 169.13 381.82 165.46 372.47 174.99 373.64 178.66 383"/><polygon points="186.53 275.61 177 274.43 185.18 269.8 194.71 270.97 186.53 275.61"/><polygon points="184.84 322.32 175.31 321.15 171.64 311.78 181.17 312.95 184.84 322.32"/><polygon class="cls-3" points="184.84 322.32 175.31 321.15 171.64 311.78 181.17 312.95 184.84 322.32"/><polygon points="167.94 457.69 158.41 456.52 154.74 447.16 164.27 448.34 167.94 457.69"/><polygon class="cls-3" points="179.49 359.64 169.96 358.47 166.29 349.12 175.82 350.29 179.49 359.64"/><polygon points="174.13 396.99 164.6 395.82 160.93 386.46 170.46 387.64 174.13 396.99"/><polygon class="cls-4" points="182.02 289.61 172.49 288.43 180.67 283.8 190.2 284.97 182.02 289.61"/><polygon points="182.02 289.61 172.49 288.43 180.67 283.8 190.2 284.97 182.02 289.61"/><polygon points="180.33 336.31 170.8 335.13 167.13 325.78 176.66 326.95 180.33 336.31"/><polygon class="cls-3" points="163.43 471.68 153.9 470.5 150.23 461.15 159.76 462.32 163.43 471.68"/><polygon class="cls-4" points="171.31 364.28 161.78 363.1 169.96 358.47 179.49 359.64 171.31 364.28"/><polygon points="169.63 410.99 160.1 409.82 156.42 400.45 165.95 401.62 169.63 410.99"/><polygon points="165.95 401.62 156.42 400.45 164.6 395.82 174.13 396.99 165.95 401.62"/><polygon class="cls-4" points="149.06 537.01 139.53 535.84 147.7 531.2 157.24 532.38 149.06 537.01"/><polygon points="181.17 312.95 171.64 311.78 167.97 302.43 177.5 303.6 181.17 312.95"/><polygon class="cls-3" points="181.17 312.95 171.64 311.78 167.97 302.43 177.5 303.6 181.17 312.95"/><polygon points="164.27 448.34 154.74 447.16 151.06 437.8 160.59 438.97 164.27 448.34"/><polygon points="170.46 387.64 160.93 386.46 157.26 377.11 166.79 378.28 170.46 387.64"/><polygon points="166.79 378.28 157.26 377.11 165.46 372.47 174.99 373.64 166.79 378.28"/><polygon points="178.35 280.24 168.82 279.06 177 274.43 186.53 275.61 178.35 280.24"/><polygon points="165.12 424.98 155.59 423.8 151.92 414.45 161.45 415.62 165.12 424.98"/><polygon points="161.45 415.62 151.92 414.45 160.1 409.82 169.63 410.99 161.45 415.62"/><polygon points="176.66 326.95 167.13 325.78 163.46 316.41 172.99 317.58 176.66 326.95"/><polygon class="cls-3" points="159.76 462.32 150.23 461.15 146.56 451.8 156.09 452.97 159.76 462.32"/><polygon points="171.31 364.28 161.78 363.1 158.11 353.75 167.64 354.92 171.31 364.28"/><polygon points="167.64 354.92 158.11 353.75 166.29 349.12 175.82 350.29 167.64 354.92"/><polygon points="173.83 294.25 164.3 293.07 172.49 288.43 182.02 289.61 173.83 294.25"/><polygon points="177.5 303.6 167.97 302.43 164.3 293.07 173.83 294.25 177.5 303.6"/><polygon class="cls-4" points="173.83 294.25 164.3 293.07 172.49 288.43 182.02 289.61 173.83 294.25"/><polygon class="cls-3" points="177.5 303.6 167.97 302.43 164.3 293.07 173.83 294.25 177.5 303.6"/><polygon points="156.93 429.62 147.4 428.44 155.59 423.8 165.12 424.98 156.93 429.62"/><polygon class="cls-3" points="172.15 340.94 162.62 339.76 158.95 330.41 168.48 331.58 172.15 340.94"/><polygon class="cls-3" points="161.45 415.62 151.92 414.45 148.24 405.08 157.77 406.26 161.45 415.62"/><polygon class="cls-4" points="140.88 541.64 131.34 540.47 139.53 535.84 149.06 537.01 140.88 541.64"/><polygon points="172.99 317.58 163.46 316.41 159.79 307.06 169.32 308.23 172.99 317.58"/><polygon class="cls-4" points="152.42 443.6 142.88 442.43 151.06 437.8 160.59 438.97 152.42 443.6"/><polygon class="cls-3" points="167.64 354.92 158.11 353.75 154.44 344.4 163.97 345.57 167.64 354.92"/><polygon class="cls-4" points="163.97 345.57 154.44 344.4 162.62 339.76 172.15 340.94 163.97 345.57"/><polygon points="170.16 284.88 160.62 283.7 168.82 279.06 178.35 280.24 170.16 284.88"/><polygon class="cls-4" points="153.26 420.26 143.73 419.09 151.92 414.45 161.45 415.62 153.26 420.26"/><polygon class="cls-3" points="168.48 331.58 158.95 330.41 155.28 321.04 164.81 322.22 168.48 331.58"/><polygon points="147.91 457.6 138.38 456.43 146.56 451.8 156.09 452.97 147.91 457.6"/><polygon class="cls-3" points="163.12 368.92 153.59 367.74 149.92 358.39 159.45 359.56 163.12 368.92"/><polygon class="cls-4" points="159.45 359.56 149.92 358.39 158.11 353.75 167.64 354.92 159.45 359.56"/><polygon points="169.32 308.23 159.79 307.06 156.12 297.7 165.65 298.88 169.32 308.23"/><polygon points="148.75 434.25 139.22 433.08 147.4 428.44 156.93 429.62 148.75 434.25"/><polygon points="163.97 345.57 154.44 344.4 150.77 335.04 160.31 336.22 163.97 345.57"/><polygon points="143.4 471.59 133.87 470.42 142.05 465.78 151.58 466.96 143.4 471.59"/><polygon class="cls-4" points="143.4 471.59 133.87 470.42 142.05 465.78 151.58 466.96 143.4 471.59"/><polygon class="cls-3" points="158.62 382.92 149.09 381.74 145.41 372.38 154.94 373.55 158.62 382.92"/><polygon class="cls-4" points="154.94 373.55 145.41 372.38 153.59 367.74 163.12 368.92 154.94 373.55"/><polygon points="149.58 410.9 140.05 409.72 148.24 405.08 157.78 406.26 149.58 410.9"/><polygon class="cls-4" points="132.68 546.28 123.15 545.11 131.34 540.47 140.88 541.64 132.68 546.28"/><polygon class="cls-3" points="164.81 322.22 155.28 321.04 151.61 311.69 161.14 312.86 164.81 322.22"/><polygon class="cls-4" points="144.24 448.24 134.71 447.06 142.88 442.43 152.42 443.6 144.24 448.24"/><polygon points="155.78 350.21 146.25 349.04 154.44 344.4 163.97 345.57 155.78 350.21"/><polygon points="159.45 359.56 149.92 358.39 146.25 349.04 155.78 350.21 159.45 359.56"/><polygon points="138.88 485.58 129.35 484.41 137.54 479.77 147.07 480.94 138.88 485.58"/><polygon class="cls-4" points="138.88 485.58 129.35 484.41 137.54 479.77 147.07 480.94 138.88 485.58"/><polygon class="cls-3" points="154.1 396.9 144.57 395.73 140.91 386.38 150.44 387.55 154.1 396.9"/><polygon class="cls-4" points="150.44 387.55 140.91 386.38 149.09 381.74 158.62 382.92 150.44 387.55"/><polygon points="165.65 298.88 156.12 297.7 152.44 288.34 161.98 289.51 165.65 298.88"/><polygon points="161.98 289.51 152.44 288.34 160.62 283.7 170.16 284.88 161.98 289.51"/><polygon class="cls-4" points="145.08 424.9 135.55 423.72 143.73 419.09 153.26 420.26 145.08 424.9"/><polygon points="160.31 336.22 150.77 335.04 147.1 325.68 156.63 326.85 160.31 336.22"/><polygon points="139.73 462.24 130.2 461.06 138.38 456.43 147.91 457.6 139.73 462.24"/><polygon points="154.94 373.55 145.41 372.38 141.74 363.02 151.27 364.2 154.94 373.55"/><polygon points="151.27 364.2 141.74 363.02 149.92 358.39 159.45 359.56 151.27 364.2"/><polygon class="cls-4" points="145.91 401.54 136.38 400.37 144.57 395.73 154.1 396.9 145.91 401.54"/><polygon class="cls-3" points="161.14 312.86 151.61 311.69 147.94 302.34 157.47 303.51 161.14 312.86"/><polygon points="140.57 438.88 131.04 437.71 139.22 433.08 148.75 434.25 140.57 438.88"/><polygon points="144.24 448.24 134.71 447.06 131.04 437.71 140.57 438.88 144.24 448.24"/><polygon points="135.21 476.23 125.68 475.06 133.87 470.42 143.4 471.59 135.21 476.23"/><polygon class="cls-4" points="135.21 476.23 125.68 475.06 133.87 470.42 143.4 471.59 135.21 476.23"/><polygon points="150.44 387.55 140.91 386.38 137.23 377.01 146.76 378.18 150.44 387.55"/><polygon points="154.94 373.55 158.62 382.92 150.44 387.55 146.76 378.18 154.94 373.55"/><polygon points="146.76 378.18 137.23 377.01 145.41 372.38 154.94 373.55 146.76 378.18"/><polygon points="133.53 522.92 124 521.75 120.33 512.39 129.86 513.57 133.53 522.92"/><polygon class="cls-3" points="133.53 522.92 124 521.75 120.33 512.39 129.86 513.57 133.53 522.92"/><polygon points="141.4 415.53 131.87 414.35 140.05 409.72 149.58 410.9 141.4 415.53"/><polygon class="cls-4" points="124.5 550.91 114.97 549.74 123.15 545.11 132.68 546.28 124.5 550.91"/><polygon points="130.7 490.21 121.17 489.04 129.35 484.41 138.88 485.58 130.7 490.21"/><polygon class="cls-4" points="130.7 490.21 121.17 489.04 129.35 484.41 138.88 485.58 130.7 490.21"/><polygon points="142.24 392.19 132.71 391.02 140.91 386.38 150.44 387.55 142.24 392.19"/><polygon points="129.01 536.91 119.48 535.74 115.81 526.39 125.34 527.56 129.01 536.91"/><polygon class="cls-3" points="129.01 536.91 119.48 535.74 115.81 526.39 125.34 527.56 129.01 536.91"/><polygon class="cls-3" points="157.47 303.51 147.94 302.34 144.27 292.97 153.8 294.14 157.47 303.51"/><polygon class="cls-4" points="136.9 429.53 127.37 428.36 135.55 423.72 145.08 424.9 136.9 429.53"/><polygon class="cls-4" points="148.44 331.49 138.91 330.31 147.1 325.68 156.63 326.85 148.44 331.49"/><polygon points="131.54 466.88 122.01 465.7 130.2 461.06 139.73 462.24 131.54 466.88"/><polygon class="cls-3" points="146.76 378.18 137.23 377.01 133.56 367.65 143.09 368.83 146.76 378.18"/><polygon points="129.86 513.57 120.33 512.39 116.66 503.03 126.19 504.2 129.86 513.57"/><polygon class="cls-3" points="129.86 513.57 120.33 512.39 116.66 503.03 126.19 504.2 129.86 513.57"/><polygon class="cls-4" points="137.73 406.18 128.2 405 136.38 400.37 145.91 401.54 137.73 406.18"/><polygon points="124.5 550.91 114.97 549.74 111.3 540.37 120.83 541.55 124.5 550.91"/><polygon class="cls-3" points="136.06 452.87 126.53 451.69 122.86 442.34 132.39 443.51 136.06 452.87"/><polygon class="cls-3" points="147.6 354.84 138.07 353.67 134.4 344.32 143.93 345.49 147.6 354.84"/><polygon class="cls-4" points="127.03 480.86 117.5 479.69 125.68 475.06 135.21 476.23 127.03 480.86"/><polygon points="127.03 480.86 117.5 479.69 125.68 475.06 135.21 476.23 127.03 480.86"/><polygon class="cls-4" points="138.57 382.82 129.04 381.65 137.23 377.01 146.76 378.18 138.57 382.82"/><polygon class="cls-3" points="125.34 527.56 115.81 526.39 112.14 517.03 121.67 518.21 125.34 527.56"/><polygon points="125.34 527.56 115.81 526.39 112.14 517.03 121.67 518.21 125.34 527.56"/><polygon points="133.22 420.16 123.69 418.99 131.87 414.35 141.4 415.53 133.22 420.16"/><polygon class="cls-4" points="127.86 457.51 118.33 456.33 126.53 451.69 136.06 452.87 127.86 457.51"/><polygon class="cls-3" points="143.09 368.83 133.56 367.65 129.89 358.3 139.42 359.48 143.09 368.83"/><polygon class="cls-4" points="139.42 359.48 129.89 358.3 138.07 353.67 147.6 354.84 139.42 359.48"/><polygon points="126.19 504.2 116.66 503.03 112.99 493.67 122.52 494.85 126.19 504.2"/><polygon class="cls-4" points="122.52 494.85 112.99 493.67 121.17 489.04 130.7 490.21 122.52 494.85"/><polygon class="cls-3" points="126.19 504.2 116.66 503.03 112.99 493.67 122.52 494.85 126.19 504.2"/><polygon points="121.67 518.21 112.14 517.03 108.47 507.67 118 508.84 121.67 518.21"/><polygon class="cls-3" points="121.67 518.21 112.14 517.03 108.47 507.67 118 508.84 121.67 518.21"/><polygon class="cls-4" points="118.85 485.49 109.32 484.32 117.5 479.69 127.03 480.86 118.85 485.49"/><polygon points="118.85 485.49 109.32 484.32 117.5 479.69 127.03 480.86 118.85 485.49"/><polygon points="118 508.84 108.47 507.67 104.8 498.31 114.33 499.49 118 508.84"/><polygon class="cls-3" points="118 508.84 108.47 507.67 104.8 498.31 114.33 499.49 118 508.84"/><polygon points="110.66 490.13 101.13 488.96 109.32 484.32 118.85 485.49 110.66 490.13"/><polygon class="cls-4" points="110.66 490.13 101.13 488.96 109.32 484.32 118.85 485.49 110.66 490.13"/><polygon class="cls-3" points="114.33 499.49 104.8 498.31 101.13 488.96 110.66 490.13 114.33 499.49"/><polygon points="114.33 499.49 104.8 498.31 101.13 488.96 110.66 490.13 114.33 499.49"/><polygon points="147.91 457.6 156.09 452.97 159.76 462.32 163.43 471.68 167.1 481.03 170.77 490.4 174.44 499.75 178.11 509.1 181.79 518.47 173.61 523.11 165.43 527.74 157.24 532.38 149.06 537.01 140.88 541.64 132.68 546.28 124.5 550.91 120.83 541.55 117.16 532.19 113.49 522.84 109.82 513.47 106.15 504.12 102.48 494.77 98.81 485.41 106.99 480.78 115.18 476.14 123.36 471.51 131.54 466.88 139.73 462.24 147.91 457.6"/><polygon points="155.25 476.31 158.92 485.66 162.59 495.03 166.26 504.38 169.93 513.74 161.75 518.37 153.56 523.01 145.38 527.64 137.2 532.27 129.01 536.91 125.34 527.56 121.67 518.21 118 508.84 114.33 499.49 110.66 490.13 118.85 485.49 127.03 480.86 135.21 476.23 143.4 471.59 151.58 466.96 155.25 476.31"/><polygon class="cls-5" points="135.21 476.23 143.4 471.59 151.58 466.96 155.25 476.31 158.92 485.66 162.59 495.03 166.26 504.38 169.93 513.74 161.75 518.37 153.56 523.01 145.38 527.64 137.2 532.27 129.01 536.91 125.34 527.56 121.67 518.21 118 508.84 114.33 499.49 110.66 490.13 118.85 485.49 127.03 480.86 135.21 476.23"/><polygon class="cls-6" points="150.74 490.3 154.41 499.66 158.08 509.02 149.89 513.66 141.71 518.29 133.53 522.92 129.86 513.57 126.19 504.2 122.52 494.85 130.7 490.21 138.88 485.58 147.07 480.94 150.74 490.3"/><polygon points="134.06 396.82 124.53 395.65 132.71 391.02 142.24 392.19 134.06 396.82"/><polygon points="120.83 541.55 111.3 540.37 107.63 531.02 117.16 532.19 120.83 541.55"/><polygon points="145.62 298.77 136.09 297.6 144.27 292.97 153.8 294.14 145.62 298.77"/><polygon class="cls-4" points="128.72 434.16 119.19 432.99 127.37 428.36 136.9 429.53 128.72 434.16"/><polygon class="cls-3" points="132.39 443.51 122.86 442.34 119.19 432.99 128.72 434.16 132.39 443.51"/><polygon class="cls-3" points="143.93 345.49 134.4 344.32 130.73 334.95 140.26 336.12 143.93 345.49"/><polygon class="cls-4" points="140.26 336.12 130.73 334.95 138.91 330.31 148.44 331.49 140.26 336.12"/><polygon points="123.36 471.51 113.83 470.33 122.01 465.7 131.54 466.88 123.36 471.51"/><polygon points="138.57 382.82 129.04 381.65 125.37 372.29 134.9 373.47 138.57 382.82"/><polygon class="cls-4" points="129.55 410.81 120.02 409.63 128.2 405 137.73 406.18 129.55 410.81"/><polygon class="cls-3" points="133.22 420.16 123.69 418.99 120.02 409.63 129.55 410.81 133.22 420.16"/><polygon class="cls-3" points="144.77 322.14 135.24 320.96 131.57 311.61 141.1 312.78 144.77 322.14"/><polygon class="cls-4" points="141.1 312.78 131.57 311.61 139.76 306.97 149.29 308.14 141.1 312.78"/><polygon points="141.1 312.78 131.57 311.61 139.76 306.97 149.29 308.14 141.1 312.78"/><polygon points="144.77 322.14 135.24 320.96 131.57 311.61 141.1 312.78 144.77 322.14"/><polygon points="127.86 457.51 118.33 456.33 114.67 446.98 124.2 448.15 127.86 457.51"/><polygon points="139.42 359.48 129.89 358.3 126.22 348.95 135.75 350.12 139.42 359.48"/><polygon points="117.16 532.19 107.63 531.02 103.96 521.67 113.49 522.84 117.16 532.19"/><polygon points="128.72 434.16 119.19 432.99 115.51 423.62 125.04 424.79 128.72 434.16"/><polygon points="140.26 336.12 130.73 334.95 127.06 325.6 136.59 326.77 140.26 336.12"/><polygon points="131.23 364.12 121.7 362.94 129.89 358.3 139.42 359.48 131.23 364.12"/><polygon points="134.9 373.47 125.37 372.29 121.7 362.94 131.23 364.12 134.9 373.47"/><polygon points="129.55 410.81 120.02 409.63 116.35 400.28 125.89 401.45 129.55 410.81"/><polygon points="125.89 401.45 116.35 400.28 124.53 395.65 134.06 396.82 125.89 401.45"/><polygon points="137.43 303.41 127.89 302.24 136.09 297.6 145.62 298.77 137.43 303.41"/><polygon points="120.53 438.8 111 437.63 119.19 432.99 128.72 434.16 120.53 438.8"/><polygon points="132.08 340.75 122.55 339.58 130.73 334.95 140.26 336.12 132.08 340.75"/><polygon points="115.18 476.14 105.65 474.97 113.83 470.33 123.36 471.51 115.18 476.14"/><polygon class="cls-3" points="130.39 387.45 120.86 386.28 117.19 376.93 126.72 378.1 130.39 387.45"/><polygon points="113.49 522.84 103.96 521.67 100.29 512.3 109.82 513.47 113.49 522.84"/><polygon points="121.38 415.44 111.84 414.27 120.02 409.63 129.55 410.81 121.38 415.44"/><polygon class="cls-4" points="116.02 452.79 106.48 451.61 114.67 446.98 124.2 448.15 116.02 452.79"/><polygon class="cls-3" points="119.69 462.14 110.16 460.97 106.48 451.61 116.02 452.79 119.69 462.14"/><polygon class="cls-4" points="127.56 354.76 118.03 353.59 126.22 348.95 135.75 350.12 127.56 354.76"/><polygon class="cls-4" points="122.21 392.09 112.68 390.91 120.86 386.28 130.39 387.45 122.21 392.09"/><polygon class="cls-3" points="120.53 438.8 111 437.63 107.32 428.26 116.85 429.43 120.53 438.8"/><polygon class="cls-4" points="116.85 429.43 107.32 428.26 115.51 423.62 125.04 424.79 116.85 429.43"/><polygon points="116.85 429.43 107.32 428.26 103.65 418.91 113.18 420.08 116.85 429.43"/><polygon class="cls-6" points="116.85 429.43 125.04 424.79 128.72 434.16 120.53 438.8 116.85 429.43"/><polygon class="cls-4" points="128.41 331.4 118.88 330.23 127.06 325.6 136.59 326.77 128.41 331.4"/><polygon class="cls-4" points="111.51 466.77 101.97 465.6 110.16 460.97 119.69 462.14 111.51 466.77"/><polygon class="cls-3" points="126.72 378.1 117.19 376.93 113.52 367.57 123.05 368.75 126.72 378.1"/><polygon points="109.82 513.47 100.29 512.3 96.62 502.94 106.15 504.12 109.82 513.47"/><polygon class="cls-3" points="121.38 415.44 111.84 414.27 108.17 404.91 117.71 406.09 121.38 415.44"/><polygon points="132.92 317.42 123.39 316.24 119.71 306.87 129.25 308.05 132.92 317.42"/><polygon points="129.25 308.05 119.71 306.87 127.89 302.24 137.43 303.41 129.25 308.05"/><polygon points="127.56 354.76 118.03 353.59 114.36 344.22 123.89 345.39 127.56 354.76"/><polygon points="123.89 345.39 114.36 344.22 122.55 339.58 132.08 340.75 123.89 345.39"/><polygon points="106.99 480.78 97.46 479.61 105.65 474.97 115.18 476.14 106.99 480.78"/><polygon points="124.74 322.05 115.21 320.87 123.39 316.24 132.92 317.42 124.74 322.05"/><polygon class="cls-3" points="123.05 368.75 113.52 367.57 109.85 358.22 119.38 359.39 123.05 368.75"/><polygon points="106.15 504.12 96.62 502.94 92.95 493.59 102.48 494.77 106.15 504.12"/><polygon class="cls-4" points="114.03 396.72 104.5 395.55 112.68 390.91 122.21 392.09 114.03 396.72"/><polygon points="108.67 434.06 99.14 432.89 107.32 428.26 116.85 429.43 108.67 434.06"/><polygon class="cls-4" points="120.22 336.04 110.69 334.87 118.88 330.23 128.41 331.4 120.22 336.04"/><polygon class="cls-4" points="103.31 471.41 93.78 470.24 101.97 465.6 111.51 466.77 103.31 471.41"/><polygon points="109.51 410.73 99.98 409.55 108.17 404.91 117.71 406.09 109.51 410.73"/><polygon class="cls-3" points="119.38 359.39 109.85 358.22 106.18 348.85 115.71 350.03 119.38 359.39"/><polygon points="98.81 485.41 89.28 484.24 97.46 479.61 106.99 480.78 98.81 485.41"/><polygon points="102.48 494.77 92.95 493.59 89.28 484.24 98.81 485.41 102.48 494.77"/><polygon class="cls-4" points="105 424.71 95.47 423.54 103.65 418.91 113.18 420.08 105 424.71"/><polygon class="cls-3" points="108.67 434.06 99.14 432.89 95.47 423.54 105 424.71 108.67 434.06"/><polygon points="116.55 326.69 107.02 325.51 115.21 320.87 124.74 322.05 116.55 326.69"/><polygon points="120.22 336.04 110.69 334.87 107.02 325.51 116.55 326.69 120.22 336.04"/><polygon points="103.31 471.41 93.78 470.24 90.11 460.88 99.64 462.06 103.31 471.41"/><polygon class="cls-4" points="105.84 401.36 96.31 400.19 104.5 395.55 114.03 396.72 105.84 401.36"/><polygon class="cls-3" points="115.71 350.03 106.18 348.85 102.51 339.5 112.04 340.67 115.71 350.03"/><polygon points="101.33 415.36 91.8 414.19 99.98 409.55 109.51 410.73 101.33 415.36"/><polygon points="100.49 438.7 90.96 437.52 87.29 428.17 96.82 429.35 100.49 438.7"/><polygon class="cls-3" points="112.04 340.67 102.51 339.5 98.84 330.15 108.37 331.32 112.04 340.67"/><polygon class="cls-4" points="91.47 466.69 81.93 465.52 90.11 460.88 99.64 462.06 91.47 466.69"/><polygon class="cls-4" points="97.66 405.99 88.13 404.82 96.31 400.19 105.84 401.36 97.66 405.99"/><polygon points="92.3 443.34 82.77 442.16 90.96 437.52 100.49 438.7 92.3 443.34"/><polygon points="93.16 419.99 83.62 418.82 91.8 414.19 101.33 415.36 93.16 419.99"/><polygon class="cls-3" points="108.37 331.32 98.84 330.15 95.16 320.78 104.69 321.95 108.37 331.32"/><polygon points="91.47 466.69 81.93 465.52 78.27 456.17 87.8 457.34 91.47 466.69"/><polygon class="cls-4" points="88.63 433.98 79.1 432.81 87.29 428.17 96.82 429.34 88.63 433.98"/><polygon class="cls-4" points="89.48 410.62 79.95 409.45 88.13 404.82 97.66 405.99 89.48 410.62"/><polygon points="84.12 447.97 74.59 446.8 82.77 442.16 92.3 443.34 84.12 447.97"/><polygon points="87.8 457.34 78.27 456.17 74.59 446.8 84.12 447.97 87.8 457.34"/><polygon points="84.96 424.63 75.43 423.46 83.62 418.82 93.16 419.99 84.96 424.63"/><polygon points="96.52 326.58 86.98 325.41 95.16 320.78 104.69 321.95 96.52 326.58"/><polygon class="cls-4" points="80.45 438.62 70.92 437.44 79.1 432.81 88.63 433.98 80.45 438.62"/><polygon points="92.01 340.58 82.48 339.41 90.66 334.78 100.19 335.95 92.01 340.58"/><polygon class="cls-4" points="92.01 340.58 82.48 339.41 90.66 334.78 100.19 335.95 92.01 340.58"/><polygon class="cls-4" points="81.29 415.26 71.76 414.09 79.95 409.45 89.48 410.62 81.29 415.26"/><polygon points="87.49 354.58 77.96 353.4 86.15 348.76 95.68 349.94 87.49 354.58"/><polygon class="cls-4" points="87.49 354.58 77.96 353.4 86.15 348.76 95.68 349.94 87.49 354.58"/><polygon points="80.45 438.62 70.92 437.44 67.25 428.09 76.78 429.26 80.45 438.62"/><polygon points="76.78 429.26 67.25 428.09 75.43 423.46 84.96 424.63 76.78 429.26"/><polygon points="88.34 331.22 78.81 330.04 86.98 325.41 96.52 326.58 88.34 331.22"/><polygon points="83.82 345.22 74.29 344.05 82.48 339.41 92.01 340.58 83.82 345.22"/><polygon class="cls-4" points="83.82 345.22 74.29 344.05 82.48 339.41 92.01 340.58 83.82 345.22"/><polygon points="82.14 391.92 72.61 390.74 68.94 381.39 78.47 382.56 82.14 391.92"/><polygon class="cls-3" points="82.14 391.92 72.61 390.74 68.94 381.39 78.47 382.56 82.14 391.92"/><polygon class="cls-4" points="73.11 419.9 63.58 418.72 71.76 414.09 81.29 415.26 73.11 419.9"/><polygon points="79.31 359.21 69.78 358.04 77.96 353.4 87.49 354.58 79.31 359.21"/><polygon class="cls-4" points="79.31 359.21 69.78 358.04 77.96 353.4 87.49 354.58 79.31 359.21"/><polygon points="77.62 405.91 68.09 404.74 64.42 395.38 73.95 396.56 77.62 405.91"/><polygon class="cls-3" points="77.62 405.91 68.09 404.74 64.42 395.38 73.95 396.56 77.62 405.91"/><polygon points="80.14 335.86 70.61 334.68 78.81 330.04 88.34 331.22 80.14 335.86"/><polygon points="78.47 382.56 68.94 381.39 65.27 372.02 74.8 373.2 78.47 382.56"/><polygon class="cls-3" points="78.47 382.56 68.94 381.39 65.27 372.02 74.8 373.2 78.47 382.56"/><polygon points="73.11 419.9 63.58 418.72 59.91 409.37 69.44 410.54 73.11 419.9"/><polygon class="cls-4" points="75.64 349.86 66.11 348.68 74.29 344.05 83.82 345.22 75.64 349.86"/><polygon points="75.64 349.86 66.11 348.68 74.29 344.05 83.82 345.22 75.64 349.86"/><polygon class="cls-3" points="73.95 396.56 64.42 395.38 60.75 386.03 70.28 387.2 73.95 396.56"/><polygon points="73.95 396.56 64.42 395.38 60.75 386.03 70.28 387.2 73.95 396.56"/><polygon points="74.8 373.2 65.27 372.02 61.6 362.67 71.13 363.84 74.8 373.2"/><polygon points="71.13 363.84 61.6 362.67 69.78 358.04 79.31 359.21 71.13 363.84"/><polygon points="95.68 349.94 99.35 359.29 103.02 368.66 106.69 378.01 98.5 382.65 90.32 387.29 82.14 391.92 78.47 382.56 74.8 373.2 71.13 363.84 79.31 359.21 87.49 354.58 95.68 349.94"/><polygon class="cls-4" points="71.13 363.84 61.6 362.67 69.78 358.04 79.31 359.21 71.13 363.84"/><polygon class="cls-3" points="74.8 373.2 65.27 372.02 61.6 362.67 71.13 363.84 74.8 373.2"/><polygon points="69.44 410.54 59.91 409.37 56.24 400.02 65.77 401.19 69.44 410.54"/><polygon points="71.96 340.49 62.43 339.32 70.61 334.68 80.14 335.86 71.96 340.49"/><polygon points="70.28 387.2 60.75 386.03 57.07 376.66 66.61 377.84 70.28 387.2"/><polygon class="cls-3" points="70.28 387.2 60.75 386.03 57.07 376.66 66.61 377.84 70.28 387.2"/><polygon points="67.46 354.49 57.93 353.32 66.11 348.68 75.64 349.86 67.46 354.49"/><polygon class="cls-4" points="67.46 354.49 57.93 353.32 66.11 348.68 75.64 349.86 67.46 354.49"/><polygon points="65.77 401.19 56.24 400.02 52.57 390.66 62.1 391.84 65.77 401.19"/><polygon class="cls-3" points="66.61 377.84 57.07 376.66 53.41 367.31 62.94 368.48 66.61 377.84"/><polygon points="66.61 377.84 57.07 376.66 53.41 367.31 62.94 368.48 66.61 377.84"/><polygon points="63.78 345.12 54.25 343.95 62.43 339.32 71.96 340.49 63.78 345.12"/><polygon points="62.1 391.84 52.57 390.66 48.9 381.3 58.43 382.47 62.1 391.84"/><polygon points="62.94 368.48 53.41 367.31 49.74 357.96 59.27 359.13 62.94 368.48"/><polygon points="59.27 359.13 49.74 357.96 57.93 353.32 67.46 354.49 59.27 359.13"/><polygon class="cls-3" points="62.94 368.48 53.41 367.31 49.74 357.96 59.27 359.13 62.94 368.48"/><polygon class="cls-4" points="59.27 359.13 49.74 357.96 57.93 353.32 67.46 354.49 59.27 359.13"/><polygon points="58.43 382.47 48.9 381.3 45.23 371.94 54.76 373.12 58.43 382.47"/><polygon points="55.59 349.76 46.06 348.59 54.25 343.95 63.78 345.12 55.59 349.76"/><polygon points="54.76 373.12 45.23 371.94 41.56 362.59 51.09 363.76 54.76 373.12"/><polygon points="47.41 354.39 37.88 353.22 46.06 348.59 55.59 349.76 47.41 354.39"/><polygon points="51.09 363.76 41.56 362.59 37.88 353.22 47.41 354.39 51.09 363.76"/><path class="cls-5" d="M0,335.5,106.46,606.88l237.3-134.4L237.31,201.1Zm69.44,75-3.67-9.35-3.67-9.35-3.67-9.37-3.67-9.35-3.67-9.36-3.68-9.37,8.18-4.63,8.19-4.64L72,340.49l8.18-4.63,8.2-4.64,8.18-4.64,8.17-4.63,3.68,9.37,3.67,9.35,3.67,9.36,3.67,9.36,3.67,9.36,3.67,9.35,3.67,9.35-8.18,4.64L114,396.72l-8.19,4.64L97.66,406l-8.18,4.63-8.19,4.64-8.18,4.64-3.67-9.36m90.32,51.78,3.67,9.36L167.1,481l3.67,9.37,3.67,9.35,3.67,9.35,3.68,9.37-8.18,4.64-8.18,4.63-8.2,4.64L149.06,537l-8.18,4.63-8.2,4.64-8.18,4.63-3.67-9.36-3.67-9.36-3.67-9.35-3.67-9.37-3.67-9.35-3.67-9.35-3.67-9.36,8.18-4.63,8.19-4.64,8.18-4.63,8.18-4.63,8.19-4.64,8.18-4.64,8.18-4.63,3.67,9.35M269,434.78l-8.2,4.64,3.67,9.35,8.2-4.64,3.67,9.35,3.67,9.37-8.19,4.64-8.18,4.64-8.18,4.63-8.19,4.64L243.57,472l-8.18,4.63-8.18,4.63,3.68,9.37-8.18,4.64L219,485.93l-8.19,4.64,3.68,9.37-8.18,4.63-3.68-9.37L199,485.85l-8.18,4.63,3.67,9.35,3.68,9.37L190,513.84l-3.68-9.37-3.67-9.35L179,485.77l-3.67-9.37L171.61,467l8.19-4.64-3.67-9.35-8.19,4.64-3.67-9.35L160.6,439l-8.18,4.63-8.18,4.64-3.67-9.36,8.18-4.63,8.18-4.63,8.19-4.64-3.67-9.36-8.19,4.64-8.18,4.64-8.18,4.63-8.18,4.63,3.67,9.35,3.67,9.36-8.2,4.64-3.66-9.36L116,452.79l3.67,9.35-8.18,4.63-8.2,4.64-3.67-9.35-8.17,4.63-3.67-9.35L84.12,448l8.18-4.63,8.19-4.64-3.67-9.36L88.63,434l-8.18,4.64-3.67-9.36L85,424.63,93.15,420l8.18-4.63,8.18-4.63,8.2-4.64,3.66,9.35,8.18-4.63-3.66-9.36,8.17-4.63,8.18-4.63,8.2-4.64-3.68-9.37-8.19,4.64-3.67-9.35-3.67-9.35,8.19-4.64-3.67-9.36-8.19,4.64-3.67-9.37,8.19-4.64,8.18-4.63-3.67-9.35-8.18,4.63L120.22,336l-3.67-9.35,8.19-4.64,8.18-4.63-3.67-9.37,8.17-4.64,8.2-4.64,8.18-4.63,3.67,9.37,3.67,9.35,3.67,9.36,3.67,9.36,3.67,9.36L164,345.57l3.67,9.35,8.18-4.63,3.67,9.35-8.18,4.64-3.67-9.36-8.19,4.64,3.67,9.36-8.18,4.63,3.68,9.37-8.18,4.63,3.66,9.35-8.19,4.64-8.18,4.63-8.18,4.64,3.67,9.35,8.18-4.63,8.18-4.63,8.19-4.64,3.68,9.36,8.18-4.63L166,401.62l8.18-4.63-3.67-9.35-3.67-9.36,8.2-4.64,3.67,9.36,8.18-4.63L183.17,369l8.18-4.63,3.67,9.35,8.17-4.63-3.67-9.35,8.2-4.64,3.67,9.35,3.67,9.35,3.67,9.37,3.67,9.35,3.67,9.36,3.67,9.37-8.19,4.64-3.67-9.37-3.67-9.36L206,401.81l-8.18,4.63,3.67,9.35,3.67,9.37,8.18-4.63,3.67,9.35-8.18,4.63-3.67-9.35L197,429.79l3.67,9.36-8.19,4.64,3.67,9.35,8.19-4.64,3.67,9.35,8.18-4.63-3.67-9.35,8.18-4.64,3.67,9.36,8.18-4.63,3.67,9.36,8.2-4.64-3.68-9.36L237.08,430l-8.19,4.64-3.67-9.35,8.19-4.64,3.67,9.35,8.18-4.63L241.59,416l-3.67-9.36L246.1,402l8.19-4.64L258,406.7l3.67,9.36,8.18-4.64,3.67,9.36-8.18,4.63,3.68,9.37m23.69,9.44-8.18,4.63-3.66-9.35,8.17-4.63,3.67,9.35m-22-56.13,3.67,9.35-8.18,4.63-3.67-9.35-3.67-9.37,8.18-4.63,3.67,9.37m-7.34-18.73L255.13,374,247,378.63l-3.67-9.35-3.67-9.37-8.2,4.64,3.68,9.37,3.67,9.35-8.18,4.63-3.67-9.35-3.68-9.37-3.66-9.35-3.67-9.36,8.18-4.63,3.67,9.36,8.19-4.64-3.67-9.36,8.18-4.63,3.67,9.35-8.18,4.64,3.67,9.35,8.18-4.63,3.67,9.36,8.18-4.63,3.67,9.35M222.93,266.44l3.67,9.35,3.67,9.35,3.67,9.37,3.67,9.35,3.67,9.36,3.67,9.35-8.18,4.63-8.18,4.63-8.19,4.64-8.18,4.64L204,345.74l-8.19,4.64L187.67,355,184,345.66l-3.67-9.35L176.66,327,173,317.58l-3.67-9.35-3.67-9.35L162,289.51l8.17-4.63,8.2-4.64,8.18-4.64,8.18-4.63,8.19-4.64,8.18-4.63,8.18-4.63,3.67,9.37"/><polygon points="289 434.87 292.67 444.22 284.5 448.85 280.83 439.5 289 434.87"/><polygon points="266.98 378.72 270.65 388.09 274.32 397.44 266.14 402.07 262.47 392.72 258.8 383.35 266.98 378.72"/><polygon class="cls-6" points="256.27 453.4 248.09 458.04 244.43 448.68 252.6 444.05 256.27 453.4"/><polygon points="247.79 355.28 251.46 364.64 259.64 360.01 263.31 369.37 255.13 374 246.95 378.63 243.28 369.28 239.61 359.91 247.79 355.28"/><polygon points="233.41 420.61 237.08 429.96 228.89 434.6 225.22 425.25 233.41 420.61"/><polygon class="cls-6" points="223.54 471.94 219.88 462.59 228.05 457.96 231.72 467.31 223.54 471.94"/><polygon points="231.72 467.31 223.54 471.94 219.88 462.59 228.05 457.96 231.72 467.31"/><polygon points="224.08 345.84 227.75 355.19 235.94 350.56 239.61 359.91 231.41 364.55 235.09 373.92 238.76 383.27 230.58 387.9 226.91 378.55 223.24 369.18 219.57 359.83 215.9 350.48 224.08 345.84"/><polygon class="cls-5" points="183.47 471.76 191.65 467.13 195.32 476.49 187.14 481.13 183.47 471.76"/><polygon class="cls-6" points="198.68 383.09 202.36 392.45 194.18 397.09 190.5 387.72 198.68 383.09"/><polygon class="cls-5" points="186 401.72 177.81 406.36 174.13 396.99 182.32 392.35 186 401.72"/><polygon class="cls-5" points="180.64 439.06 184.31 448.42 176.13 453.05 172.46 443.7 168.79 434.33 176.97 429.7 185.15 425.06 181.48 415.71 189.67 411.07 193.34 420.43 197.01 429.79 188.82 434.43 180.64 439.06"/><polygon points="175.82 350.29 179.49 359.64 171.31 364.28 167.64 354.92 175.82 350.29"/><polygon points="163.97 345.57 167.64 354.92 159.45 359.56 155.78 350.21 163.97 345.57"/><polygon points="211.08 261.7 219.26 257.07 222.93 266.44 226.6 275.79 230.27 285.14 233.94 294.51 237.61 303.86 241.28 313.22 244.95 322.57 236.77 327.2 228.59 331.83 220.4 336.47 212.22 341.11 204.04 345.74 195.85 350.38 187.67 355.01 184 345.66 180.33 336.31 176.66 326.95 172.99 317.58 169.32 308.23 165.65 298.88 161.98 289.51 170.16 284.88 178.35 280.24 186.53 275.61 194.71 270.97 202.9 266.33 211.08 261.7"/><polygon points="159.45 359.56 163.12 368.92 154.94 373.55 151.27 364.2 159.45 359.56"/><polygon points="117.71 406.09 121.38 415.44 129.55 410.81 133.22 420.16 141.4 415.53 149.58 410.9 157.78 406.26 161.45 415.62 153.26 420.26 145.08 424.9 136.9 429.53 128.72 434.16 125.04 424.79 116.85 429.43 113.18 420.08 105 424.71 108.67 434.06 116.85 429.43 120.53 438.8 128.72 434.16 132.39 443.51 136.06 452.87 127.86 457.51 124.2 448.15 116.02 452.79 119.69 462.14 111.51 466.77 103.31 471.41 99.64 462.06 91.47 466.69 87.8 457.34 84.12 447.97 92.3 443.34 100.49 438.7 96.82 429.35 88.63 433.99 80.45 438.62 76.78 429.26 84.96 424.63 93.16 419.99 101.33 415.36 109.51 410.73 117.71 406.09"/><polygon points="199.53 359.75 207.72 355.11 211.39 364.46 215.06 373.81 218.73 383.18 222.4 392.54 226.07 401.89 229.74 411.26 221.55 415.9 217.88 406.53 214.21 397.17 206.03 401.81 197.85 406.44 201.52 415.79 205.19 425.16 197.01 429.79 193.34 420.43 189.67 411.07 181.48 415.71 185.15 425.06 176.97 429.7 168.79 434.33 172.46 443.7 176.13 453.05 167.94 457.69 164.27 448.34 160.59 438.97 152.42 443.6 144.24 448.24 140.57 438.88 148.75 434.25 156.93 429.62 165.12 424.98 161.45 415.62 169.63 410.99 165.95 401.62 174.13 396.99 177.81 406.36 186 401.72 182.32 392.35 174.13 396.99 170.46 387.64 166.79 378.28 174.99 373.64 178.66 383 186.84 378.37 183.17 369.01 191.35 364.38 195.01 373.73 203.19 369.1 199.53 359.75"/><polygon points="147.07 480.94 150.74 490.3 154.41 499.66 158.08 509.02 149.89 513.66 141.71 518.29 133.53 522.92 129.86 513.57 126.19 504.2 122.52 494.85 130.7 490.21 138.88 485.58 147.07 480.94"/><polygon class="cls-5" points="151.27 364.2 154.94 373.55 146.76 378.18 143.09 368.83 139.42 359.48 147.6 354.84 143.93 345.49 140.26 336.12 148.44 331.49 156.63 326.85 160.31 336.22 163.97 345.57 155.78 350.21 159.45 359.56 151.27 364.2"/><polygon class="cls-6" points="149.29 308.14 152.96 317.5 144.77 322.14 141.1 312.78 149.29 308.14"/><polygon points="152.96 317.5 144.77 322.14 141.1 312.78 149.29 308.14 152.96 317.5"/><polygon points="139.42 359.48 143.09 368.83 146.76 378.18 138.57 382.82 134.9 373.47 131.23 364.12 139.42 359.48"/><polygon points="150.44 387.55 154.1 396.9 145.91 401.54 137.73 406.18 129.55 410.81 125.89 401.45 134.06 396.82 142.24 392.19 150.44 387.55"/><polygon points="140.26 336.12 143.93 345.49 147.6 354.84 139.42 359.48 135.75 350.12 127.56 354.76 123.89 345.39 132.08 340.75 140.26 336.12"/><polygon class="cls-6" points="105 424.71 113.18 420.08 116.85 429.43 108.67 434.06 105 424.71"/><polygon points="145.62 298.77 153.8 294.14 157.47 303.51 161.14 312.86 164.81 322.22 168.48 331.58 172.15 340.94 163.97 345.57 160.31 336.22 156.63 326.85 148.44 331.49 140.26 336.12 136.59 326.77 128.41 331.4 120.22 336.04 116.55 326.69 124.74 322.05 132.92 317.42 129.25 308.05 137.43 303.41 145.62 298.77"/><polygon points="103.86 345.31 107.53 354.66 111.2 364.03 114.87 373.38 118.54 382.73 110.36 387.37 102.17 392 93.99 396.64 85.81 401.27 77.62 405.91 73.95 396.56 70.28 387.2 66.61 377.84 62.94 368.48 59.27 359.13 67.46 354.49 75.64 349.86 83.82 345.22 92.01 340.58 100.19 335.95 103.86 345.31"/><polygon class="cls-6" points="93.99 396.64 85.81 401.27 77.62 405.91 73.95 396.56 70.28 387.2 66.61 377.84 62.94 368.48 59.27 359.13 67.46 354.49 75.64 349.86 83.82 345.22 92.01 340.58 100.19 335.95 103.86 345.31 107.53 354.66 111.2 364.03 114.87 373.38 118.54 382.73 110.36 387.37 102.17 392 93.99 396.64"/><polygon class="cls-6" points="78.47 382.56 74.8 373.2 71.13 363.84 79.31 359.21 87.49 354.58 95.68 349.94 99.35 359.29 103.02 368.66 106.69 378.01 98.5 382.65 90.32 387.29 82.14 391.92 78.47 382.56"/><polygon points="96.52 326.58 104.69 321.95 108.37 331.32 112.04 340.67 115.71 350.03 119.38 359.39 123.05 368.75 126.72 378.1 130.39 387.45 122.21 392.09 114.03 396.72 105.84 401.36 97.66 405.99 89.48 410.62 81.29 415.26 73.11 419.9 69.44 410.54 65.77 401.19 62.1 391.84 58.43 382.47 54.76 373.12 51.09 363.76 47.41 354.39 55.59 349.76 63.78 345.12 71.96 340.49 80.14 335.86 88.34 331.22 96.52 326.58"/></g><g class="cls-2"><g class="cls-2"><g class="cls-7"><g class="cls-2"><path class="cls-8" d="M575.22,530.08,563,528.49a28.1,28.1,0,0,0,6.37-5l12.19,1.59a27.55,27.55,0,0,1-6.37,5"/><path class="cls-9" d="M581.59,525.09,569.4,523.5a31.85,31.85,0,0,0,3.18-3.94l12.19,1.6a31,31,0,0,1-3.18,3.93"/><path class="cls-10" d="M584.77,521.16l-12.19-1.6a31.74,31.74,0,0,0,2.08-3.53l12.19,1.6a33.68,33.68,0,0,1-2.08,3.53"/><path class="cls-11" d="M586.85,517.63,574.66,516a33.28,33.28,0,0,0,1.52-3.46l12.19,1.59a32.53,32.53,0,0,1-1.52,3.47"/><path class="cls-12" d="M588.37,514.16l-12.19-1.59a37.05,37.05,0,0,0,1.11-3.58l12.18,1.59a33.67,33.67,0,0,1-1.1,3.58"/><path class="cls-13" d="M589.47,510.58,577.29,509a36.11,36.11,0,0,0,.72-3.87l12.19,1.6a33.66,33.66,0,0,1-.73,3.86"/><path class="cls-14" d="M590.2,506.72,578,505.12a32,32,0,0,0,.25-4.59l12.19,1.6a33.54,33.54,0,0,1-.25,4.59"/><path class="cls-15" d="M590.45,502.13l-12.19-1.6a30.1,30.1,0,0,0-2-10.4l12.19,1.6a30.06,30.06,0,0,1,2,10.4"/></g></g></g><polygon class="cls-16" points="397.64 631.12 385.46 629.52 563.03 528.49 575.22 530.09 397.64 631.12"/><g class="cls-2"><g class="cls-17"><g class="cls-2"><path class="cls-10" d="M383.36,634l-12.19-1.6.88.1,12.19,1.6-.88-.1"/><path class="cls-9" d="M384.24,634.11l-12.19-1.6a22.49,22.49,0,0,0,4.49-.06l12.19,1.6a22.49,22.49,0,0,1-4.49.06"/><path class="cls-8" d="M388.73,634.05l-12.19-1.6a24.19,24.19,0,0,0,8.92-2.93l12.19,1.6a24.19,24.19,0,0,1-8.92,2.93"/></g></g></g><g class="cls-2"><g class="cls-18"><g class="cls-2"><path class="cls-19" d="M383.31,634l-12.18-1.6c-7.93-1-14.92-6.43-18.3-15.12L365,618.84c3.38,8.7,10.37,14.09,18.29,15.13"/></g></g></g><g class="cls-2"><g class="cls-20"><g class="cls-2"><path class="cls-15" d="M381.76,643.36l-12.19-1.6c-10.57-1.39-19.91-8.57-24.41-20.13l12.19,1.59c4.5,11.57,13.84,18.75,24.41,20.14"/></g></g></g><polygon class="cls-21" points="588.45 491.73 576.26 490.13 396.33 24.76 408.51 26.36 588.45 491.73"/><g class="cls-2"><g class="cls-22"><g class="cls-2"><path class="cls-15" d="M408.51,26.36l-12.18-1.6C392.93,16,385.89,10.63,378,9.59l12.19,1.6c7.91,1,14.95,6.43,18.34,15.17"/></g></g></g><g class="cls-2"><g class="cls-23"><g class="cls-2"><path class="cls-24" d="M375.66,14.21l-12.19-1.6a24.65,24.65,0,0,1,9.14-3l12.19,1.6a24.59,24.59,0,0,0-9.14,3"/><path class="cls-25" d="M384.8,11.2,372.61,9.6a21.57,21.57,0,0,1,4.54-.06l12.19,1.6a21.57,21.57,0,0,0-4.54.06"/><path class="cls-26" d="M389.34,11.14l-12.19-1.6.88.09,12.19,1.6c-.29,0-.59-.07-.88-.09"/></g></g></g><g class="cls-2"><g class="cls-27"><g class="cls-2"><path class="cls-8" d="M372.4,5.79,360.21,4.2a32.63,32.63,0,0,1,12.14-4l12.19,1.6a32.79,32.79,0,0,0-12.14,4"/><path class="cls-9" d="M384.54,1.8,372.35.2a29.19,29.19,0,0,1,6-.08l12.19,1.59a29.91,29.91,0,0,0-6,.09"/><path class="cls-10" d="M390.59,1.71,378.4.12c.4,0,.79.08,1.18.13l12.19,1.59-1.18-.13"/></g></g></g><polygon class="cls-4" points="339.06 35.02 326.88 33.42 363.47 12.61 375.66 14.21 339.06 35.02"/><g class="cls-2"><g class="cls-28"><g class="cls-2"><path class="cls-19" d="M336.34,51.44l-12.19-1.6a13.92,13.92,0,0,0-.93-4.8,10.19,10.19,0,0,1-.69-3.51l12.19,1.6a10.19,10.19,0,0,0,.69,3.51,13.92,13.92,0,0,1,.93,4.8"/><path class="cls-29" d="M334.72,43.13l-12.19-1.6a9.37,9.37,0,0,1,.08-1.41l12.19,1.59a9.58,9.58,0,0,0-.08,1.42"/><path class="cls-30" d="M334.8,41.71l-12.19-1.59a10.62,10.62,0,0,1,.21-1.15L335,40.57a10.43,10.43,0,0,0-.21,1.14"/><path class="cls-31" d="M335,40.57,322.82,39c.09-.35.2-.7.32-1l12.19,1.59c-.12.34-.23.68-.32,1"/><path class="cls-32" d="M335.33,39.53l-12.19-1.59a8.77,8.77,0,0,1,.44-1l12.18,1.6a9.66,9.66,0,0,0-.43,1"/><path class="cls-26" d="M335.76,38.55,323.58,37a9,9,0,0,1,.58-1l12.19,1.6a11,11,0,0,0-.59,1"/><path class="cls-25" d="M336.35,37.55,324.16,36a8.64,8.64,0,0,1,.9-1.1l12.19,1.59a9.49,9.49,0,0,0-.9,1.11"/><path class="cls-24" d="M337.25,36.44l-12.19-1.59a7.93,7.93,0,0,1,1.82-1.43L339.07,35a8.17,8.17,0,0,0-1.82,1.42"/></g></g></g><g class="cls-2"><g class="cls-33"><g class="cls-2"><path class="cls-24" d="M329.33,64.28l-12.19-1.6a12.91,12.91,0,0,0,2.94-2.29L332.27,62a12.68,12.68,0,0,1-2.94,2.3"/><path class="cls-25" d="M332.27,62l-12.19-1.59a14.1,14.1,0,0,0,1.46-1.81l12.19,1.6a14.91,14.91,0,0,1-1.46,1.8"/><path class="cls-26" d="M333.73,60.18l-12.19-1.6a16.43,16.43,0,0,0,1-1.62l12.19,1.6a16.43,16.43,0,0,1-1,1.62"/><path class="cls-32" d="M334.69,58.56,322.5,57a15.91,15.91,0,0,0,.69-1.59L335.38,57a15.91,15.91,0,0,1-.69,1.59"/><path class="cls-31" d="M335.38,57l-12.19-1.6a15.74,15.74,0,0,0,.51-1.65l12.19,1.6a15.74,15.74,0,0,1-.51,1.65"/><path class="cls-30" d="M335.89,55.32l-12.19-1.6A13.14,13.14,0,0,0,324,52l12.19,1.6a13.14,13.14,0,0,1-.33,1.77"/><path class="cls-29" d="M336.22,53.55,324,52a14.85,14.85,0,0,0,.12-2.11l12.19,1.6a14.85,14.85,0,0,1-.12,2.11"/><path class="cls-19" d="M336.34,51.44l-12.19-1.6a13.92,13.92,0,0,0-.93-4.8,10.19,10.19,0,0,1-.69-3.51l12.19,1.6a10.19,10.19,0,0,0,.69,3.51,13.92,13.92,0,0,1,.93,4.8"/></g></g></g><polygon class="cls-4" points="263.85 101.53 251.67 99.93 317.14 62.68 329.33 64.28 263.85 101.53"/><g class="cls-2"><g class="cls-34"><g class="cls-2"><path class="cls-24" d="M259.81,102.86l-12.19-1.6a11.15,11.15,0,0,0,4-1.33l12.18,1.6a11,11,0,0,1-4,1.33"/></g></g></g><g class="cls-2"><g class="cls-35"><g class="cls-2"><path class="cls-26" d="M257.39,102.84l-12.19-1.59.4,0,12.19,1.6-.4,0"/><path class="cls-25" d="M257.79,102.89l-12.19-1.6a9.76,9.76,0,0,0,2,0l12.19,1.6a9.76,9.76,0,0,1-2,0"/><path class="cls-24" d="M259.81,102.86l-12.19-1.6a11.15,11.15,0,0,0,4-1.33l12.18,1.6a11,11,0,0,1-4,1.33"/></g></g></g><g class="cls-2"><g class="cls-36"><g class="cls-2"><path class="cls-15" d="M257.27,102.83l-12.19-1.6a10.54,10.54,0,0,1-8.4-6.94l12.19,1.6a10.54,10.54,0,0,0,8.4,6.94"/></g></g></g><g class="cls-2"><g class="cls-37"><g class="cls-2"><path class="cls-15" d="M248.87,95.89l-12.19-1.6a7.17,7.17,0,0,0-5.6-4.88L243.27,91a7.18,7.18,0,0,1,5.6,4.88"/></g></g></g><g class="cls-2"><g class="cls-38"><g class="cls-2"><path class="cls-24" d="M239.14,91.88,227,90.28a7.38,7.38,0,0,1,2.66-.88L241.81,91a7.3,7.3,0,0,0-2.67.88"/><path class="cls-25" d="M241.81,91l-12.19-1.6a6.38,6.38,0,0,1,1.31,0L243.12,91a7.18,7.18,0,0,0-1.31,0"/><path class="cls-26" d="M243.12,91l-12.19-1.59.26,0L243.38,91l-.26,0"/></g></g></g><polygon class="cls-4" points="198.3 115.13 186.11 113.53 226.96 90.28 239.15 91.88 198.3 115.13"/><polygon class="cls-16" points="195.03 106.71 182.84 105.11 360.21 4.2 372.39 5.79 195.03 106.71"/><polygon class="cls-3" points="365.02 618.85 352.83 617.25 172.89 151.87 185.08 153.47 365.02 618.85"/><polygon class="cls-21" points="357.35 623.22 345.16 621.63 165.22 156.23 177.41 157.83 357.35 623.22"/><g class="cls-2"><g class="cls-39"><g class="cls-2"><path class="cls-19" d="M185.08,153.47l-12.19-1.6a30.17,30.17,0,0,1-2-10.41l12.19,1.59a30.18,30.18,0,0,0,2,10.42"/><path class="cls-29" d="M183.07,143.05l-12.19-1.59a33.46,33.46,0,0,1,.26-4.59l12.19,1.6a31.9,31.9,0,0,0-.26,4.58"/><path class="cls-30" d="M183.33,138.47l-12.19-1.6a31.09,31.09,0,0,1,.72-3.85l12.19,1.59a31.6,31.6,0,0,0-.72,3.86"/><path class="cls-31" d="M184.05,134.61,171.86,133a33.67,33.67,0,0,1,1.1-3.58l12.19,1.6a34.22,34.22,0,0,0-1.1,3.57"/><path class="cls-32" d="M185.15,131,173,129.44a34.41,34.41,0,0,1,1.52-3.47l12.19,1.6a33.44,33.44,0,0,0-1.52,3.47"/><path class="cls-26" d="M186.67,127.57,174.48,126a32.54,32.54,0,0,1,2.08-3.52l12.19,1.6a31,31,0,0,0-2.08,3.52"/><path class="cls-25" d="M188.75,124.05l-12.19-1.6a30.18,30.18,0,0,1,3.18-3.93l12.19,1.6a29.38,29.38,0,0,0-3.18,3.93"/><path class="cls-24" d="M191.93,120.12l-12.19-1.6a27.83,27.83,0,0,1,6.37-5l12.19,1.59a27.87,27.87,0,0,0-6.37,5"/></g></g></g><path class="cls-40" d="M416.19,22,596.12,487.37c7.22,18.56-.69,41.5-17.64,51.13L401.14,639.41c-17.16,9.54-36.62,2.25-43.79-16.19L177.41,157.83c-7.22-18.56.69-41.5,17.62-51.12L372.4,5.79C389.55-3.75,409,3.54,416.19,22Zm159,508.08c12.72-7.23,18.64-24.4,13.23-38.35L408.51,26.36C403.12,12.49,388.56,7,375.89,14.08L339.06,35a9.33,9.33,0,0,0-3.83,11.16c2.68,6.88,0,14.78-5.9,18.1L264,101.45c-5.94,3.31-12.63.8-15.11-5.56-1.75-4.52-6-6.1-9.66-4L198.3,115.12c-12.73,7.24-18.64,24.41-13.22,38.35L365,618.84c5.39,13.87,20,19.33,32.63,12.28l177.57-101"/><path class="cls-5" d="M375.66,14.21c12.9-7.18,27.46-1.71,32.85,12.15L588.45,491.73c5.41,13.95-.51,31.12-13.23,38.36L397.87,631c-12.9,7.18-27.46,1.72-32.85-12.15L185.08,153.47c-5.42-13.94.49-31.11,13.22-38.35l40.84-23.24a6.53,6.53,0,0,1,9.55,3.53c2.66,6.84,9.35,9.35,15.16,6.12l65.48-37.25c5.86-3.32,8.58-11.22,6.08-17.64-1.75-4.53,0-9.52,3.66-11.62Z"/><g class="cls-2"><g class="cls-41"><g class="cls-2"><path class="cls-15" d="M177.41,157.83l-12.19-1.6a40,40,0,0,1-2.67-13.84l12.19,1.6a40,40,0,0,0,2.67,13.84"/><path class="cls-14" d="M174.74,144l-12.19-1.6a43.14,43.14,0,0,1,.34-6.12l12.19,1.6a43.06,43.06,0,0,0-.34,6.12"/><path class="cls-13" d="M175.08,137.87l-12.19-1.6a45.06,45.06,0,0,1,1-5.16l12.19,1.6a45.06,45.06,0,0,0-1,5.16"/><path class="cls-12" d="M176,132.71l-12.19-1.6a46.37,46.37,0,0,1,1.48-4.78l12.19,1.6a46.37,46.37,0,0,0-1.48,4.78"/><path class="cls-11" d="M177.52,127.93l-12.19-1.6a45.56,45.56,0,0,1,2-4.64l12.19,1.6a44.61,44.61,0,0,0-2,4.64"/><path class="cls-10" d="M179.55,123.29l-12.19-1.6a44.43,44.43,0,0,1,2.78-4.71l12.19,1.6a44.43,44.43,0,0,0-2.78,4.71"/><path class="cls-9" d="M182.33,118.58,170.14,117a41.15,41.15,0,0,1,4.24-5.24l12.19,1.6a41.15,41.15,0,0,0-4.24,5.24"/><path class="cls-8" d="M186.57,113.34l-12.19-1.6a37.17,37.17,0,0,1,8.47-6.63l12.18,1.6a37.34,37.34,0,0,0-8.46,6.63"/></g></g></g></g><g class="cls-2"><path class="cls-42" d="M515.37,440.15h0a19.39,19.39,0,0,1-8.4,24l-94.52,54.14a19.42,19.42,0,0,1-27.7-9.7h0a19.42,19.42,0,0,1,8.4-24l94.53-54.13A19.4,19.4,0,0,1,515.37,440.15Z"/></g><text class="cls-43" transform="matrix(0.84, -0.49, 0.34, 0.94, 430.14, 494.76)">S<tspan class="cls-44" x="11.38" y="0">C</tspan><tspan x="24.51" y="0">AN</tspan></text><text class="cls-45" transform="matrix(0.84, -0.49, 0.34, 0.94, 266.76, 231.71)">QR S<tspan class="cls-46" x="43.99" y="0">C</tspan><tspan class="cls-47" x="57.07" y="0">ANNING</tspan></text><polygon class="cls-48" points="279.41 298.07 307.81 280.83 409.81 218.9 438.04 201.76 453.39 241.59 503.72 372.2 345.09 468.51 279.41 298.07 279.41 298.07"/><path class="cls-49" d="M319.66,350.87l6-3.65,6-3.66,6-3.65,6-3.65,6-3.66,6-3.65,6-3.65-2.5-6.47-2.49-6.46-2.49-6.47-2.49-6.46L349.33,293l-2.49-6.46L344.35,280l-6,3.66-6,3.65-6,3.65-6,3.65-6,3.66-6,3.65-6,3.65,2.5,6.47,2.49,6.46L309.7,325l2.49,6.46,2.49,6.47,2.49,6.46,2.49,6.47m3.53-10.12,6-3.65,6-3.66,6-3.65,6-3.65,6-3.66L350.79,316l-2.5-6.47-2.49-6.46-2.49-6.46-2.49-6.47-6,3.65-6,3.66-6,3.65-6,3.65-6,3.66,2.49,6.46,2.5,6.47,2.49,6.46,2.49,6.47,2.49,6.46"/><path class="cls-49" d="M386.89,294.1l6-3.65-2.5-6.47-2.49-6.46-2.49-6.47-2.49-6.46-2.49-6.47-6,3.66-6,3.65-6,3.65,2.49,6.47-6,3.65-6,3.65,2.5,6.47,6-3.65,6-3.66,2.49,6.47,6-3.66,6-3.65,2.49,6.47,2.49,6.46M373.4,278.36l6-3.65-2.49-6.47-6,3.65,2.49,6.47"/><path class="cls-49" d="M403.91,299.72l6-3.65,6-3.65,6-3.65,6-3.66,6-3.65,6-3.65,6-3.66-2.5-6.46L441,261.22l-2.49-6.46-2.49-6.47-2.49-6.46-2.49-6.47-2.49-6.46-6,3.65-6,3.66-6,3.65-6,3.65-6,3.65-6,3.66-6,3.65,2.49,6.47,2.49,6.46,2.49,6.47,2.49,6.46,2.49,6.47,2.49,6.46,2.5,6.46m3.52-10.11,6-3.66,6-3.65,6-3.65,6-3.66,6-3.65L435,264.88l-2.5-6.47L430,252l-2.49-6.47L425.06,239l-6,3.65-6,3.65L407,250l-6,3.65-6,3.65,2.5,6.47,2.49,6.46,2.49,6.47,2.49,6.46,2.49,6.47"/><polyline class="cls-49" points="326.72 330.63 332.73 326.98 338.75 323.33 344.77 319.67 342.28 313.21 339.79 306.74 337.29 300.28 331.28 303.93 325.26 307.58 319.24 311.24 321.73 317.7 324.23 324.17 326.72 330.63"/><polyline class="cls-49" points="410.96 279.49 416.98 275.84 422.99 272.18 429.01 268.53 426.52 262.06 424.03 255.6 421.54 249.13 415.52 252.79 409.5 256.44 403.48 260.09 405.97 266.56 408.47 273.02 410.96 279.49"/><polyline class="cls-49" points="368.84 305.06 374.85 301.41 372.36 294.94 369.87 288.48 363.85 292.13 357.84 295.78 360.33 302.25 366.35 298.6 368.84 305.06"/><polyline class="cls-49" points="367.8 321.64 373.82 317.99 371.33 311.52 368.84 305.06 362.82 308.71 365.31 315.18 367.8 321.64"/><polyline class="cls-49" points="383.36 304.22 389.38 300.57 386.89 294.1 380.87 297.75"/><polyline class="cls-49" points="379.84 314.34 385.85 310.68 383.36 304.22 377.35 307.87"/><polyline class="cls-49" points="391.87 307.03 397.89 303.38 395.4 296.91 389.38 300.57"/><polyline class="cls-49" points="376.31 324.45 382.33 320.8 379.84 314.34 373.82 317.99"/><polyline class="cls-49" points="340.63 386 346.65 382.35 352.67 378.7 350.17 372.23 356.19 368.58 358.68 375.05 364.7 371.39 362.21 364.93 359.72 358.46 353.7 362.12 351.21 355.65 345.19 359.3 342.7 352.84 348.72 349.19 351.21 355.65 357.23 352 359.72 358.46 365.73 354.81 371.75 351.16 377.77 347.5 383.79 343.85 381.29 337.38 375.28 341.04 369.26 344.69 363.24 348.34 360.75 341.88 354.73 345.53 352.24 339.07 346.23 342.72 340.21 346.37 334.19 350.03 328.17 353.68 322.16 357.33 324.65 363.8 330.67 360.14 336.68 356.49 339.17 362.96 333.16 366.61 327.14 370.26 329.63 376.73 332.12 383.19 338.14 379.54 340.63 386"/><polyline class="cls-49" points="360.75 341.88 366.77 338.23 372.79 334.57 378.8 330.92 376.31 324.45 370.29 328.11 364.28 331.76 358.26 335.42 360.75 341.88"/><path class="cls-49" d="M387.73,373.36l6-3.65-2.49-6.47-2.49-6.46,6-3.65,6-3.66L398.31,343l6-3.65,2.49,6.46,2.49,6.47,6-3.66-2.49-6.46-2.49-6.47,6-3.65,6-3.65,2.49,6.46,2.49,6.47,6-3.66-2.49-6.46-2.49-6.47-2.49-6.46-2.5-6.47-2.49-6.46-2.49-6.47-6,3.66,2.5,6.46-6,3.65-2.49-6.46-6,3.65,2.49,6.47-6,3.65-2.49-6.46-6,3.65,2.49,6.46,2.49,6.47,6-3.65,2.49,6.46-6,3.65-2.49-6.46-6,3.65,2.49,6.47-6,3.65,2.49,6.46-6,3.66-6,3.65-6,3.65,2.49,6.47,6-3.65,6-3.66,2.49,6.47,2.49,6.46m20.12-44.12,6-3.66-2.49-6.46-6,3.65,2.49,6.47"/><polyline class="cls-49" points="434.41 321.09 440.43 317.44 437.94 310.97 435.45 304.51 441.47 300.85 438.98 294.39 432.96 298.04 430.47 291.58 424.45 295.23 426.94 301.69 429.43 308.16 431.92 314.63 434.41 321.09"/><polyline class="cls-49" points="438.98 294.39 444.99 290.74 442.5 284.27 436.48 287.92"/><polyline class="cls-49" points="446.45 313.78 452.47 310.13 458.48 306.48 455.99 300.01 449.98 303.67 447.48 297.2 441.47 300.85 443.96 307.32 446.45 313.78"/><polyline class="cls-49" points="459.94 329.52 465.96 325.87 463.47 319.41 460.98 312.94 454.96 316.6 457.45 323.06 459.94 329.52"/><path class="cls-49" d="M354.54,441.38l6-3.66,6-3.65,6-3.65,6-3.66,6-3.65,6-3.65,6-3.65-2.5-6.47-2.49-6.46-2.49-6.47L386.7,390l-2.49-6.47L381.72,377l-2.49-6.47-6,3.65-6,3.66-6,3.65-6,3.65-6,3.66-6,3.65-6,3.65,2.5,6.47,2.49,6.46,2.49,6.47,2.49,6.46,2.49,6.47,2.49,6.46,2.49,6.47m3.53-10.12,6-3.65,6-3.66,6-3.65,6-3.65,6-3.66-2.49-6.46-2.5-6.47-2.49-6.46-2.49-6.47-2.49-6.46-6,3.65-6,3.66-6,3.65-6,3.65-6,3.65,2.49,6.47,2.5,6.46,2.49,6.47,2.49,6.46,2.49,6.47"/><path class="cls-49" d="M402.68,412.15l6-3.65L406.21,402l-2.49-6.46,6-3.65-2.49-6.47-6,3.65-2.5-6.46,6-3.65,2.49,6.46,6-3.65,6-3.66,2.49,6.47-6,3.65-6,3.66,2.5,6.46,2.49,6.47,6-3.66-2.49-6.46,6-3.66,2.49,6.47,6-3.65-2.49-6.47,6-3.65,6-3.65,2.49,6.46,6-3.65,6-3.66,6-3.65,6-3.65-2.49-6.47L463.89,359l-6,3.65-2.49-6.46,6-3.66-2.49-6.46,6-3.65L462.43,336l-6,3.65-2.49-6.46-2.49-6.47-6,3.66-6,3.65,2.49,6.46,2.49,6.47-6,3.65,2.49,6.47,2.5,6.46,6-3.65,2.49,6.46-6,3.66-2.49-6.47-6,3.66-2.49-6.47-6,3.65-2.49-6.46-6,3.65L422.8,368l-6,3.65-2.5-6.46-6,3.65-2.49-6.47,6-3.65-2.49-6.46-6,3.65-6,3.65,2.49,6.47-6,3.65,2.49,6.46-6,3.66,2.49,6.46,2.49,6.47,2.49,6.46,2.49,6.47,2.49,6.46M427.79,381l6-3.66-2.49-6.46-6,3.65,2.5,6.47"/><polyline class="cls-49" points="417.82 355.1 423.84 351.44 421.35 344.98 415.33 348.63"/><polyline class="cls-49" points="432.35 354.26 438.36 350.6 435.87 344.14 429.85 347.79"/><polyline class="cls-49" points="361.6 421.14 367.61 417.49 373.63 413.83 379.65 410.18 377.16 403.72 374.67 397.25 372.17 390.79 366.16 394.44 360.14 398.09 354.12 401.75 356.61 408.21 359.11 414.68 361.6 421.14"/><polyline class="cls-49" points="472.4 361.85 478.42 358.2 475.92 351.73 469.91 355.38"/><polyline class="cls-50" points="298.62 401.89 293.36 388.32 484.8 274.9 490.06 288.47"/></g></g></svg>