<svg xmlns="http://www.w3.org/2000/svg" viewBox="0 0 1129.61 1080"><defs><style>.cls-1{fill:#f15a24;}.cls-2{opacity:0.4;}.cls-3{fill:#fff;}</style></defs><g id="Layer_2" data-name="Layer 2"><g id="Layer_1-2" data-name="Layer 1"><path class="cls-1" d="M1129.61,29.12V1050.88l-.55,29.12H179.66c-25.29-33.06-49.4-67-70.44-103.39C52.41,878.23,20.37,752.79,62.54,646.19c31.1-78.59,98.05-135.05,170-171s150.15-54.69,226.09-79.66c56.53-18.56,118-46.71,140.39-105.59C633.72,198.62,553.24,95,577.82,0h522.67l28.57.25Z"/><g class="cls-2"><path class="cls-3" d="M350.61,784.5l-2.64.12c-1.78.07-4.31.14-7.53.19-6.44.09-15.63.16-26.63-.18-5.5-.09-11.46-.41-17.75-.68s-12.91-.8-19.77-1.28c-6.83-.66-13.91-1.11-21.09-2q-5.37-.58-10.81-1.21c-3.62-.41-7.24-1-10.87-1.45s-7.26-1-10.85-1.53l-10.75-1.8c-7.11-1.12-14.07-2.55-20.8-3.89S178,768,171.82,766.51c-3.07-.72-6-1.41-8.92-2.1l-8.26-2.25c-5.29-1.48-10.14-2.76-14.42-4s-7.95-2.54-11-3.54l-9.56-3.07a1.14,1.14,0,0,1-.74-1.43,1.15,1.15,0,0,1,1.4-.76l0,0,9.61,2.77,11,3.18c4.3,1.11,9.18,2.24,14.47,3.54,2.64.65,5.4,1.3,8.27,2l8.92,1.82c6.11,1.25,12.56,2.6,19.3,3.64s13.64,2.36,20.73,3.23L223.41,771c3.59.45,7.21.79,10.82,1.2s7.21.8,10.82,1.11l10.74.87c7.13.67,14.17.89,21,1.33,6.79.28,13.37.53,19.59.65s12.1.2,17.57.12c10.87,0,19.9-.38,26.22-.67,3.16-.14,5.63-.3,7.28-.42L350,775h.08a4.75,4.75,0,1,1,.69,9.48A.37.37,0,0,1,350.61,784.5Z"/><path class="cls-3" d="M231.58,774.14a11.18,11.18,0,0,1,.33-1.09c.3-.66.5-1.74.94-2.9s.82-2.62,1.43-4.24,1.19-3.46,2-5.31,1.48-4,2.38-6.09c.43-1.06,1-2.07,1.42-3.17s.9-2.23,1.41-3.36c1-2.26,2.09-4.49,3.27-6.74.56-1.13,1.07-2.32,1.62-3.49l1.76-3.44c1.16-2.31,2.56-4.48,3.78-6.72s2.48-4.46,3.77-6.56c.71-1,1.38-2,2-3s1.42-1.94,2.09-2.88,1.3-1.89,1.94-2.78,1.3-1.78,1.9-2.6l1.88-2.37c.66-.73,1.27-1.44,1.87-2.1a45.48,45.48,0,0,1,3.21-3.39c.9-1,1.78-1.65,2.31-2.14s.9-.75.9-.75l.52-.39a1.07,1.07,0,0,1,1.48.23,1,1,0,0,1,.17.84s-.26,1.35-.86,3.69-1.39,5.71-2.61,9.69c-.62,2-1.17,4.17-2,6.42s-1.76,4.57-2.82,6.93-2.08,4.89-3.15,7.41a40.92,40.92,0,0,1-1.82,3.7c-.64,1.24-1.28,2.47-2,3.67-1.38,2.43-2.76,4.85-4.12,7.22l-4.46,6.7a54.14,54.14,0,0,1-4.52,6l-4.31,5.19c-1.4,1.57-2.8,2.88-4,4.1s-2.31,2.21-3.24,3-1.69,1.45-2.19,1.81l-.8.6a1.09,1.09,0,0,1-1.51-.23,1.07,1.07,0,0,1-.17-.91Z"/><path class="cls-3" d="M224.12,773.78a13.25,13.25,0,0,1-.35-1.39c-.21-.9-.52-2.21-.77-3.82s-.56-3.59-.8-5.83a72.41,72.41,0,0,1-.56-7.38c-.12-2.68-.14-5.55,0-8.57s.29-6.15.55-9.37.72-6.53,1.21-9.86,1.09-6.7,1.65-10.07,1.22-6.71,1.83-10,1.23-6.53,1.94-9.68c.38-1.58.62-3.11.94-4.61l1-4.43c.74-2.89,1.21-5.58,1.79-8.14s1.06-4.86,1.5-7c.2-1,.53-2,.73-2.95s.31-1.76.46-2.5c.63-3.08,1.14-4.94,1.14-4.94l.12-.45a1.09,1.09,0,0,1,1.33-.77,1.16,1.16,0,0,1,.8.83s.37,1.74,1,4.79c.14.78.32,1.62.49,2.54s.24,1.94.38,3c.2,2.15.66,4.6.74,7.26s.25,5.56.23,8.61,0,6.29-.15,9.61-.42,6.75-.78,10.22-.7,7-1.16,10.5-.86,7-1.45,10.45S236.66,736.7,236,740s-1.38,6.36-2.07,9.31-1.51,5.71-2.19,8.26-1.28,4.91-2,7-1.26,3.83-1.75,5.29-.91,2.61-1.22,3.39-.45,1.19-.45,1.19a1.09,1.09,0,0,1-2.05-.05Z"/><path class="cls-3" d="M216.18,773.26s-1-1.84-2.55-5.18-3.57-8.14-5.64-14a211,211,0,0,1-6.14-20.41c-1-3.77-1.81-7.72-2.65-11.72s-1.48-8.14-2.14-12.25-1.09-8.26-1.53-12.36-.75-8.11-.85-12-.31-7.7-.2-11.3.22-7,.41-10.15.62-6,.89-8.55.81-4.73,1.09-6.53c.71-3.62,1.2-5.64,1.2-5.64a1.16,1.16,0,0,1,1.39-.85,1.13,1.13,0,0,1,.87,1v.07s.28,2.07.63,5.66c.16,1.79.3,3.94.59,6.42s.68,5.27.91,8.3.89,6.3,1.25,9.76,1,7.1,1.51,10.85,1.2,7.66,1.74,11.6,1.25,8,1.88,12,1.35,8,2,12,1.28,7.84,1.91,11.59,1.16,7.45,1.7,10.91,1.05,6.76,1.42,9.81.84,5.85,1.12,8.36.58,4.67.78,6.47c.41,3.6.57,5.69.57,5.69a1.17,1.17,0,0,1-2.19.65Z"/><path class="cls-3" d="M199.07,770.65s-.34-.39-1-1.13-1.62-1.86-2.73-3.33-2.34-3.3-3.82-5.39c-1.32-2.15-2.88-4.56-4.33-7.29s-3.12-5.67-4.45-8.94c-.71-1.63-1.44-3.29-2.2-5s-1.29-3.51-2-5.33-1.35-3.64-1.94-5.55-1.14-3.82-1.7-5.77c-1.15-3.9-2.1-7.92-3.16-11.9s-1.68-8.11-2.43-12.11-1.32-8-1.67-11.87c-.16-1.94-.32-3.85-.5-5.71a51.41,51.41,0,0,1-.33-5.47c0-3.6-.15-7-.06-10.07s.42-6,.61-8.52.73-4.7,1-6.49l1.12-5.6a1.16,1.16,0,0,1,1.36-.89,1.19,1.19,0,0,1,.93,1l0,0s.22,2,.58,5.52c.19,1.76.18,3.87.59,6.29s.76,5.11,1.18,8.08,1.1,6.13,1.68,9.49,1.45,6.89,2.19,10.53c.36,1.82.89,3.67,1.34,5.52s.89,3.75,1.35,5.67c1,3.78,2.05,7.63,3.08,11.46s2.14,7.68,3.34,11.41l3.4,11c2.22,7.17,4.18,13.89,5.8,19.7s2.87,10.74,3.67,14.2c.41,1.75.72,3.11.88,4.06l.32,1.45a1.17,1.17,0,0,1-2,1Z"/><path class="cls-3" d="M181.19,767.41a11,11,0,0,1-1.18-.86c-.77-.58-1.89-1.43-3.18-2.61s-2.85-2.6-4.53-4.3-3.44-3.75-5.39-6q-1.44-1.7-2.86-3.57c-1-1.24-1.92-2.55-2.87-3.93-1.91-2.73-3.84-5.67-5.63-8.84a109.34,109.34,0,0,1-5.21-9.93c-1.74-3.41-3-7.1-4.55-10.69s-2.63-7.34-3.79-11-2-7.38-2.78-11c-.63-3.68-1.3-7.17-1.76-10.54s-.54-6.61-.71-9.55.16-5.76.21-8.17a22.22,22.22,0,0,1,.34-3.37c.16-1,.32-2,.45-2.86.61-3.45,1.08-5.36,1.08-5.36l.09-.26a1.1,1.1,0,0,1,1.35-.81,1.13,1.13,0,0,1,.84,1s.14,1.85.41,5.1a55.17,55.17,0,0,0,.6,5.86c.35,2.26.76,4.8,1.2,7.58.63,2.74,1.29,5.71,2,8.86s1.81,6.37,2.74,9.77,2.28,6.79,3.44,10.29c1.35,3.45,2.64,7,4.06,10.46s2.86,7,4.45,10.32,3,6.68,4.63,9.83,3.1,6.21,4.58,9.08,3,5.55,4.32,8c5.49,9.87,9.57,16.18,9.57,16.18a1.09,1.09,0,0,1-.33,1.49,1.12,1.12,0,0,1-1.16,0Z"/><path class="cls-3" d="M159.94,762.8a37.4,37.4,0,0,1-4.15-2.9,53.33,53.33,0,0,1-4.48-3.71c-1.61-1.53-3.58-3.16-5.44-5.15s-3.94-4.11-5.91-6.51a97.11,97.11,0,0,1-6.09-7.66l-6.08-8.53c-1.81-3.05-3.63-6.15-5.47-9.25-.91-1.56-1.81-3.12-2.66-4.7a52.15,52.15,0,0,1-2.44-4.76c-1.51-3.22-2.86-6.44-4.13-9.57-.63-1.55-1.28-3.08-1.89-4.59s-1.11-3-1.63-4.47c-1-2.94-1.77-5.77-2.41-8.43-.33-1.3-.66-2.58-1-3.78s-.5-2.36-.72-3.45c-.49-2.15-.8-4.07-1-5.66-.51-3.15-.63-5-.63-5l0-.34a1.14,1.14,0,0,1,1-1.19,1.12,1.12,0,0,1,1.11.66s2.82,6.47,7.06,16.17c1.07,2.41,2.18,5.06,3.44,7.81s2.78,5.57,4.25,8.53,3,6,4.55,9.12,3.37,6.13,5.05,9.22,3.45,6.15,5.16,9.18l5.38,8.64c1.74,2.81,3.4,5.53,5.16,8s3.35,4.84,4.84,7,3,4,4.3,5.77,2.46,3.18,3.42,4.35c1.91,2.37,3.12,3.67,3.12,3.67A1.11,1.11,0,0,1,160.3,763Z"/><path class="cls-3" d="M146.08,759.35a52.09,52.09,0,0,1-4.83-2.2c-1.49-.79-3.37-1.67-5.39-2.86s-4.31-2.49-6.67-4.07a92,92,0,0,1-7.63-5.21c-2.61-2-5.46-3.94-8.19-6.21s-5.5-4.73-8.31-7.21-5.57-5.09-8.17-7.87-5.2-5.58-7.7-8.39c-1.23-1.4-2.47-2.79-3.64-4.21s-2.17-3-3.25-4.39l-3.11-4.27c-1-1.45-1.91-2.84-2.81-4.2a60.47,60.47,0,0,1-4.82-8c-.67-1.28-1.31-2.5-1.9-3.69s-1.1-2.34-1.58-3.38c-1-2.14-1.81-4-2.45-5.62-1.29-3.11-1.86-5-1.86-5l-.09-.29a1.13,1.13,0,0,1,.75-1.39,1.1,1.1,0,0,1,1.23.42L76.6,686.45c1.54,2.32,3.61,4.57,5.62,7s4.22,5.06,6.48,7.74c1.12,1.33,2.22,2.71,3.43,4.06l3.73,4c2.48,2.68,5,5.41,7.58,8.13s5.27,5.27,7.85,7.89,5.19,5.12,7.69,7.53,5.07,4.64,7.46,6.8,4.6,4.2,6.73,6l5.78,5c1.75,1.45,3.28,2.72,4.54,3.74,2.5,2.08,4,3.21,4,3.21a1.12,1.12,0,0,1,.22,1.56,1.1,1.1,0,0,1-1.26.36Z"/><path class="cls-3" d="M135.79,756.54s-1.91-.45-5.16-1.45-7.84-2.53-13.27-4.64c-2.7-1.07-5.66-2.2-8.68-3.57s-6.27-2.75-9.52-4.36-6.64-3.27-10-5-6.71-3.79-10.1-5.68c-3.31-2.06-6.65-4-9.83-6.15s-6.3-4.24-9.21-6.46-5.78-4.26-8.32-6.47-5-4.13-7.14-6.19-4-3.87-5.73-5.55-3-3.31-4.15-4.57c-2.24-2.57-3.46-4.08-3.46-4.08a1.17,1.17,0,0,1,.18-1.62,1.14,1.14,0,0,1,1.35-.05l.06,0s1.63,1.08,4.34,3c1.38,1,3,2.2,4.87,3.53s4.1,2.78,6.41,4.42,5,3.25,7.66,5.11,5.66,3.57,8.62,5.56,6.16,3.75,9.3,5.78S80.45,722,83.69,724l9.76,5.77c3.3,1.79,6.4,3.78,9.55,5.48,6.21,3.53,12,6.84,17,9.66s9.15,5.24,12.08,6.89l4.57,2.67a1.15,1.15,0,0,1,.41,1.57,1.13,1.13,0,0,1-1.25.53Z"/><path class="cls-3" d="M129.25,754.53s-.52.15-1.52.35-2.5.52-4.37.77-4.19.57-6.83.78-5.62.44-8.88.47l-5.07,0-5.43-.22c-3.73-.14-7.62-.62-11.67-1-4-.62-8.21-1.16-12.39-2.06s-8.43-1.82-12.61-3.1q-3.15-.9-6.26-1.83c-2.06-.68-4.08-1.46-6.1-2.2s-4-1.48-6-2.27-3.82-1.71-5.68-2.57S32.79,740,31,739.06s-3.4-1.89-5-2.81l-4.73-2.73c-1.5-.92-2.9-1.92-4.24-2.86-2.69-1.86-5.1-3.64-7.2-5.23s-3.75-3.3-5.17-4.58-2.47-2.33-3.21-3L.34,716.72a1.13,1.13,0,0,1,0-1.62,1.18,1.18,0,0,1,1.22-.28l.08,0,1.46.52c.94.39,2.34.86,4,1.59s3.82,1.55,6.13,2.6,5.12,1.88,8,3c1.47.54,2.92,1.26,4.52,1.77l4.9,1.73L35.83,728l5.4,1.77c1.84.6,3.7,1.22,5.56,1.87l5.77,1.72c3.85,1.24,7.81,2.36,11.77,3.42,3.93,1.22,8,2.08,11.88,3.18S84,741.85,87.8,742.8l5.57,1.28c1.82.46,3.6.89,5.35,1.24,3.48.81,6.8,1.58,9.87,2.24l14.92,3.37c1.82.38,3.24.75,4.22,1l1.5.34a1.17,1.17,0,0,1,.87,1.42,1.13,1.13,0,0,1-.79.84Z"/><path class="cls-3" d="M140.5,757.76a63,63,0,0,1-5.18,3.61c-1.67,1-3.7,2.29-6,3.61s-5,2.74-7.93,4.13-6.1,2.84-9.49,4.25-7,2.8-10.79,4-7.7,2.51-11.67,3.82-8,2.76-12,4.13-8.09,2.6-12,4.06-7.89,2.6-11.64,4c-7.53,2.66-14.6,5.06-20.65,7.26l-8.33,2.93c-2.49.86-4.63,1.69-6.43,2.34l-5.75,1.89-.21.07a1.13,1.13,0,0,1-1-2l5-3.33c1.59-1,3.53-2.32,5.78-3.71l7.67-4.52c2.79-1.73,6-3.22,9.27-5s6.88-3.47,10.56-5.22,7.5-3.55,11.45-5.2,8-3.25,12-4.88,8.13-3.07,12.14-4.58,8-2.9,11.88-4.09,7.62-2.43,11.24-3.36l5.26-1.44,5-1.14c3.17-.76,6.11-1.36,8.68-1.93s4.89-.87,6.78-1.17,3.35-.53,4.38-.63l1.56-.18a1.09,1.09,0,0,1,1.23,1,1.11,1.11,0,0,1-.41,1Z"/><path class="cls-3" d="M152.68,760.91s-.4.45-1.17,1.21-1.87,1.92-3.34,3.24-3.24,3-5.36,4.72l-3.32,2.81c-1.19.93-2.46,1.9-3.78,2.92s-2.67,2.08-4.08,3.18-2.93,2.11-4.47,3.2-3.14,2.19-4.77,3.31l-5,3.32c-3.43,2.19-7,4.4-10.68,6.58-1.81,1.14-3.69,2.18-5.57,3.25s-3.72,2.16-5.63,3.19c-3.79,2.08-7.58,4.14-11.35,6.11s-7.46,3.89-11.14,5.63-7.14,3.51-10.56,5-6.61,3-9.61,4.32-5.75,2.52-8.25,3.56l-6.46,2.68c-1.8.78-3.31,1.27-4.31,1.68l-1.58.52-.36.15a1.12,1.12,0,0,1-1.41-.68,1.09,1.09,0,0,1,.32-1.2s1.66-1.45,4.59-3.95c1.47-1.29,3.24-2.8,5.38-4.43s4.45-3.62,7.18-5.48,5.59-4,8.73-6.1,6.4-4.39,9.94-6.54,7.1-4.44,10.84-6.6,7.49-4.47,11.32-6.63,7.67-4.26,11.48-6.3l11.22-5.94c7.27-3.84,14.26-7,20.18-9.93s11-5,14.5-6.51l5.55-2.38a1.1,1.1,0,0,1,1.26,1.74Z"/><path class="cls-3" d="M168.25,764.43s-1.21,1.9-3.58,5-5.87,7.39-10.31,12.31-9.84,10.41-15.88,16c-3,2.77-6.22,5.66-9.55,8.45s-6.71,5.58-10.2,8.3-7,5.41-10.54,7.92-7,5-10.54,7.27c-1.76,1.12-3.45,2.26-5.15,3.3s-3.43,2-5.07,3c-3.27,2-6.54,3.59-9.51,5.12s-5.82,2.75-8.33,3.81a56.86,56.86,0,0,1-6.66,2.45c-3.77,1.15-5.92,1.68-5.92,1.68a1.14,1.14,0,0,1-.93-2l.1-.08s1.84-1.23,5-3.24c1.63-.88,3.47-2.32,5.62-3.82,1.08-.75,2.22-1.54,3.44-2.37s2.39-1.88,3.69-2.81c2.61-1.92,5.42-4,8.28-6.37s6-4.67,9.15-7.26l4.81-3.85,4.88-4,10-8.23c3.34-2.75,6.7-5.51,10-8.23s6.54-5.39,9.74-7.92c6.35-5.1,12.42-9.74,17.7-13.62,2.64-2,5.09-3.71,7.31-5.22s4.11-2.88,5.74-3.93c3.22-2.14,5.15-3.27,5.16-3.26a1.16,1.16,0,0,1,1.6.41A1.21,1.21,0,0,1,168.25,764.43Z"/><path class="cls-3" d="M185.14,768l-.74,1.47c-.46.94-1.11,2.35-2.1,4.05s-2.12,3.78-3.57,6.08-3.11,4.84-5,7.59-4,5.66-6.28,8.68-4.82,6.11-7.43,9.31-5.52,6.33-8.46,9.51-5.88,6.49-9.11,9.48-6.3,6.18-9.51,9.11-6.37,5.78-9.56,8.44-6.34,5.1-9.32,7.48-5.84,4.53-8.6,6.4-5.35,3.53-7.6,5-4.33,2.65-6,3.69-3,1.71-3.94,2.25l-1.4.76,0,0a1.17,1.17,0,0,1-1.57-.45,1.2,1.2,0,0,1,.13-1.33l1-1.18c.68-.79,1.64-2,2.94-3.37s2.9-3.1,4.71-5.05,3.81-4.22,6.14-6.5,4.62-5,7.21-7.69,5.3-5.57,8.14-8.52,5.78-5.92,8.7-9.06,6-6.17,9.05-9.28c1.52-1.54,3-3.13,4.5-4.7s3-3.1,4.52-4.61c3-3.08,5.94-6.06,8.88-8.9s5.62-5.72,8.38-8.28,5.25-5.06,7.66-7.29,4.59-4.3,6.61-6.06,3.7-3.35,5.16-4.61c2.92-2.51,4.64-3.92,4.64-3.92a1.16,1.16,0,0,1,1.77,1.4Z"/><path class="cls-3" d="M198.34,770.42s-.18.52-.57,1.51-.86,2.45-1.62,4.23c-1.46,3.65-3.73,8.73-6.69,14.7-1.42,3-3.16,6.17-4.94,9.55s-3.83,6.85-6,10.43-4.39,7.24-6.78,10.9l-3.59,5.55c-1.29,1.79-2.56,3.62-3.85,5.43-2.55,3.65-5.16,7.26-7.83,10.74s-5.44,6.8-8,10.07-5.46,6.19-8,9.07-5.25,5.36-7.6,7.76a42.82,42.82,0,0,1-3.55,3.28q-1.73,1.51-3.29,2.86c-1,.89-2,1.74-2.91,2.48s-1.82,1.39-2.61,2c-1.55,1.22-2.84,2.07-3.69,2.7s-1.3.92-1.3.92a1.15,1.15,0,0,1-1.59-.28,1.09,1.09,0,0,1,0-1.21l.13-.24s1.17-2,3.31-5.22l1.8-2.65c.62-1,1.26-2.09,2-3.2,1.46-2.23,3.09-4.76,4.87-7.52s3.64-5.73,5.65-8.87,4.18-6.42,6.33-9.89,4.61-6.85,6.85-10.5c1.1-1.84,2.34-3.59,3.54-5.39l3.59-5.43c4.82-7.22,9.75-14.4,14.66-21,2.46-3.28,4.81-6.48,7.27-9.37s4.55-5.78,6.8-8.27,4.18-4.83,6.08-6.8c.93-1,1.8-2,2.62-2.81l2.33-2.32c2.79-2.81,4.6-4.33,4.6-4.33l.17-.15a1.14,1.14,0,0,1,1.81,1.27Z"/><path class="cls-3" d="M214.13,772.83s-.15.56-.41,1.61-.67,2.58-1.3,4.48c-1.17,3.84-3,9.3-5.5,15.64s-5.65,13.66-9.37,21.32c-1.81,3.85-3.82,7.76-6,11.69s-4.34,7.89-6.61,11.82c-1.11,2-2.29,3.92-3.5,5.83s-2.4,3.83-3.64,5.71c-2.43,3.75-4.9,7.4-7.32,10.91s-5.1,6.73-7.53,9.82-4.83,5.92-7.06,8.52-4.61,4.81-6.59,6.79-3.82,3.61-5.32,5c-3,2.72-4.79,4.15-4.79,4.15a1.14,1.14,0,0,1-1.62-.19,1.12,1.12,0,0,1-.16-1.16l0-.09s.9-2.18,2.64-5.77c.87-1.79,1.91-4,3.2-6.4s2.81-5.06,4.34-8.08,3.19-6.26,5-9.65,3.85-6.86,5.9-10.51,4.1-7.48,6.31-11.28,4.57-7.56,6.78-11.48,4.57-7.69,6.9-11.42,4.66-7.43,6.91-11,4.5-7,6.67-10.15,4.21-6.25,6.17-9c3.91-5.52,7.33-10.09,9.81-13.21,1.2-1.6,2.25-2.81,2.9-3.66l1.08-1.26a1.17,1.17,0,0,1,2,1Z"/><path class="cls-3" d="M229.14,775s0,.62-.1,1.71-.19,2.71-.52,4.65-.59,4.37-1.12,7-1.18,5.6-2,8.76c-.42,1.56-.87,3.17-1.34,4.85s-1,3.38-1.57,5.14-1.19,3.49-1.78,5.32-1.36,3.6-2,5.45c-1.45,3.67-3,7.4-4.69,11.16-.78,1.89-1.74,3.71-2.63,5.6s-1.75,3.74-2.73,5.58c-1.87,3.71-3.82,7.36-5.73,10.94-2.09,3.56-3.93,7.08-6,10.4s-3.9,6.57-5.92,9.58-3.77,5.87-5.63,8.49-3.4,5-5,7.16c-.77,1.06-1.52,2.06-2.25,3s-1.29,1.79-1.84,2.56c-1.08,1.57-2.17,2.78-2.79,3.64l-1.1,1.29-.37.44a1.06,1.06,0,0,1-1.84-1l1.51-5.66c.23-.92.5-1.91.8-3s.73-2.21,1.13-3.45c.85-2.44,1.63-5.28,2.8-8.24s2.27-6.25,3.68-9.63,2.8-7,4.44-10.58,3.24-7.43,5-11.2,3.55-7.63,5.45-11.43c3.7-7.64,7.6-15.18,11.3-22.22s7.26-13.55,10.37-19.13c6.19-11.08,10.55-18.38,10.55-18.38a1,1,0,0,1,2,.56Z"/><path class="cls-3" d="M237.22,775.43s.6,1.77,1.29,4.9a110,110,0,0,1,2.11,13c.28,2.7.54,5.63.66,8.74s.25,6.37.16,9.74-.17,6.87-.43,10.42-.69,7.13-1.07,10.72-1,7.17-1.62,10.68-1.4,7-2.16,10.27-1.68,6.5-2.6,9.48-1.95,5.8-2.88,8.37-2.1,4.85-3,6.9a57.15,57.15,0,0,1-2.63,5.14c-1.57,2.81-2.55,4.34-2.55,4.34a1.17,1.17,0,0,1-2.15-.71v-.08s.17-1.84.6-4.91c.22-1.56.55-3.39.77-5.56s.52-4.54.92-7.13c.56-5.22,1.21-11.31,1.92-17.84.33-3.25.61-6.62,1-10,.25-3.46.68-6.92,1-10.39s.66-7,1-10.41c.15-1.71.34-3.41.52-5.09s.34-3.37.56-5c.39-3.28.79-6.44,1.23-9.44s.84-5.86,1.32-8.48c.88-5.27,1.77-9.68,2.52-12.77s1.24-4.87,1.25-4.87a1.18,1.18,0,0,1,1.48-.8A1.25,1.25,0,0,1,237.22,775.43Z"/><path class="cls-3" d="M242.73,775.54a34,34,0,0,1,2.46,2.62,78.49,78.49,0,0,1,5.61,7.42q1.62,2.42,3.27,5.26c1.12,1.89,2.16,3.94,3.25,6.09s2.06,4.38,3.05,6.69,1.89,4.69,2.67,7.13,1.59,4.85,2.21,7.29,1.28,4.84,1.71,7.23.87,4.63,1.1,6.84.51,4.25.55,6.21.09,3.71.12,5.28-.19,2.95-.24,4.08c-.2,2.26-.39,3.54-.39,3.54a1.19,1.19,0,0,1-1.36,1,1.14,1.14,0,0,1-.88-.69l0-.06s-.53-1.2-1.29-3.25c-.35-1.05-.83-2.29-1.28-3.74s-1.16-3-1.73-4.76-1.33-3.61-2-5.61-1.45-4.05-2.2-6.21c-1.54-4.31-3.17-8.89-4.8-13.47s-3.26-9.19-4.74-13.54c-.72-2.18-1.42-4.32-2.07-6.31s-1.24-3.95-1.78-5.73-1-3.44-1.39-4.92-.74-2.78-1-3.84c-.54-2.16-.81-3.43-.81-3.43a1.22,1.22,0,0,1,.95-1.41A1.19,1.19,0,0,1,242.73,775.54Z"/></g><g class="cls-2"><path class="cls-3" d="M566,880.53l-1.63.07c-1.1,0-2.65.08-4.64.12-4,0-9.63.1-16.41-.11-3.38-.06-7.06-.26-10.93-.42s-8-.5-12.18-.79-8.57-.69-13-1.23l-6.67-.75c-2.23-.25-4.46-.6-6.7-.9s-4.47-.6-6.68-.94l-6.62-1.11c-4.38-.68-8.67-1.57-12.82-2.39s-8.11-1.75-11.89-2.64l-5.5-1.29-5.08-1.39c-3.27-.91-6.25-1.7-8.89-2.47s-4.9-1.56-6.77-2.18l-5.89-1.89a.71.71,0,0,1-.46-.89.72.72,0,0,1,.86-.46h0l5.92,1.71,6.79,2c2.65.68,5.65,1.38,8.91,2.18l5.1,1.23,5.49,1.12c3.77.77,7.74,1.6,11.9,2.25s8.4,1.45,12.77,2l6.6.89c2.21.28,4.44.49,6.66.74s4.45.5,6.67.69l6.62.54c4.39.4,8.73.54,12.91.82s8.24.32,12.07.4,7.46.11,10.83.07c6.69,0,12.26-.23,16.15-.42,1.95-.08,3.47-.18,4.48-.25l1.6-.12h.05a2.93,2.93,0,1,1,.42,5.84Z"/><path class="cls-3" d="M492.7,874.14s.06-.24.21-.67.3-1.07.57-1.79.51-1.61.88-2.61.74-2.13,1.21-3.27.91-2.47,1.47-3.75c.26-.65.59-1.28.87-2s.56-1.37.87-2.06c.59-1.4,1.29-2.77,2-4.16.34-.69.66-1.43,1-2.15l1.09-2.12c.72-1.42,1.58-2.76,2.33-4.14s1.53-2.75,2.32-4c.44-.63.85-1.26,1.26-1.88l1.29-1.77c.46-.57.79-1.16,1.19-1.72s.8-1.09,1.17-1.6.79-1,1.16-1.46l1.15-1.29a27.62,27.62,0,0,1,2-2.09,19.4,19.4,0,0,1,1.43-1.32l.55-.46.32-.24a.65.65,0,0,1,.91.14.62.62,0,0,1,.11.52s-.17.83-.54,2.27-.85,3.52-1.61,6c-.37,1.22-.72,2.57-1.21,4s-1.08,2.81-1.73,4.27-1.29,3-2,4.56c-.3.79-.74,1.53-1.11,2.28s-.8,1.52-1.22,2.26c-.85,1.5-1.7,3-2.54,4.45s-1.86,2.79-2.74,4.13a34.35,34.35,0,0,1-2.79,3.72c-.95,1.14-1.84,2.2-2.66,3.2s-1.72,1.77-2.46,2.52-1.42,1.36-2,1.86-1,.89-1.35,1.11l-.49.37a.66.66,0,0,1-.93-.14.67.67,0,0,1-.11-.56Z"/><path class="cls-3" d="M488.1,873.92a8.75,8.75,0,0,1-.21-.85c-.13-.56-.32-1.37-.48-2.36s-.34-2.21-.49-3.59-.29-2.9-.35-4.55-.08-3.42,0-5.28.18-3.79.34-5.77.44-4,.74-6.08.67-4.12,1-6.2l1.13-6.17c.42-2.05.76-4,1.2-6,.23-1,.38-1.92.58-2.84s.4-1.85.59-2.73c.46-1.79.75-3.44,1.1-5s.66-3,.93-4.29c.12-.64.33-1.26.44-1.81s.2-1.09.29-1.55c.39-1.89.71-3,.71-3l.07-.27a.67.67,0,0,1,.81-.48.72.72,0,0,1,.5.51s.22,1.07.63,3c.09.47.2,1,.31,1.56s.14,1.2.23,1.87c.12,1.33.4,2.83.45,4.48s.16,3.42.15,5.3,0,3.87-.1,5.92-.25,4.16-.48,6.3-.42,4.31-.71,6.47-.53,4.32-.9,6.44-.74,4.19-1.13,6.18-.85,3.92-1.27,5.74-.93,3.52-1.35,5.09-.79,3-1.24,4.29-.78,2.36-1.09,3.26-.56,1.6-.74,2.09-.28.73-.28.73a.69.69,0,0,1-.87.38.67.67,0,0,1-.4-.42Z"/><path class="cls-3" d="M483.21,873.6s-.64-1.13-1.57-3.19-2.2-5-3.47-8.65a127.73,127.73,0,0,1-3.79-12.58c-.61-2.32-1.11-4.75-1.63-7.22s-.91-5-1.32-7.55-.67-5.09-.94-7.61-.46-5-.53-7.42-.19-4.75-.12-7,.14-4.32.25-6.25.39-3.71.55-5.27.5-2.91.67-4c.44-2.23.75-3.48.75-3.48a.71.71,0,0,1,1.39.07v0s.18,1.28.39,3.49c.1,1.1.19,2.43.36,4s.42,3.26.57,5.12.55,3.88.76,6,.65,4.38.94,6.69.73,4.72,1.07,7.15.77,4.9,1.16,7.37.83,4.94,1.24,7.37.79,4.83,1.17,7.14.72,4.59,1.05,6.72.65,4.17.88,6,.52,3.6.69,5.15.36,2.87.48,4c.25,2.23.35,3.51.35,3.51a.72.72,0,0,1-.66.77A.74.74,0,0,1,483.21,873.6Z"/><path class="cls-3" d="M472.67,872s-.21-.25-.63-.71a25.34,25.34,0,0,1-1.68-2c-.73-.88-1.44-2-2.36-3.31s-1.77-2.81-2.66-4.5-1.93-3.49-2.74-5.51c-.44-1-.89-2-1.36-3.08s-.79-2.16-1.21-3.28-.83-2.24-1.19-3.42-.7-2.35-1-3.56c-.71-2.4-1.29-4.88-2-7.33s-1-5-1.49-7.46-.82-4.92-1-7.31c-.1-1.19-.2-2.37-.31-3.52a32.59,32.59,0,0,1-.21-3.37c0-2.22-.09-4.29,0-6.21s.26-3.68.38-5.24.45-2.9.6-4c.44-2.2.7-3.45.7-3.45a.71.71,0,0,1,.84-.55.73.73,0,0,1,.57.62v0s.13,1.23.35,3.4c.12,1.08.11,2.38.37,3.87s.46,3.15.72,5,.68,3.77,1,5.85.89,4.24,1.35,6.49c.22,1.12.54,2.25.82,3.39s.55,2.31.83,3.5c.63,2.33,1.27,4.7,1.9,7.06s1.32,4.73,2.06,7,1.42,4.58,2.09,6.78c1.37,4.42,2.58,8.56,3.58,12.14s1.76,6.61,2.26,8.75c.25,1.08.44,1.91.54,2.5s.2.89.2.89a.74.74,0,0,1-.57.86.72.72,0,0,1-.68-.23Z"/><path class="cls-3" d="M461.65,870a5.48,5.48,0,0,1-.72-.52c-.48-.36-1.17-.89-2-1.61a37.6,37.6,0,0,1-2.79-2.65c-1.09-1-2.12-2.31-3.33-3.67-.59-.7-1.17-1.43-1.75-2.2s-1.19-1.57-1.78-2.43c-1.17-1.68-2.36-3.49-3.46-5.44a66.58,66.58,0,0,1-3.21-6.12c-1.08-2.1-1.88-4.37-2.81-6.58s-1.62-4.53-2.33-6.79-1.24-4.55-1.72-6.77-.79-4.42-1.08-6.49-.33-4.08-.44-5.89.1-3.55.14-5a13.59,13.59,0,0,1,.2-2.08c.1-.64.2-1.23.28-1.76.37-2.12.66-3.3.66-3.3l.06-.17a.67.67,0,0,1,.83-.49.69.69,0,0,1,.52.62l.25,3.15a33.47,33.47,0,0,0,.37,3.61c.22,1.39.47,3,.74,4.67s.79,3.51,1.24,5.45,1.11,3.93,1.69,6,1.4,4.18,2.12,6.34,1.62,4.3,2.5,6.45,1.76,4.28,2.74,6.35,1.88,4.12,2.85,6.06,1.91,3.83,2.83,5.59,1.84,3.42,2.66,5c3.38,6.08,5.89,10,5.89,10a.67.67,0,0,1-.2.92.7.7,0,0,1-.71,0Z"/><path class="cls-3" d="M448.56,867.16a23.75,23.75,0,0,1-2.56-1.79,30.4,30.4,0,0,1-2.76-2.29c-1-.94-2.2-2-3.35-3.17s-2.42-2.53-3.64-4a59.37,59.37,0,0,1-3.75-4.72l-3.75-5.25q-1.67-2.83-3.37-5.71c-.56-1-1.11-1.91-1.63-2.89a31.29,31.29,0,0,1-1.51-2.93c-.93-2-1.76-4-2.55-5.9-.38-1-.78-1.9-1.16-2.83s-.68-1.85-1-2.75c-.61-1.81-1.09-3.56-1.49-5.19-.2-.81-.4-1.59-.59-2.34s-.31-1.45-.44-2.12c-.31-1.33-.5-2.51-.64-3.49-.32-1.94-.39-3.08-.39-3.08l0-.22a.69.69,0,0,1,1.32-.32l4.35,10c.66,1.49,1.34,3.12,2.12,4.81s1.71,3.44,2.62,5.26,1.85,3.7,2.8,5.62,2.08,3.78,3.11,5.68,2.13,3.79,3.18,5.66,2.24,3.59,3.31,5.32,2.1,3.41,3.19,4.93l3,4.32c.94,1.32,1.86,2.49,2.65,3.55s1.51,2,2.11,2.68c1.17,1.46,1.91,2.26,1.91,2.26a.68.68,0,0,1,0,1,.65.65,0,0,1-.79.09Z"/><path class="cls-3" d="M440,865a31.15,31.15,0,0,1-3-1.36c-.92-.48-2.08-1-3.33-1.76s-2.65-1.53-4.11-2.51a55.24,55.24,0,0,1-4.69-3.2c-1.61-1.22-3.37-2.43-5.05-3.83s-3.39-2.92-5.12-4.44-3.43-3.14-5-4.85-3.2-3.44-4.74-5.17c-.76-.87-1.52-1.72-2.24-2.6s-1.34-1.81-2-2.7L398.81,830c-.59-.89-1.18-1.75-1.73-2.59a36,36,0,0,1-3-4.9c-.42-.78-.81-1.54-1.17-2.27s-.68-1.44-1-2.08c-.64-1.32-1.12-2.5-1.52-3.46-.79-1.92-1.14-3.07-1.14-3.07l-.05-.17a.68.68,0,0,1,.46-.86.67.67,0,0,1,.75.25l6.74,9.28c1,1.43,2.23,2.82,3.47,4.34s2.59,3.11,4,4.76c.69.82,1.37,1.68,2.11,2.5l2.3,2.46,4.67,5c1.53,1.71,3.24,3.25,4.84,4.86s3.19,3.15,4.74,4.64,3.12,2.86,4.59,4.19,2.83,2.58,4.15,3.71l3.56,3.06,2.79,2.3c1.54,1.28,2.46,2,2.46,2a.68.68,0,0,1,.14,1,.69.69,0,0,1-.78.23Z"/><path class="cls-3" d="M433.68,863.3s-1.18-.28-3.18-.9-4.83-1.55-8.17-2.86c-1.67-.65-3.49-1.35-5.35-2.19s-3.87-1.69-5.87-2.69-4.09-2-6.17-3.11l-6.22-3.5c-2-1.27-4.1-2.46-6.06-3.79s-3.88-2.61-5.67-4-3.56-2.62-5.13-4-3.09-2.54-4.39-3.81-2.5-2.39-3.54-3.42-1.85-2-2.55-2.82c-1.38-1.58-2.14-2.51-2.14-2.51a.73.73,0,0,1,.12-1,.71.71,0,0,1,.83,0l0,0s1,.66,2.67,1.87c.85.59,1.82,1.36,3,2.17s2.53,1.71,4,2.73,3.08,2,4.72,3.14,3.49,2.21,5.31,3.43,3.8,2.31,5.73,3.56,4,2.39,6,3.61l6,3.55c2,1.1,4,2.33,5.89,3.37l10.47,6,7.45,4.25,2.81,1.64a.71.71,0,0,1,.26,1,.7.7,0,0,1-.78.32Z"/><path class="cls-3" d="M429.65,862.06s-.32.09-.93.21-1.54.33-2.7.48-2.58.35-4.21.48-3.46.27-5.46.29h-3.13l-3.34-.13c-2.3-.09-4.7-.38-7.2-.63s-5.05-.71-7.63-1.27-5.2-1.12-7.77-1.91l-3.86-1.12c-1.26-.43-2.51-.91-3.75-1.36s-2.47-.92-3.68-1.4-2.35-1.05-3.49-1.58-2.28-1-3.36-1.6L366,850.8l-2.9-1.69c-.93-.56-1.79-1.18-2.62-1.75-1.66-1.15-3.14-2.25-4.44-3.23s-2.3-2-3.18-2.82-1.52-1.43-2-1.86-.68-.69-.68-.69a.7.7,0,0,1,0-1,.74.74,0,0,1,.75-.17l0,0,.9.33c.57.23,1.44.53,2.49,1s2.35,1,3.77,1.61,3.16,1.15,4.94,1.86c.91.33,1.8.78,2.79,1.09l3,1.07,3.16,1.15,3.33,1.09c1.14.37,2.28.75,3.43,1.15L382.4,849c2.37.76,4.81,1.46,7.26,2.11s4.9,1.28,7.31,2l7.15,1.77,3.42.79c1.13.29,2.22.55,3.3.76,2.15.51,4.19,1,6.08,1.38l9.19,2.09c1.13.23,2,.46,2.6.59l.93.21a.73.73,0,0,1,.54.88.69.69,0,0,1-.49.51Z"/><path class="cls-3" d="M436.59,864.05s-1.15.92-3.2,2.23c-1,.64-2.28,1.41-3.72,2.22s-3.08,1.69-4.89,2.55-3.76,1.74-5.85,2.61-4.31,1.72-6.65,2.5-4.74,1.54-7.19,2.35-4.91,1.7-7.38,2.55-5,1.6-7.41,2.5-4.86,1.6-7.17,2.45c-4.64,1.64-9,3.12-12.73,4.48l-5.12,1.8c-1.54.53-2.86,1-4,1.45l-3.54,1.16-.13,0a.69.69,0,0,1-.88-.43.7.7,0,0,1,.27-.8l3.06-2.06c1-.63,2.17-1.43,3.56-2.28l4.73-2.79c1.72-1.07,3.69-2,5.71-3.06s4.24-2.14,6.51-3.22,4.62-2.19,7-3.21,4.92-2,7.41-3,5-1.88,7.48-2.81,4.92-1.79,7.32-2.52,4.7-1.5,6.93-2.07l3.24-.89,3.05-.71c1.95-.46,3.77-.83,5.35-1.18s3-.54,4.18-.72,2.06-.33,2.7-.39l1-.11a.67.67,0,0,1,.76.6.7.7,0,0,1-.25.6Z"/><path class="cls-3" d="M444.09,866s-.25.28-.72.75-1.16,1.18-2.06,2-2,1.85-3.3,2.91L436,873.37c-.73.58-1.51,1.17-2.33,1.8l-2.51,2c-.9.63-1.81,1.3-2.76,2l-2.93,2-3.09,2.05c-2.11,1.35-4.32,2.71-6.58,4-1.12.7-2.27,1.34-3.43,2s-2.3,1.34-3.47,2c-2.34,1.28-4.67,2.55-7,3.77s-4.59,2.39-6.86,3.46-4.4,2.17-6.5,3.1-4.08,1.84-5.93,2.66-3.54,1.56-5.08,2.2l-4,1.65c-1.11.48-2,.78-2.65,1l-1,.33-.22.09a.7.7,0,0,1-.87-.42.66.66,0,0,1,.2-.74s1-.89,2.83-2.44c.9-.79,2-1.72,3.31-2.73s2.74-2.22,4.42-3.37,3.45-2.46,5.38-3.76,3.95-2.71,6.13-4,4.37-2.73,6.68-4.07,4.61-2.75,7-4.08,4.73-2.62,7.08-3.88l6.91-3.66c4.48-2.37,8.78-4.35,12.43-6.12s6.78-3.05,8.94-4l3.41-1.47a.68.68,0,0,1,.78,1.08Z"/><path class="cls-3" d="M453.68,868.16s-.74,1.17-2.21,3.07-3.61,4.55-6.35,7.58-6.06,6.42-9.78,9.89c-1.88,1.71-3.83,3.48-5.88,5.2s-4.14,3.44-6.29,5.12-4.3,3.33-6.49,4.88-4.35,3.07-6.5,4.47c-1.08.7-2.12,1.4-3.17,2l-3.12,1.85c-2,1.2-4,2.21-5.86,3.16s-3.59,1.69-5.13,2.34a33.19,33.19,0,0,1-4.11,1.51c-2.32.71-3.65,1-3.65,1a.71.71,0,0,1-.86-.5.71.71,0,0,1,.29-.76l.06,0s1.13-.75,3.11-2c1-.55,2.14-1.43,3.46-2.36l2.12-1.46c.73-.52,1.47-1.15,2.27-1.73,1.61-1.18,3.34-2.46,5.11-3.92s3.7-2.88,5.63-4.48c1-.77,2-1.57,3-2.37l3-2.48c2-1.67,4.09-3.36,6.14-5.07l6.15-5.06c2-1.68,4-3.33,6-4.88,3.92-3.15,7.66-6,10.91-8.4,1.63-1.2,3.14-2.28,4.5-3.21s2.54-1.78,3.54-2.42c2-1.32,3.18-2,3.18-2a.7.7,0,0,1,1,.25A.72.72,0,0,1,453.68,868.16Z"/><path class="cls-3" d="M464.08,870.33l-.45.91c-.28.57-.68,1.44-1.29,2.49s-1.31,2.33-2.2,3.75-1.92,3-3.07,4.67-2.45,3.49-3.87,5.35-3,3.76-4.58,5.74-3.4,3.9-5.21,5.86-3.63,4-5.61,5.84-3.88,3.8-5.86,5.61-3.93,3.56-5.89,5.2l-5.74,4.61c-1.83,1.46-3.6,2.79-5.3,3.94s-3.3,2.18-4.69,3.09-2.66,1.64-3.67,2.28-1.87,1.05-2.43,1.38l-.86.47,0,0a.72.72,0,0,1-1-.28.73.73,0,0,1,.08-.82l.64-.73c.42-.48,1-1.22,1.81-2.08s1.79-1.9,2.91-3.11,2.35-2.6,3.78-4,2.84-3.1,4.44-4.74,3.27-3.43,5-5.25,3.56-3.65,5.36-5.58,3.7-3.8,5.57-5.72c.94-1,1.85-1.93,2.77-2.89l2.79-2.85c1.84-1.89,3.66-3.73,5.47-5.48s3.47-3.52,5.17-5.1,3.23-3.12,4.72-4.49,2.82-2.65,4.07-3.73,2.28-2.07,3.18-2.84c1.8-1.55,2.85-2.42,2.85-2.42a.72.72,0,0,1,1,.1.73.73,0,0,1,.09.76Z"/><path class="cls-3" d="M472.22,871.85s-.11.32-.35.93-.53,1.51-1,2.61c-.9,2.24-2.3,5.38-4.12,9.05-.88,1.86-1.95,3.81-3,5.89s-2.36,4.22-3.67,6.42-2.71,4.47-4.18,6.72l-2.21,3.42c-.79,1.1-1.58,2.23-2.37,3.34-1.57,2.25-3.18,4.48-4.83,6.62s-3.35,4.19-4.94,6.21-3.37,3.81-4.92,5.59-3.24,3.3-4.68,4.78a27.13,27.13,0,0,1-2.19,2l-2,1.76c-.64.55-1.23,1.07-1.79,1.53s-1.12.86-1.61,1.21c-1,.75-1.75,1.28-2.27,1.67s-.8.56-.8.56a.69.69,0,0,1-1-.17.68.68,0,0,1,0-.75l.08-.14s.73-1.24,2-3.22l1.11-1.63c.38-.61.78-1.29,1.23-2,.9-1.38,1.91-2.94,3-4.64l3.49-5.46c1.24-2,2.57-4,3.89-6.1s2.85-4.22,4.23-6.47c.67-1.13,1.44-2.21,2.18-3.32l2.21-3.34c3-4.45,6-8.87,9-12.92,1.52-2,3-4,4.48-5.78s2.8-3.56,4.19-5.09,2.58-3,3.74-4.19l1.62-1.73,1.44-1.43c1.72-1.73,2.83-2.67,2.83-2.67l.11-.09a.71.71,0,0,1,1,.08A.72.72,0,0,1,472.22,871.85Z"/><path class="cls-3" d="M482,873.33l-.25,1c-.19.63-.41,1.59-.8,2.76-.72,2.36-1.83,5.73-3.39,9.63s-3.49,8.42-5.77,13.14c-1.12,2.37-2.36,4.78-3.67,7.2s-2.67,4.86-4.07,7.28c-.69,1.23-1.41,2.42-2.16,3.6s-1.48,2.36-2.24,3.52c-1.5,2.31-3,4.55-4.52,6.72s-3.14,4.15-4.64,6.05-3,3.64-4.34,5.25-2.84,3-4.06,4.18-2.36,2.23-3.28,3.08c-1.83,1.67-2.95,2.55-2.95,2.55a.71.71,0,0,1-1.1-.83l0-.05s.55-1.35,1.62-3.56c.54-1.1,1.18-2.44,2-3.94s1.73-3.12,2.67-5,2-3.86,3.09-5.95,2.37-4.22,3.63-6.47,2.53-4.61,3.89-7,2.82-4.66,4.18-7.08,2.82-4.73,4.25-7,2.87-4.58,4.26-6.76,2.77-4.29,4.11-6.26,2.59-3.84,3.8-5.56c2.41-3.4,4.52-6.21,6.05-8.14.74-1,1.38-1.73,1.78-2.25l.67-.78a.72.72,0,0,1,1-.09A.7.7,0,0,1,482,873.33Z"/><path class="cls-3" d="M491.2,874.69s0,.38-.06,1-.12,1.67-.32,2.87-.37,2.69-.69,4.32-.73,3.46-1.23,5.4c-.26,1-.54,1.95-.82,3s-.64,2.08-1,3.17-.73,2.15-1.1,3.27-.84,2.22-1.26,3.36c-.89,2.26-1.85,4.56-2.88,6.88-.49,1.16-1.08,2.29-1.63,3.45s-1.08,2.3-1.68,3.44c-1.15,2.28-2.35,4.53-3.53,6.74s-2.42,4.36-3.7,6.41-2.4,4-3.65,5.9-2.32,3.61-3.47,5.23-2.09,3.09-3.09,4.41c-.48.66-.94,1.27-1.39,1.84s-.79,1.1-1.13,1.58c-.67,1-1.34,1.71-1.72,2.24l-.68.8-.23.27a.65.65,0,0,1-.92.08.64.64,0,0,1-.21-.67l.93-3.49c.14-.56.31-1.18.49-1.85s.46-1.36.7-2.13c.52-1.51,1-3.25,1.72-5.08s1.4-3.85,2.27-5.93,1.72-4.3,2.74-6.52,2-4.58,3.1-6.9,2.19-4.7,3.36-7c2.28-4.71,4.69-9.36,7-13.69s4.48-8.35,6.39-11.79C487.32,878.47,490,874,490,874a.64.64,0,0,1,.89-.23.65.65,0,0,1,.32.57Z"/><path class="cls-3" d="M496.18,874.94a30.69,30.69,0,0,1,.79,3,67.16,67.16,0,0,1,1.3,8c.17,1.66.33,3.47.4,5.38s.16,3.93.11,6-.11,4.24-.27,6.42-.43,4.4-.66,6.61-.63,4.42-1,6.58-.86,4.29-1.33,6.33-1,4-1.6,5.84-1.2,3.57-1.77,5.15-1.3,3-1.84,4.26-1.19,2.29-1.63,3.17c-1,1.72-1.57,2.67-1.57,2.67a.72.72,0,0,1-1.32-.44v-.05s.1-1.13.36-3c.14-1,.34-2.08.48-3.42s.32-2.8.56-4.39c.35-3.22.75-7,1.19-11,.2-2,.37-4.07.62-6.18s.42-4.26.59-6.4.41-4.3.62-6.41c.09-1.05.2-2.1.32-3.14s.21-2.07.34-3.07c.24-2,.49-4,.76-5.82s.52-3.61.81-5.22c.55-3.25,1.1-6,1.56-7.87s.76-3,.76-3a.74.74,0,0,1,.92-.49A.78.78,0,0,1,496.18,874.94Z"/><path class="cls-3" d="M499.57,875s.61.57,1.51,1.62a46.45,46.45,0,0,1,3.46,4.57c.67,1,1.34,2.07,2,3.24s1.33,2.43,2,3.75,1.27,2.7,1.88,4.13,1.17,2.89,1.64,4.39,1,3,1.37,4.49.78,3,1,4.46.54,2.85.68,4.21.31,2.62.34,3.83.05,2.28.07,3.25-.12,1.82-.15,2.52c-.12,1.38-.24,2.18-.24,2.18a.73.73,0,0,1-.83.6.72.72,0,0,1-.55-.43l0,0s-.32-.74-.79-2c-.22-.64-.51-1.41-.79-2.3s-.71-1.85-1.06-2.93-.82-2.23-1.23-3.46-.89-2.5-1.35-3.83c-.95-2.65-1.95-5.47-3-8.3s-2-5.66-2.92-8.34c-.44-1.34-.87-2.66-1.28-3.89s-.76-2.43-1.09-3.53-.63-2.11-.86-3-.45-1.71-.63-2.36c-.33-1.33-.49-2.12-.49-2.12a.73.73,0,0,1,.58-.86A.71.71,0,0,1,499.57,875Z"/></g><g class="cls-2"><path class="cls-3" d="M616.63,648.72s.77-1,2.24-2.8,3.6-4.6,6.23-8.09c5.25-7,12.68-17,21.11-29.31,4.3-6.1,8.72-12.87,13.46-20s9.45-14.79,14.41-22.68c4.74-8,9.92-16.13,14.69-24.69q3.66-6.36,7.33-12.82c2.44-4.29,4.71-8.71,7.1-13.07s4.74-8.72,7-13.1,4.43-8.85,6.63-13.21c4.47-8.67,8.46-17.45,12.38-25.89s7.44-16.69,10.76-24.56c1.66-3.93,3.29-7.75,4.83-11.45s2.81-7.36,4.15-10.84c2.61-7,5.09-13.31,7.14-19s3.59-10.74,4.91-14.87c2.73-8.22,4.3-12.92,4.3-12.92a1.55,1.55,0,0,0-2.92-1l0,.07s-1.68,4.63-4.65,12.74c-1.48,4-3.28,9-5.34,14.62-2.23,5.59-4.89,11.84-7.7,18.66-1.4,3.43-2.89,7-4.43,10.66s-3.36,7.36-5.14,11.23c-3.52,7.68-7.2,15.83-11.45,24.05s-8.33,16.83-13,25.29c-2.3,4.27-4.64,8.58-7,12.89s-4.9,8.52-7.34,12.8-4.89,8.55-7.45,12.75-5.1,8.33-7.63,12.46c-5,8.33-10.36,16.23-15.31,24-5.13,7.66-10.12,15.07-15,22S641.45,596,637,602c-8.71,11.89-16.34,21.5-21.72,28.17-2.68,3.35-4.82,5.93-6.28,7.64l-2.27,2.69-.07.08a6.45,6.45,0,1,0,9.83,8.34A.73.73,0,0,0,616.63,648.72Z"/><path class="cls-3" d="M700.52,510.08s-.51-.21-1.46-.5-2.31-.86-3.93-1.3-3.52-1.2-5.79-1.83-4.74-1.46-7.39-2.1c-2.68-.82-5.57-1.59-8.56-2.26-1.51-.39-3-.6-4.61-1s-3.16-.8-4.81-1.14c-3.24-.76-6.58-1.31-10-1.81-1.69-.29-3.4-.68-5.12-1l-5.18-.83c-3.46-.57-7-.78-10.39-1.24s-6.86-.85-10.19-1.11c-1.7-.05-3.35-.13-5-.21s-3.26,0-4.83,0-3.1-.09-4.6-.1h-4.36c-1.43.07-2.79.13-4.1.16s-2.59.25-3.79.37c-2.34.15-4.5.52-6.29.81s-3.23.63-4.2.82-1.53.39-1.53.39l-.84.25a1.44,1.44,0,0,0-.94,1.8,1.34,1.34,0,0,0,.78.86s1.69.79,4.74,2,7.36,3.05,12.69,4.89c2.67.92,5.51,2.06,8.61,3s6.41,1.72,9.85,2.46,7,1.62,10.63,2.47c1.8.49,3.68.66,5.51,1s3.73.56,5.59.76c3.77.44,7.52.87,11.21,1.28l10.9.47a72.12,72.12,0,0,0,10.22-.12c3.26-.21,6.31-.41,9.14-.57s5.39-.76,7.68-1.1,4.27-.76,5.9-1.14a38.42,38.42,0,0,0,3.73-1l1.3-.39a1.47,1.47,0,0,0,1-1.83,1.45,1.45,0,0,0-.86-.93Z"/><path class="cls-3" d="M706.1,501.62s-.43-.58-1.25-1.49-2-2.34-3.56-3.9-3.49-3.48-5.75-5.55-4.78-4.27-7.63-6.52-6-4.59-9.35-6.9-7-4.6-10.7-6.89-7.73-4.44-11.77-6.58l-12.34-6.24-12.43-6c-4.19-1.91-8.14-3.87-12.15-5.62-2-.85-3.91-1.8-5.8-2.66l-5.62-2.5c-3.76-1.5-7.09-3.13-10.35-4.54s-6.17-2.73-8.83-3.93c-1.3-.62-2.66-1.05-3.8-1.56s-2.18-1.07-3.12-1.49c-3.87-1.77-6.32-2.71-6.32-2.71l-.58-.22a1.47,1.47,0,0,0-1.91.83,1.57,1.57,0,0,0,.27,1.54s1.61,1.8,4.42,5c.74.77,1.52,1.64,2.39,2.57s1.94,1.81,3,2.84c2.2,1.94,4.51,4.4,7.37,6.62s5.88,4.72,9.24,7.14,6.88,5,10.64,7.52,7.73,5,11.81,7.33,8.23,4.83,12.44,7.13,8.37,4.67,12.6,6.77,8.41,4.12,12.47,6,8.07,3.58,11.86,5.19,7.46,2.92,10.8,4.21,6.39,2.53,9.22,3.35l7.2,2.31c2,.67,3.58,1.09,4.69,1.39l1.66.45a1.47,1.47,0,0,0,1.8-1,1.46,1.46,0,0,0-.22-1.25Z"/><path class="cls-3" d="M711.87,492.51s-1.18-2.61-3.63-6.94-6.06-10.41-10.86-17.4a283.22,283.22,0,0,0-17.44-23.06c-3.33-4.1-7-8.16-10.71-12.29s-7.73-8.12-11.71-12.13-8.17-7.81-12.3-11.57-8.29-7.31-12.52-10.57-8.18-6.51-12.22-9.26-7.85-5.37-11.44-7.67S602,377.48,599,375.75s-5.83-2.9-8-4c-4.53-2.12-7.14-3.2-7.14-3.2a1.58,1.58,0,0,0-2,.84,1.54,1.54,0,0,0,.36,1.72l.06.07s2.05,2,5.7,5.21c1.83,1.62,4.07,3.49,6.55,5.79s5.24,5,8.37,7.65,6.19,6,9.69,9.16,6.94,6.83,10.67,10.35,7.43,7.43,11.32,11.18,7.71,7.74,11.59,11.63,7.7,7.89,11.49,11.79,7.55,7.67,11.16,11.36l10.59,10.59c3.41,3.33,6.56,6.56,9.61,9.41s5.73,5.59,8.25,7.91,4.65,4.37,6.47,6c3.62,3.33,5.78,5.18,5.78,5.18a1.58,1.58,0,0,0,2.45-1.88Z"/><path class="cls-3" d="M722.71,471.69s-.15-.69-.43-2-.74-3.26-1.46-5.65-1.74-5.2-2.84-8.49c-1.3-3.17-2.69-6.8-4.52-10.58s-3.72-8-6.24-12l-3.71-6.41c-1.28-2.15-2.81-4.22-4.27-6.41s-2.9-4.38-4.51-6.56-3.29-4.3-5-6.48c-3.35-4.38-7-8.64-10.5-13-3.69-4.23-7.53-8.33-11.32-12.35s-7.69-7.84-11.66-11.32c-2-1.74-3.95-3.44-5.85-5.13a73.38,73.38,0,0,0-5.73-4.74c-3.93-2.89-7.5-5.73-11-8.12s-6.88-4.32-9.82-6.14-5.73-3-7.9-4.12l-7-3.24a1.56,1.56,0,0,0-2.06.78,1.59,1.59,0,0,0,.36,1.82h0s2,1.84,5.58,5.05c1.78,1.62,4.1,3.29,6.42,5.68s5,4.91,7.9,7.75,5.84,6.11,9,9.44,6.38,7.1,9.78,10.82c1.7,1.85,3.3,3.9,5,5.88s3.4,4,5.13,6c3.32,4.14,6.71,8.35,10.09,12.55s6.69,8.49,9.82,12.79,6.3,8.47,9.34,12.52c6.07,8.17,11.86,15.7,16.93,22.12s9.46,11.73,12.61,15.39c1.59,1.83,2.83,3.26,3.74,4.21l1.34,1.5a1.59,1.59,0,0,0,2.73-1.4Z"/><path class="cls-3" d="M733.46,449.51a13,13,0,0,0,0-2c0-1.3-.06-3.21-.32-5.56a82.22,82.22,0,0,0-1.09-8.41c-.43-3.29-1.34-6.77-2.2-10.67-.47-1.95-1-3.94-1.63-6s-1.25-4.14-2-6.29c-1.47-4.27-3.14-8.74-5.18-13.23a147.14,147.14,0,0,0-6.71-13.66c-2.34-4.63-5.33-9-8.06-13.53-2.9-4.41-5.93-8.76-9-13s-6.48-8.11-9.79-11.84c-3.54-3.63-6.82-7.15-10.13-10.35-3.47-3.07-6.82-5.88-9.9-8.43-3.26-2.44-6.44-4.43-9.11-6.29a28.36,28.36,0,0,0-4-2.33c-1.26-.66-2.43-1.25-3.48-1.81-4.26-2.09-6.73-3.1-6.73-3.1l-.36-.11a1.49,1.49,0,0,0-2,.84,1.53,1.53,0,0,0,.43,1.72s1.92,1.64,5.27,4.53c1.64,1.51,3.85,3.07,5.94,5.34l7.33,7.39c2.49,2.88,5.22,6,8.09,9.29s5.54,7.07,8.51,10.81,5.61,7.93,8.52,12c2.7,4.23,5.53,8.47,8.2,12.81s5.34,8.7,7.74,13.12,4.88,8.68,7.06,12.94,4.33,8.37,6.28,12.28,3.69,7.71,5.35,11.17c6.42,13.91,10.06,23.42,10.06,23.42a1.49,1.49,0,0,0,1.9.84,1.53,1.53,0,0,0,.95-1.25Z"/><path class="cls-3" d="M745.42,422.56a51.18,51.18,0,0,0,.15-6.87,70.92,70.92,0,0,0-.49-7.88c-.38-3-.6-6.45-1.29-10.07s-1.34-7.6-2.4-11.68a128.35,128.35,0,0,0-3.51-12.81c-1.45-4.38-3-8.88-4.47-13.48-1.9-4.42-3.84-8.89-5.76-13.39-1-2.23-2-4.47-3-6.67a70.24,70.24,0,0,0-3.26-6.49c-2.31-4.22-4.76-8.27-7.17-12.17-1.19-1.93-2.35-3.87-3.52-5.74s-2.41-3.62-3.58-5.36c-2.44-3.43-4.91-6.56-7.31-9.39l-3.37-4.08-3.2-3.54c-2-2.26-3.82-4.13-5.37-5.66-3-3.09-5-4.71-5-4.71l-.36-.3a1.52,1.52,0,0,0-2.29,1.92s4.84,8.27,12.06,20.67c1.79,3.09,3.8,6.43,5.8,10s3.88,7.5,5.95,11.48,4.17,8.1,6.34,12.28,4,8.6,6.06,12.92l5.93,13c1.75,4.36,3.48,8.65,5.16,12.81s3.33,8.14,4.62,12.05,2.62,7.53,3.81,10.92,2,6.55,2.88,9.32,1.51,5.23,2,7.22c1.07,4,1.53,6.35,1.53,6.35a1.5,1.5,0,0,0,1.77,1.19,1.47,1.47,0,0,0,1.19-1.29Z"/><path class="cls-3" d="M752.74,404.62s.71-2.55,1.44-7.06c.33-2.26.88-5,1.19-8.19s.72-6.7.88-10.56.55-8.1.39-12.51.06-9.15-.25-13.95-.77-9.8-1.24-14.86c-.71-5-1.11-10.18-2.08-15.25s-2-10.16-3-15.14c-.56-2.47-1.08-4.94-1.7-7.36s-1.5-4.73-2.21-7.07L744,285.85c-.82-2.2-1.58-4.37-2.35-6.44a83.26,83.26,0,0,0-4.85-11.64c-.86-1.76-1.7-3.43-2.52-5s-1.68-3.08-2.44-4.44c-1.51-2.84-3-5.21-4.19-7.17-2.38-3.9-4-6-4-6l-.24-.32a1.53,1.53,0,0,0-2.13-.3,1.5,1.5,0,0,0-.52,1.68l7.74,24c1.3,3.55,2.12,7.61,3.2,11.78s2.17,8.66,3.29,13.29c.56,2.29,1.19,4.6,1.7,7s.92,4.8,1.38,7.28c.94,4.86,1.89,9.84,2.84,14.8s1.56,10,2.36,14.91,1.45,9.77,2.09,14.45,1,9.26,1.48,13.6.91,8.4,1.2,12.19.58,7.25.82,10.31.35,5.76.47,8c.27,4.4.32,6.94.32,6.94a1.51,1.51,0,0,0,1.53,1.49,1.54,1.54,0,0,0,1.41-1.09Z"/><path class="cls-3" d="M757.88,391.09s1-2.45,2.54-6.8S763.93,373.68,766,366c1-3.81,2.12-8,3-12.35s2-9.07,2.84-13.93,1.74-9.88,2.48-15,1.22-10.39,1.86-15.61c.39-5.26,1-10.48,1.14-15.69s.39-10.29.29-15.25,0-9.73-.43-14.29-.51-8.81-1.07-12.76-1-7.54-1.49-10.73-1.21-5.93-1.69-8.2c-1-4.5-1.69-7.05-1.69-7.05a1.59,1.59,0,0,0-1.92-1.1,1.56,1.56,0,0,0-1.14,1.44l0,.09s-.13,2.64-.14,7.18c0,2.28,0,5,0,8.15s-.25,6.71-.3,10.57-.43,8.06-.53,12.47-.62,9.06-.81,13.89-.82,9.75-1.11,14.81-.92,10.16-1.34,15.29-1,10.27-1.49,15.3c-.69,5.05-1,10-1.65,14.84-1.1,9.63-2.12,18.63-3,26.35s-1.59,14.22-2.12,18.75-.73,7.13-.73,7.13a1.55,1.55,0,0,0,3,.76Z"/><path class="cls-3" d="M760.92,382.33s.58-.45,1.59-1.38,2.58-2.33,4.35-4.18,4-4.13,6.32-6.85,5-5.8,7.61-9.35c1.31-1.78,2.67-3.63,4.08-5.53s2.69-4,4.11-6.12c2.83-4.2,5.42-8.84,8.22-13.61,2.54-4.89,5.3-9.91,7.65-15.21s4.76-10.69,6.7-16.29c1-2.77,2-5.56,3-8.32s1.65-5.63,2.47-8.43,1.58-5.58,2.29-8.35,1.18-5.55,1.72-8.27,1.13-5.39,1.52-8,.65-5.23,1-7.77.54-5,.79-7.36.22-4.71.27-6.92c.12-4.44.09-8.51,0-12.09-.23-3.62-.62-6.73-.88-9.31s-.57-4.57-.73-5.94-.34-2.1-.34-2.1a1.54,1.54,0,0,0-1.78-1.3,1.62,1.62,0,0,0-1.27,1.11l0,.12-.58,2c-.34,1.34-.94,3.26-1.5,5.7s-1.36,5.42-2.05,8.79c-.93,3.36-2.06,7.12-3.1,11.19-.59,2.05-1,4.21-1.68,6.38l-2,6.75q-1,3.45-2,7.11c-.77,2.36-1.57,4.83-2.39,7.33s-1.62,5-2.4,7.58-1.81,5.12-2.73,7.7c-1.72,5.2-3.66,10.43-5.67,15.63-1.81,5.27-4.09,10.39-6,15.54s-4.15,10.13-6.12,15c-1,2.4-2.05,4.78-3.05,7.11s-1.91,4.66-2.92,6.86c-1.9,4.46-3.71,8.7-5.45,12.59-3.42,7.89-6.25,14.44-8.23,19-1.05,2.3-1.78,4.15-2.33,5.39s-.83,1.92-.83,1.92a1.62,1.62,0,0,0,.87,2.1,1.53,1.53,0,0,0,1.55-.2Z"/><path class="cls-3" d="M755.45,397.24s3.12-.84,8.1-2.79c2.48-1,5.47-2.22,8.79-3.74s7-3.27,10.87-5.37,8-4.42,12.25-7,8.67-5.42,13.07-8.56,8.9-6.43,13.52-9.73,9.39-6.52,14.12-9.82,9.32-6.79,14.06-9.92,9.17-6.56,13.68-9.55c8.93-6.12,17.23-11.94,24.47-16.81l9.87-6.77c2.94-2,5.56-3.73,7.71-5.18l6.67-4.78.25-.18a1.51,1.51,0,0,0,.36-2.12,1.54,1.54,0,0,0-1.77-.56l-7.63,2.77c-2.39.93-5.35,2-8.68,3.36l-11.08,4.78c-4.14,1.67-8.33,4-12.88,6.18s-9.3,4.75-14.17,7.38-9.89,5.38-14.85,8.38-9.95,6.14-15,9.26-9.86,6.46-14.72,9.64-9.56,6.41-14,9.74-8.76,6.39-12.67,9.62c-2,1.58-3.92,3.1-5.79,4.61s-3.54,3.07-5.22,4.51c-3.36,2.86-6.37,5.61-9.05,8s-4.87,4.66-6.71,6.48-3.26,3.24-4.19,4.29l-1.45,1.58a1.47,1.47,0,0,0,.08,2.12,1.53,1.53,0,0,0,1.41.34Z"/><path class="cls-3" d="M749.15,413.09s.82-.07,2.27-.31,3.59-.52,6.22-1.07,5.87-1.14,9.46-2.09l5.73-1.39c2-.55,4-1.17,6.22-1.8l6.75-1.93c2.29-.76,4.65-1.52,7.08-2.33s4.91-1.68,7.44-2.57l7.65-2.84c5.14-2,10.43-4.16,15.75-6.42,2.7-1.08,5.33-2.3,8-3.5s5.35-2.35,8-3.62c5.31-2.48,10.6-5,15.78-7.54s10.22-5.05,15.06-7.69,9.57-5,14-7.53,8.56-4.85,12.41-7.08,7.37-4.28,10.51-6.18l8.1-4.94c2.3-1.33,4-2.61,5.29-3.37s1.83-1.31,1.83-1.31l.46-.28a1.53,1.53,0,0,0,.38-2.09,1.49,1.49,0,0,0-1.58-.61s-2.91.67-8,1.87c-2.57.57-5.65,1.31-9.15,2.34s-7.51,2-11.73,3.48-8.86,2.93-13.68,4.68-9.93,3.5-15.11,5.67-10.54,4.21-15.91,6.57-10.88,4.63-16.31,7.1-10.8,5-16.08,7.54-10.46,5.1-15.48,7.53c-10,4.88-19.14,10-27,14.15s-14.22,8.08-18.73,10.68l-7,4.16a1.49,1.49,0,0,0-.53,2,1.51,1.51,0,0,0,1.43.73Z"/><path class="cls-3" d="M740.56,433s3.05.19,8.31.06,12.8-.51,21.73-1.44,19.28-2.44,30.28-4.55c5.48-1.13,11.16-2.28,16.88-3.7s11.49-2.88,17.26-4.52,11.5-3.32,17.11-5.21,11.11-3.73,16.39-5.74c2.63-1,5.23-2,7.74-3l7.34-3.14c4.76-2,9.17-4.29,13.22-6.33s7.67-4.16,10.83-6.06a77.73,77.73,0,0,0,8-5.34c4.28-3.21,6.58-5.14,6.58-5.14a1.53,1.53,0,0,0-1.49-2.64l-.18,0s-2.8,1-7.57,2.92a89.06,89.06,0,0,1-8.69,3.1L899,384.15c-1.88.63-4,1.12-6,1.79-4.18,1.33-8.71,2.74-13.6,4s-9.93,2.85-15.27,4.2c-2.64.73-5.35,1.45-8.07,2.19l-8.31,2.13c-5.6,1.44-11.29,2.89-17,4.33s-11.4,2.93-17,4.35-11.15,2.85-16.47,4.33c-10.68,2.87-20.61,5.81-29.08,8.48-4.24,1.34-8.14,2.62-11.57,3.83s-6.44,2.21-8.89,3.15c-4.92,1.81-7.7,3-7.7,3a1.56,1.56,0,0,0-.83,2.07A1.6,1.6,0,0,0,740.56,433Z"/><path class="cls-3" d="M730.9,454.27l2.2.37c1.4.25,3.45.66,6.11.94s5.84.7,9.53.95,7.78.47,12.29.62,9.38.17,14.52.07,10.55-.4,16.15-.68,11.35-1,17.18-1.66,11.81-1.26,17.67-2.4,11.8-1.94,17.58-3.12,11.43-2.35,16.9-3.72,10.66-2.86,15.64-4.21,9.64-2.77,13.9-4.3,8.14-3,11.57-4.31,6.36-2.62,8.82-3.59,4.3-2,5.61-2.51l1.95-.92.05,0a1.57,1.57,0,0,0,.76-2.07,1.61,1.61,0,0,0-1.57-.92l-2.12.21c-1.41.11-3.49.21-6,.51s-5.71.71-9.3,1.13-7.67.8-12,1.52-9.19,1-14.18,1.75-10.35,1.35-15.84,2.09c-5.43.9-11.11,1.59-16.89,2.28s-11.57,1.64-17.41,2.48c-2.9.44-5.82.79-8.74,1.17s-5.81.83-8.67,1.26c-5.76.81-11.39,1.66-16.85,2.6s-10.76,1.59-15.77,2.56-9.74,1.7-14.11,2.56-8.38,1.58-11.92,2.38-6.63,1.37-9.18,2c-5.09,1.18-8,1.93-8,1.93a1.57,1.57,0,0,0,.11,3.07Z"/><path class="cls-3" d="M723,470.71s.71.22,2.11.59,3.37,1,5.93,1.6c5.16,1.32,12.54,2.9,21.44,4.44,4.45.85,9.29,1.48,14.42,2.23s10.56,1.28,16.18,1.82,11.44,1,17.36,1.29l8.95.52c3,0,6,.09,9,.13,6,.12,12.08.16,18,0s11.8-.52,17.45-.74,11.15-1,16.32-1.48,10.06-1.47,14.57-2.11a57.16,57.16,0,0,0,6.43-1.27c2-.45,4-.9,5.77-1.32s3.51-.79,5.05-1.2,3-.87,4.25-1.28c2.56-.72,4.53-1.45,5.91-1.88s2-.68,2-.68a1.57,1.57,0,0,0,1-2,1.48,1.48,0,0,0-1.3-1l-.36-.05s-3.14-.32-8.38-.56l-4.33-.14c-1.58-.12-3.3-.29-5.11-.38-3.61-.18-7.69-.42-12.14-.68l-14.23-.91c-5.08-.32-10.37-.56-15.89-1s-11.19-.42-17-.9c-2.9-.27-5.8-.31-8.73-.43s-5.88-.28-8.83-.42c-11.75-.5-23.57-.84-34.69-.72-5.55.07-10.94.08-16.07.46s-10,.36-14.5.83-8.63.72-12.31,1.21l-5.17.63-4.41.7c-5.31.8-8.42,1.57-8.42,1.57l-.3.07a1.55,1.55,0,0,0-.06,3Z"/><path class="cls-3" d="M713,489.92l2.1.84c1.37.5,3.36,1.34,5.94,2.17,5.14,1.79,12.56,4.18,21.52,6.49s19.49,4.73,30.85,6.8c5.66,1.09,11.55,2,17.57,2.82s12.11,1.57,18.23,2.23c3.06.37,6.12.63,9.18.83s6.12.43,9.17.58c6,.34,12,.55,17.81.71s11.45-.2,16.77-.39,10.35-.55,15-.91,9-1.2,12.71-1.78,7-1.3,9.72-1.83c5.35-1.07,8.38-1.93,8.38-1.93a1.55,1.55,0,0,0,1.09-1.92,1.53,1.53,0,0,0-1.14-1.11l-.12,0s-3.11-.76-8.43-1.72c-2.66-.48-5.87-1.08-9.57-1.62s-7.79-1-12.32-1.72-9.41-1.5-14.58-2.23-10.58-1.27-16.23-1.95-11.47-1.49-17.4-2.12-11.93-1-18-1.75-12.08-1.15-18-1.59-11.85-.83-17.53-1.21-11.22-.63-16.46-.81-10.21-.39-14.83-.47c-9.16-.14-16.9,0-22.31.17-2.71,0-4.87.23-6.32.25l-2.25.18a1.58,1.58,0,0,0-.5,3Z"/><path class="cls-3" d="M703.44,508.12s.68.49,1.95,1.26,3.12,2,5.51,3.15,5.26,2.85,8.59,4.39,7.07,3.2,11.18,4.83c2,.79,4.17,1.58,6.39,2.42s4.53,1.57,6.88,2.39,4.78,1.49,7.25,2.3,5,1.4,7.6,2.13c5.17,1.35,10.51,2.62,16,3.8,2.7.65,5.46,1.06,8.24,1.59s5.5,1.07,8.29,1.48c5.56.92,11.13,1.71,16.57,2.48,5.57.56,10.9,1.36,16.2,1.74s10.31,1,15.23,1.18,9.44.56,13.8.63,8.22.29,11.86.23c1.78,0,3.47,0,5.08-.07s3,0,4.27,0c2.59.07,4.78-.15,6.22-.15l2.29-.16.78-.06a1.44,1.44,0,0,0,.42-2.78l-7.41-2.88-3.93-1.53c-1.43-.46-3-1-4.69-1.52-3.35-1-7.08-2.43-11.27-3.53s-8.65-2.52-13.48-3.68-9.87-2.51-15.14-3.59-10.73-2.41-16.3-3.45-11.19-2.21-16.87-3.18c-11.33-2.06-22.72-3.82-33.38-5.4s-20.65-2.88-29.24-3.95c-17.1-2.09-28.57-3.16-28.57-3.16a1.43,1.43,0,0,0-1,2.59Z"/><path class="cls-3" d="M697.41,517.29s1.46,2.07,4.35,5.33a146.17,146.17,0,0,0,12.57,12.73c2.72,2.47,5.73,5.1,9,7.71s6.78,5.37,10.54,8,7.66,5.31,11.76,7.86,8.36,4.94,12.59,7.4,8.68,4.62,13,6.77,8.74,4,13,5.86,8.46,3.37,12.46,4.74,7.92,2.5,11.47,3.54c3.63.89,7,1.59,9.94,2.25s5.62.88,7.75,1.23c4.32.52,6.78.67,6.78.67a1.59,1.59,0,0,0,1-2.92l-.11-.05s-2.14-1.28-5.85-3.28c-1.87-1-4.15-2.09-6.7-3.59s-5.39-3.07-8.53-4.7l-21.09-12.17c-3.81-2.24-7.74-4.63-11.79-6.93-4-2.48-8.12-4.78-12.15-7.25s-8.17-4.86-12.2-7.24c-2-1.2-4-2.36-6-3.5s-4-2.32-5.9-3.38c-3.91-2.2-7.69-4.28-11.33-6.21s-7.09-3.77-10.34-5.34c-6.48-3.25-12-5.8-16-7.45s-6.33-2.55-6.34-2.54a1.63,1.63,0,0,0-2.06,1A1.73,1.73,0,0,0,697.41,517.29Z"/><path class="cls-3" d="M693.13,523.4a44.31,44.31,0,0,0,.9,4.79,105.77,105.77,0,0,0,3.64,12.09c.89,2.46,1.94,5.07,3.15,7.79s2.58,5.52,4.06,8.43,3.15,5.77,4.89,8.7,3.62,5.82,5.67,8.63,4,5.61,6.21,8.25,4.28,5.27,6.55,7.65,4.37,4.67,6.61,6.68,4.25,4,6.36,5.58,4,3.06,5.69,4.35,3.38,2.15,4.66,3c2.62,1.59,4.19,2.4,4.19,2.4a1.59,1.59,0,0,0,2.15-.7,1.53,1.53,0,0,0,0-1.51l0-.09s-.89-1.53-2.54-4c-.86-1.22-1.84-2.74-3.06-4.39s-2.37-3.67-3.84-5.7-2.88-4.35-4.55-6.67-3.28-4.82-5-7.37c-3.49-5.14-7.2-10.58-10.92-16s-7.44-10.93-11-16c-1.81-2.54-3.59-5-5.25-7.32s-3.33-4.51-4.85-6.53-3-3.87-4.28-5.46-2.45-3-3.38-4.19c-1.94-2.32-3.12-3.63-3.12-3.63a1.65,1.65,0,0,0-2.3-.09A1.62,1.62,0,0,0,693.13,523.4Z"/></g></g></g></svg>