<svg xmlns="http://www.w3.org/2000/svg" viewBox="0 0 453.08 289.99"><defs><style>.cls-1{isolation:isolate;}.cls-14,.cls-2{fill:none;stroke:#282323;stroke-linecap:round;stroke-linejoin:round;}.cls-2{stroke-width:0.8px;}.cls-15,.cls-3,.cls-8,.cls-9{fill:#fff;}.cls-11,.cls-13,.cls-4{fill:#282323;}.cls-5,.cls-6{fill:#f42d0c;}.cls-6{opacity:0.2;}.cls-7{fill:#ebe2e2;}.cls-8{opacity:0.6;}.cls-15,.cls-9{opacity:0.4;}.cls-10{fill:#ff9a8d;}.cls-11{font-size:18px;}.cls-11,.cls-13{font-family:MyriadPro-Regular, Myriad Pro;}.cls-12{letter-spacing:0em;}.cls-13{font-size:10px;}.cls-14{stroke-width:0.6px;}.cls-15{mix-blend-mode:color-dodge;}</style></defs><g class="cls-1"><g id="Layer_2" data-name="Layer 2"><g id="Layer_1-2" data-name="Layer 1"><polyline class="cls-2" points="257.76 234.99 236.99 234.99 272.68 54.99 293.45 54.99"/><polyline class="cls-2" points="431.91 54.99 452.68 54.99 416.99 234.99 396.22 234.99"/><polygon class="cls-3" points="405.88 221.16 253.58 221.16 283.78 68.85 436.08 68.85 405.88 221.16"/><path class="cls-4" d="M294.88,82.69,288,117.3h34.61l6.86-34.61Zm22.2,27.69H296.31l4.12-20.77H321.2Z"/><polygon class="cls-4" points="311.53 103.46 304.61 103.46 305.98 96.53 312.9 96.53 311.53 103.46"/><path class="cls-4" d="M277,172.69l-6.86,34.62h34.61l6.87-34.62Zm22.2,27.7H278.46l4.12-20.77h20.77Z"/><polygon class="cls-4" points="293.68 193.46 286.76 193.46 288.13 186.54 295.06 186.54 293.68 193.46"/><path class="cls-4" d="M331,127.69l-6.86,34.62h34.62l6.86-34.62Zm22.21,27.7H332.39l4.11-20.77h20.77Z"/><polygon class="cls-4" points="347.61 148.46 340.68 148.46 342.06 141.54 348.98 141.54 347.61 148.46"/><path class="cls-4" d="M368.4,165.77l-6.86,34.62h34.62L403,165.77Zm22.21,27.69H369.84L374,172.69h20.77Z"/><polygon class="cls-4" points="385.06 186.54 378.13 186.54 379.5 179.62 386.43 179.62 385.06 186.54"/><polygon class="cls-4" points="318.63 207.31 311.71 207.31 313.08 200.39 320 200.39 318.63 207.31"/><polygon class="cls-4" points="333.85 200.39 326.93 200.39 328.3 193.46 335.22 193.46 333.85 200.39"/><polygon class="cls-4" points="336.59 186.54 329.67 186.54 331.04 179.62 337.97 179.62 336.59 186.54"/><polygon class="cls-4" points="328.3 193.46 321.38 193.46 322.75 186.54 329.67 186.54 328.3 193.46"/><polygon class="cls-4" points="314.45 193.46 307.53 193.46 308.9 186.54 315.82 186.54 314.45 193.46"/><polygon class="cls-4" points="325.49 172.69 318.57 172.69 319.94 165.77 326.87 165.77 325.49 172.69"/><polygon class="cls-4" points="346.26 172.69 339.34 172.69 340.71 165.77 347.63 165.77 346.26 172.69"/><polygon class="cls-4" points="351.81 179.62 344.89 179.62 346.26 172.69 353.19 172.69 351.81 179.62"/><polygon class="cls-4" points="355.99 193.46 349.07 193.46 350.44 186.54 357.36 186.54 355.99 193.46"/><polygon class="cls-4" points="350.44 186.54 343.52 186.54 344.89 179.62 351.81 179.62 350.44 186.54"/><polygon class="cls-4" points="347.69 200.39 340.77 200.39 342.14 193.46 349.07 193.46 347.69 200.39"/><polygon class="cls-4" points="346.32 207.31 339.4 207.31 340.77 200.39 347.69 200.39 346.32 207.31"/><polygon class="cls-4" points="313.02 165.77 306.1 165.77 307.47 158.85 314.39 158.85 313.02 165.77"/><polygon class="cls-4" points="369.78 158.85 362.85 158.85 364.23 151.92 371.15 151.92 369.78 158.85"/><polygon class="cls-4" points="376.7 158.85 369.78 158.85 371.15 151.92 378.07 151.92 376.7 158.85"/><polygon class="cls-4" points="383.62 158.85 376.7 158.85 378.07 151.92 385 151.92 383.62 158.85"/><polygon class="cls-4" points="383.62 158.85 376.7 158.85 378.07 151.92 385 151.92 383.62 158.85"/><polygon class="cls-4" points="304.67 138.08 297.74 138.08 299.11 131.16 306.04 131.16 304.67 138.08"/><polygon class="cls-4" points="312.96 131.16 306.04 131.16 307.41 124.23 314.33 124.23 312.96 131.16"/><polygon class="cls-4" points="411.2 89.61 335.04 89.61 336.42 82.69 412.57 82.69 411.2 89.61"/><polygon class="cls-4" points="356.53 103.46 332.3 103.46 333.67 96.53 357.9 96.53 356.53 103.46"/><polygon class="cls-4" points="378.01 117.3 329.55 117.3 330.93 110.38 379.39 110.38 378.01 117.3"/><polygon class="cls-4" points="322.69 151.92 315.76 151.92 317.14 145 324.06 145 322.69 151.92"/><polygon class="cls-4" points="328.18 124.23 321.26 124.23 322.63 117.31 329.55 117.31 328.18 124.23"/><polygon class="cls-4" points="325.43 138.08 318.51 138.08 319.88 131.16 326.81 131.16 325.43 138.08"/><polygon class="cls-4" points="290.88 172.69 283.95 172.69 285.33 165.77 292.25 165.77 290.88 172.69"/><polygon class="cls-4" points="314.39 158.85 286.7 158.85 288.07 151.92 315.76 151.92 314.39 158.85"/><polygon class="cls-4" points="317.14 145 289.45 145 290.82 138.08 318.51 138.08 317.14 145"/><polygon class="cls-4" points="285.33 165.77 278.4 165.77 286.64 124.23 293.56 124.23 285.33 165.77"/><polygon class="cls-4" points="360.17 207.31 353.25 207.31 354.62 200.39 361.54 200.39 360.17 207.31"/><polygon class="cls-4" points="380.94 207.31 374.01 207.31 375.39 200.39 382.31 200.39 380.94 207.31"/><polygon class="cls-4" points="394.78 207.31 387.86 207.31 389.23 200.39 396.16 200.39 394.78 207.31"/><polygon class="cls-4" points="404.39 158.85 397.47 158.85 398.84 151.92 405.76 151.92 404.39 158.85"/><polygon class="cls-4" points="396.1 165.77 389.17 165.77 390.55 158.85 397.47 158.85 396.1 165.77"/><polygon class="cls-4" points="391.92 151.92 385 151.92 386.37 145 393.29 145 391.92 151.92"/><polygon class="cls-4" points="386.37 145 379.45 145 380.82 138.08 387.74 138.08 386.37 145"/><polygon class="cls-4" points="380.82 138.08 373.89 138.08 375.27 131.16 382.19 131.16 380.82 138.08"/><polygon class="cls-4" points="375.27 131.16 368.35 131.16 369.72 124.23 376.64 124.23 375.27 131.16"/><polygon class="cls-4" points="383.56 124.23 376.64 124.23 378.01 117.31 384.94 117.31 383.56 124.23"/><polygon class="cls-4" points="380.76 103.46 373.84 103.46 375.21 96.54 382.13 96.54 380.76 103.46"/><polygon class="cls-4" points="366.91 103.46 359.99 103.46 361.36 96.54 368.29 96.54 366.91 103.46"/><polygon class="cls-4" points="372.46 110.39 365.54 110.39 366.91 103.46 373.84 103.46 372.46 110.39"/><polygon class="cls-4" points="375.21 96.54 368.29 96.54 369.66 89.62 376.58 89.62 375.21 96.54"/><polygon class="cls-4" points="387.68 103.46 380.76 103.46 382.13 96.54 389.06 96.54 387.68 103.46"/><polygon class="cls-4" points="393.23 110.39 386.31 110.39 387.68 103.46 394.61 103.46 393.23 110.39"/><polygon class="cls-4" points="398.78 117.31 391.86 117.31 393.23 110.39 400.16 110.39 398.78 117.31"/><polygon class="cls-4" points="402.9 96.54 395.98 96.54 397.35 89.62 404.27 89.62 402.9 96.54"/><polygon class="cls-4" points="396.04 131.16 389.11 131.16 390.49 124.23 397.41 124.23 396.04 131.16"/><polygon class="cls-4" points="409.88 131.16 402.96 131.16 412.57 82.69 419.49 82.69 409.88 131.16"/><polygon class="cls-5" points="427.72 145.95 261.56 145.95 261.84 144.57 427.99 144.57 427.72 145.95"/><polygon class="cls-6" points="212.96 22.67 427.72 145.95 261.56 145.95 207.17 51.86 212.96 22.67"/><path class="cls-4" d="M150,290H8.21c-5.52,0-9.11-4.48-8-10L53.73,10a12.81,12.81,0,0,1,12-10H207.45c5.53,0,9.12,4.48,8,10L161.94,280A12.81,12.81,0,0,1,150,290Z"/><path class="cls-7" d="M209.37,15.11,159.18,268.23a6.46,6.46,0,0,1-6.06,5.06H11.66a4,4,0,0,1-4.06-5.06L57.79,15.11A6.49,6.49,0,0,1,63.86,10H205.32A4,4,0,0,1,209.37,15.11Z"/><path class="cls-8" d="M209.38,15.11l-22.11,111.5a22.22,22.22,0,0,0-1.68,2.75c-3,5.88-3.93,13-9.24,17.27-6.26,5-15.15,3.07-21.67,7.75-7.23,5.19-7.85,15.71-14.58,21.58a24.1,24.1,0,0,1-8.66,4.44c-4.14-2.35-8.59-4.51-11.16-8.32-7.25-10.78,3.53-29.27-2.75-40.73-5.61-10.24-22.61-10.49-26.58-21.67C88.51,102.83,92,94,89.88,87a14.64,14.64,0,0,0-2.17-4.41c5.16-4,10.27-8,14.08-13.21,6.36-8.63,8.84-19.91,17.48-26.37,6.3-4.72,14.46-5.63,20.69-10.47,5.52-4.3,8.47-10.84,12.4-16.54a32.77,32.77,0,0,1,5.26-6h47.7A4,4,0,0,1,209.38,15.11Z"/><path class="cls-9" d="M166,234.1l-6.77,34.13a6.48,6.48,0,0,1-6.07,5.06H11.66a4,4,0,0,1-4-5.06L57,19.09c4.26,4.85,6.34,12.09,7.23,19C65.62,48.76,65.61,60.48,72,68.34c5.51,6.74,15.33,10,17.87,18.65C92,94,88.51,102.83,91,109.68c4,11.18,21,11.43,26.58,21.67,6.28,11.46-4.5,30,2.75,40.73,5.07,7.54,17.54,8.6,20.37,17.47,2.3,7.17-2.94,16.41-.92,23.71,2.21,8,11.77,10.3,18.77,14.45A28.51,28.51,0,0,1,166,234.1Z"/><path class="cls-10" d="M136.06,204.36h-80c-8.28,0-13.67-6.72-12-15h0c1.64-8.29,9.69-15,18-15h80c8.29,0,13.67,6.71,12,15h0C152.39,197.64,144.35,204.36,136.06,204.36Z"/><text class="cls-11" transform="matrix(1, 0, -0.19, 0.98, 72.46, 195.02)">S<tspan class="cls-12" x="8.87" y="0">C</tspan><tspan x="19.39" y="0">AN</tspan></text><path class="cls-10" d="M139.75,230.49H42a4.9,4.9,0,0,1-4.91-6.13h0a7.87,7.87,0,0,1,7.34-6.13h97.74a4.9,4.9,0,0,1,4.92,6.13h0A7.88,7.88,0,0,1,139.75,230.49Z"/><path class="cls-3" d="M112.94,230.49H42a4.9,4.9,0,0,1-4.91-6.13h0a7.87,7.87,0,0,1,7.34-6.13h70.93a4.9,4.9,0,0,1,4.91,6.13h0A7.87,7.87,0,0,1,112.94,230.49Z"/><text class="cls-13" transform="matrix(1, 0, -0.19, 0.98, 80.96, 227.99)">60%</text><polyline class="cls-14" points="54.98 159.36 39.98 159.36 65.76 29.36 80.76 29.36"/><polyline class="cls-14" points="180.76 29.36 195.76 29.36 169.99 159.36 154.99 159.36"/><polygon class="cls-3" points="161.97 149.36 51.97 149.36 73.78 39.36 183.78 39.36 161.97 149.36"/><path class="cls-4" d="M81.8,49.36l-5,25h25l5-25Zm16,20h-15l3-15h15Z"/><polygon class="cls-4" points="93.82 64.36 88.82 64.36 89.81 59.36 94.81 59.36 93.82 64.36"/><path class="cls-4" d="M68.91,114.36l-5,25H89l5-25Zm16,20h-15l3-15h15Z"/><polygon class="cls-4" points="80.93 129.36 75.93 129.36 76.92 124.36 81.92 124.36 80.93 129.36"/><path class="cls-4" d="M107.85,81.86l-5,25h25l5-25Zm16,20h-15l3-15h15Z"/><polygon class="cls-4" points="119.88 96.86 114.88 96.86 115.87 91.86 120.87 91.86 119.88 96.86"/><path class="cls-4" d="M134.9,109.36l-5,25h25l5-25Zm16,20h-15l3-15h15Z"/><polygon class="cls-4" points="146.92 124.36 141.92 124.36 142.92 119.36 147.92 119.36 146.92 124.36"/><polygon class="cls-4" points="98.95 139.36 93.95 139.36 94.94 134.36 99.94 134.36 98.95 139.36"/><polygon class="cls-4" points="109.94 134.36 104.94 134.36 105.93 129.36 110.93 129.36 109.94 134.36"/><polygon class="cls-4" points="111.92 124.36 106.92 124.36 107.92 119.36 112.92 119.36 111.92 124.36"/><polygon class="cls-4" points="105.93 129.36 100.93 129.36 101.92 124.36 106.92 124.36 105.93 129.36"/><polygon class="cls-4" points="95.93 129.36 90.93 129.36 91.92 124.36 96.92 124.36 95.93 129.36"/><polygon class="cls-4" points="103.91 114.36 98.91 114.36 99.9 109.36 104.9 109.36 103.91 114.36"/><polygon class="cls-4" points="118.91 114.36 113.91 114.36 114.9 109.36 119.9 109.36 118.91 114.36"/><polygon class="cls-4" points="122.92 119.36 117.92 119.36 118.91 114.36 123.91 114.36 122.92 119.36"/><polygon class="cls-4" points="125.93 129.36 120.93 129.36 121.92 124.36 126.92 124.36 125.93 129.36"/><polygon class="cls-4" points="121.92 124.36 116.92 124.36 117.92 119.36 122.92 119.36 121.92 124.36"/><polygon class="cls-4" points="119.94 134.36 114.94 134.36 115.93 129.36 120.93 129.36 119.94 134.36"/><polygon class="cls-4" points="118.95 139.36 113.95 139.36 114.94 134.36 119.94 134.36 118.95 139.36"/><polygon class="cls-4" points="94.9 109.36 89.9 109.36 90.89 104.36 95.89 104.36 94.9 109.36"/><polygon class="cls-4" points="135.89 104.36 130.89 104.36 131.88 99.36 136.88 99.36 135.89 104.36"/><polygon class="cls-4" points="140.89 104.36 135.89 104.36 136.88 99.36 141.88 99.36 140.89 104.36"/><polygon class="cls-4" points="145.89 104.36 140.89 104.36 141.88 99.36 146.88 99.36 145.89 104.36"/><polygon class="cls-4" points="145.89 104.36 140.89 104.36 141.88 99.36 146.88 99.36 145.89 104.36"/><polygon class="cls-4" points="88.86 89.36 83.86 89.36 84.86 84.36 89.86 84.36 88.86 89.36"/><polygon class="cls-4" points="94.86 84.36 89.86 84.36 90.85 79.36 95.85 79.36 94.86 84.36"/><polygon class="cls-4" points="165.81 54.36 110.81 54.36 111.8 49.36 166.8 49.36 165.81 54.36"/><polygon class="cls-4" points="126.32 64.36 108.82 64.36 109.81 59.36 127.31 59.36 126.32 64.36"/><polygon class="cls-4" points="141.84 74.36 106.84 74.36 107.83 69.36 142.83 69.36 141.84 74.36"/><polygon class="cls-4" points="101.88 99.36 96.88 99.36 97.87 94.36 102.87 94.36 101.88 99.36"/><polygon class="cls-4" points="105.85 79.36 100.85 79.36 101.84 74.36 106.84 74.36 105.85 79.36"/><polygon class="cls-4" points="103.86 89.36 98.86 89.36 99.86 84.36 104.86 84.36 103.86 89.36"/><polygon class="cls-4" points="78.91 114.36 73.91 114.36 74.9 109.36 79.9 109.36 78.91 114.36"/><polygon class="cls-4" points="95.89 104.36 75.89 104.36 76.88 99.36 96.88 99.36 95.89 104.36"/><polygon class="cls-4" points="97.87 94.36 77.87 94.36 78.86 89.36 98.86 89.36 97.87 94.36"/><polygon class="cls-4" points="74.9 109.36 69.9 109.36 75.85 79.36 80.85 79.36 74.9 109.36"/><polygon class="cls-4" points="128.95 139.36 123.95 139.36 124.94 134.36 129.94 134.36 128.95 139.36"/><polygon class="cls-4" points="143.95 139.36 138.95 139.36 139.94 134.36 144.94 134.36 143.95 139.36"/><polygon class="cls-4" points="153.95 139.36 148.95 139.36 149.94 134.36 154.94 134.36 153.95 139.36"/><polygon class="cls-4" points="160.89 104.36 155.89 104.36 156.88 99.36 161.88 99.36 160.89 104.36"/><polygon class="cls-4" points="154.9 109.36 149.9 109.36 150.89 104.36 155.89 104.36 154.9 109.36"/><polygon class="cls-4" points="151.88 99.36 146.88 99.36 147.87 94.36 152.87 94.36 151.88 99.36"/><polygon class="cls-4" points="147.87 94.36 142.87 94.36 143.86 89.36 148.86 89.36 147.87 94.36"/><polygon class="cls-4" points="143.86 89.36 138.86 89.36 139.86 84.36 144.86 84.36 143.86 89.36"/><polygon class="cls-4" points="139.86 84.36 134.86 84.36 135.85 79.36 140.85 79.36 139.86 84.36"/><polygon class="cls-4" points="145.85 79.36 140.85 79.36 141.84 74.36 146.84 74.36 145.85 79.36"/><polygon class="cls-4" points="143.82 64.36 138.82 64.36 139.81 59.36 144.81 59.36 143.82 64.36"/><polygon class="cls-4" points="133.82 64.36 128.82 64.36 129.81 59.36 134.81 59.36 133.82 64.36"/><polygon class="cls-4" points="137.83 69.36 132.83 69.36 133.82 64.36 138.82 64.36 137.83 69.36"/><polygon class="cls-4" points="139.81 59.36 134.81 59.36 135.8 54.36 140.8 54.36 139.81 59.36"/><polygon class="cls-4" points="148.82 64.36 143.82 64.36 144.81 59.36 149.81 59.36 148.82 64.36"/><polygon class="cls-4" points="152.83 69.36 147.83 69.36 148.82 64.36 153.82 64.36 152.83 69.36"/><polygon class="cls-4" points="156.84 74.36 151.84 74.36 152.83 69.36 157.83 69.36 156.84 74.36"/><polygon class="cls-4" points="159.81 59.36 154.81 59.36 155.8 54.36 160.8 54.36 159.81 59.36"/><polygon class="cls-4" points="154.86 84.36 149.86 84.36 150.85 79.36 155.85 79.36 154.86 84.36"/><polygon class="cls-4" points="164.86 84.36 159.86 84.36 166.8 49.36 171.8 49.36 164.86 84.36"/><polygon class="cls-5" points="177.74 95.05 57.74 95.05 57.94 94.05 177.94 94.05 177.74 95.05"/><path class="cls-15" d="M43.74,273.29H11.66a4,4,0,0,1-4.06-5.06L57.79,15.11A6.49,6.49,0,0,1,63.86,10H198.73C134.81,44.59,40,149.36,43.74,273.29Z"/></g></g></g></svg>