<svg xmlns="http://www.w3.org/2000/svg" viewBox="0 0 1662.63 1080"><defs><style>.cls-1{fill:#f15a24;}.cls-2{opacity:0.4;}.cls-3{fill:#fff;}</style></defs><g id="Layer_2" data-name="Layer 2"><g id="Layer_1-2" data-name="Layer 1"><path class="cls-1" d="M1662.63,29.12V1050.88l-.55,29.12H712.68c-25.29-33.06-49.41-67-70.44-103.39-56.82-98.38-88.85-223.82-46.68-330.42,31.09-78.59,98-135.05,170-171s150.14-54.69,226.08-79.66c56.54-18.56,118-46.71,140.4-105.59C1166.73,198.62,1086.26,95,1110.83,0h522.68l28.57.25Z"/><g class="cls-2"><path class="cls-3" d="M1013.63,784.5l-2.65.12c-1.78.07-4.3.14-7.52.19-6.45.09-15.63.16-26.63-.18-5.51-.09-11.46-.41-17.75-.68s-12.91-.8-19.77-1.28c-6.83-.66-13.92-1.11-21.09-2q-5.37-.58-10.82-1.21c-3.62-.41-7.24-1-10.87-1.45s-7.26-1-10.85-1.53l-10.75-1.8c-7.1-1.12-14.07-2.55-20.79-3.89S841,768,834.83,766.51c-3.06-.72-6-1.41-8.92-2.1l-8.25-2.25c-5.3-1.48-10.14-2.76-14.42-4s-8-2.54-11-3.54l-9.56-3.07a1.14,1.14,0,0,1,.65-2.19l.06,0,9.61,2.77,11,3.18c4.3,1.11,9.18,2.24,14.46,3.54l8.28,2,8.92,1.82c6.1,1.25,12.55,2.6,19.3,3.64s13.64,2.36,20.73,3.23L886.43,771c3.59.45,7.2.79,10.81,1.2s7.22.8,10.83,1.11l10.74.87c7.12.67,14.17.89,21,1.33,6.8.28,13.38.53,19.6.65s12.1.2,17.57.12c10.86,0,19.9-.38,26.22-.67,3.16-.14,5.62-.3,7.27-.42L1013,775h.08a4.75,4.75,0,0,1,.69,9.48A.38.38,0,0,1,1013.63,784.5Z"/><path class="cls-3" d="M894.6,774.14a11.18,11.18,0,0,1,.33-1.09c.3-.66.5-1.74.94-2.9s.81-2.62,1.42-4.24,1.2-3.46,2-5.31,1.47-4,2.38-6.09c.42-1.06,1-2.07,1.41-3.17s.9-2.23,1.42-3.36c.95-2.26,2.08-4.49,3.26-6.74.57-1.13,1.08-2.32,1.63-3.49l1.75-3.44c1.17-2.31,2.57-4.48,3.79-6.72s2.48-4.46,3.77-6.56c.71-1,1.38-2,2-3l2.1-2.88c.75-.91,1.29-1.89,1.93-2.78s1.3-1.78,1.9-2.6,1.29-1.61,1.88-2.37,1.28-1.44,1.87-2.1a45.45,45.45,0,0,1,3.22-3.39c.89-1,1.78-1.65,2.31-2.14s.9-.75.9-.75l.52-.39a1.07,1.07,0,0,1,1.48.23,1,1,0,0,1,.17.84s-.27,1.35-.86,3.69-1.39,5.71-2.62,9.69c-.61,2-1.17,4.17-2,6.42s-1.76,4.57-2.82,6.93-2.09,4.89-3.15,7.41a40.92,40.92,0,0,1-1.82,3.7c-.65,1.24-1.28,2.47-2,3.67-1.38,2.43-2.75,4.85-4.11,7.22l-4.46,6.7a54.14,54.14,0,0,1-4.52,6l-4.31,5.19c-1.41,1.57-2.8,2.88-4,4.1s-2.31,2.21-3.24,3-1.7,1.45-2.19,1.81-.8.6-.8.6a1.08,1.08,0,0,1-1.69-1.14Z"/><path class="cls-3" d="M887.13,773.78s-.16-.51-.34-1.39-.53-2.21-.78-3.82-.55-3.59-.8-5.83-.46-4.71-.56-7.38-.13-5.55,0-8.57.29-6.15.55-9.37.72-6.53,1.2-9.86,1.1-6.7,1.65-10.07,1.23-6.71,1.84-10,1.23-6.53,1.93-9.68c.38-1.58.63-3.11.94-4.61s.65-3,1-4.43c.74-2.89,1.22-5.58,1.8-8.14s1.06-4.86,1.5-7c.19-1,.53-2,.72-2.95s.31-1.76.47-2.5c.63-3.08,1.14-4.94,1.14-4.94l.12-.45a1.08,1.08,0,0,1,1.32-.77,1.14,1.14,0,0,1,.8.83s.37,1.74,1,4.79c.14.78.31,1.62.49,2.54s.23,1.94.38,3c.19,2.15.65,4.6.73,7.26s.26,5.56.23,8.61,0,6.29-.15,9.61-.41,6.75-.77,10.22-.7,7-1.16,10.5-.86,7-1.46,10.45-1.2,6.8-1.83,10.05-1.39,6.36-2.07,9.31-1.51,5.71-2.2,8.26-1.27,4.91-2,7-1.27,3.83-1.76,5.29-.9,2.61-1.21,3.39-.45,1.19-.45,1.19a1.1,1.1,0,0,1-1.41.62,1.08,1.08,0,0,1-.65-.67Z"/><path class="cls-3" d="M879.2,773.26s-1-1.84-2.55-5.18-3.57-8.14-5.64-14a208.11,208.11,0,0,1-6.15-20.41c-1-3.77-1.81-7.72-2.65-11.72s-1.48-8.14-2.13-12.25-1.1-8.26-1.54-12.36-.74-8.11-.85-12-.31-7.7-.2-11.3.23-7,.42-10.15.62-6,.89-8.55.8-4.73,1.08-6.53c.71-3.62,1.21-5.64,1.21-5.64a1.15,1.15,0,0,1,1.38-.85,1.13,1.13,0,0,1,.87,1v.07s.29,2.07.63,5.66c.17,1.79.31,3.94.6,6.42s.67,5.27.91,8.3.89,6.3,1.24,9.76,1,7.1,1.52,10.85,1.19,7.66,1.73,11.6,1.26,8,1.88,12,1.36,8,2,12,1.28,7.84,1.9,11.59l1.7,10.91c.5,3.48,1,6.76,1.42,9.81s.84,5.85,1.13,8.36.58,4.67.77,6.47c.41,3.6.58,5.69.58,5.69a1.17,1.17,0,0,1-2.19.65Z"/><path class="cls-3" d="M862.09,770.65l-1-1.13c-.67-.74-1.62-1.86-2.72-3.33s-2.34-3.3-3.83-5.39c-1.31-2.15-2.87-4.56-4.33-7.29s-3.12-5.67-4.44-8.94l-2.2-5c-.73-1.7-1.29-3.51-2-5.33s-1.34-3.64-1.94-5.55-1.13-3.82-1.7-5.77c-1.14-3.9-2.1-7.92-3.16-11.9-.91-4-1.68-8.11-2.42-12.11s-1.33-8-1.67-11.87c-.17-1.94-.33-3.85-.51-5.71a54.18,54.18,0,0,1-.33-5.47c0-3.6-.15-7-.05-10.07s.42-6,.61-8.52.73-4.7,1-6.49l1.13-5.6a1.15,1.15,0,0,1,1.36-.89,1.19,1.19,0,0,1,.93,1l0,0s.21,2,.58,5.52c.19,1.76.18,3.87.59,6.29s.75,5.11,1.18,8.08,1.09,6.13,1.68,9.49,1.45,6.89,2.19,10.53c.36,1.82.89,3.67,1.34,5.52s.89,3.75,1.35,5.67c1,3.78,2,7.63,3.08,11.46s2.14,7.68,3.34,11.41,2.3,7.44,3.39,11c2.23,7.17,4.19,13.89,5.81,19.7s2.86,10.74,3.67,14.2c.4,1.75.71,3.11.88,4.06s.31,1.45.31,1.45a1.19,1.19,0,0,1-.91,1.39,1.18,1.18,0,0,1-1.11-.38Z"/><path class="cls-3" d="M844.21,767.41a10.4,10.4,0,0,1-1.19-.86c-.76-.58-1.88-1.43-3.17-2.61a62.31,62.31,0,0,1-4.53-4.3c-1.77-1.69-3.44-3.75-5.4-6q-1.42-1.7-2.85-3.57c-1-1.24-1.93-2.55-2.88-3.93-1.9-2.73-3.84-5.67-5.62-8.84a106.88,106.88,0,0,1-5.21-9.93c-1.74-3.41-3.05-7.1-4.56-10.69-1.36-3.64-2.63-7.34-3.78-11s-2-7.38-2.79-11c-.62-3.68-1.29-7.17-1.76-10.54s-.53-6.61-.71-9.55c0-3,.17-5.76.22-8.17a21,21,0,0,1,.34-3.37c.16-1,.32-2,.44-2.86.61-3.45,1.08-5.36,1.08-5.36l.09-.26a1.11,1.11,0,0,1,1.36-.81,1.13,1.13,0,0,1,.84,1s.14,1.85.41,5.1a54.88,54.88,0,0,0,.59,5.86c.36,2.26.77,4.8,1.21,7.58.63,2.74,1.28,5.71,2,8.86s1.8,6.37,2.74,9.77,2.28,6.79,3.44,10.29c1.34,3.45,2.64,7,4.06,10.46s2.85,7,4.44,10.32,3.05,6.68,4.63,9.83,3.1,6.21,4.59,9.08,3,5.55,4.32,8c5.49,9.87,9.56,16.18,9.56,16.18a1.08,1.08,0,0,1-.32,1.49,1.12,1.12,0,0,1-1.16,0Z"/><path class="cls-3" d="M823,762.8a36.87,36.87,0,0,1-4.14-2.9,51.77,51.77,0,0,1-4.48-3.71c-1.62-1.53-3.59-3.16-5.44-5.15s-3.94-4.11-5.91-6.51-4.14-4.9-6.1-7.66l-6.08-8.53c-1.81-3.05-3.62-6.15-5.46-9.25-.91-1.56-1.82-3.12-2.66-4.7a52.26,52.26,0,0,1-2.45-4.76c-1.51-3.22-2.86-6.44-4.13-9.57-.62-1.55-1.27-3.08-1.89-4.59s-1.1-3-1.63-4.47c-1-2.94-1.76-5.77-2.41-8.43-.33-1.3-.65-2.58-1-3.78s-.5-2.36-.71-3.45c-.5-2.15-.8-4.07-1-5.66-.52-3.15-.63-5-.63-5l0-.34a1.12,1.12,0,0,1,2.14-.53s2.82,6.47,7.06,16.17c1.06,2.41,2.18,5.06,3.44,7.81s2.77,5.57,4.25,8.53,3,6,4.55,9.12,3.37,6.13,5,9.22l5.15,9.18c1.84,2.94,3.64,5.83,5.38,8.64s3.4,5.53,5.17,8,3.34,4.84,4.84,7,3,4,4.3,5.77,2.45,3.18,3.42,4.35c1.9,2.37,3.11,3.67,3.11,3.67a1.11,1.11,0,0,1-.06,1.57,1.09,1.09,0,0,1-1.28.15Z"/><path class="cls-3" d="M809.1,759.35a52.09,52.09,0,0,1-4.83-2.2c-1.49-.79-3.38-1.67-5.4-2.86s-4.3-2.49-6.67-4.07a91.9,91.9,0,0,1-7.62-5.21c-2.61-2-5.47-3.94-8.2-6.21s-5.49-4.73-8.3-7.21-5.58-5.09-8.18-7.87-5.2-5.58-7.69-8.39c-1.23-1.4-2.47-2.79-3.65-4.21s-2.16-3-3.24-4.39l-3.11-4.27c-1-1.45-1.92-2.84-2.82-4.2a60.36,60.36,0,0,1-4.81-8c-.68-1.28-1.31-2.5-1.91-3.69s-1.09-2.34-1.57-3.38c-1-2.14-1.81-4-2.45-5.62-1.29-3.11-1.86-5-1.86-5l-.09-.29a1.13,1.13,0,0,1,.75-1.39,1.08,1.08,0,0,1,1.22.42s4.39,6,10.94,15.06c1.55,2.32,3.61,4.57,5.63,7s4.21,5.06,6.48,7.74c1.12,1.33,2.22,2.71,3.42,4.06s2.46,2.63,3.74,4c2.48,2.68,5,5.41,7.57,8.13s5.27,5.27,7.85,7.89,5.19,5.12,7.7,7.53,5.07,4.64,7.45,6.8,4.6,4.2,6.74,6l5.78,5c1.75,1.45,3.28,2.72,4.53,3.74,2.5,2.08,4,3.21,4,3.21a1.1,1.1,0,0,1-1,1.92Z"/><path class="cls-3" d="M798.8,756.54s-1.91-.45-5.15-1.45-7.85-2.53-13.27-4.64c-2.7-1.07-5.66-2.2-8.68-3.57s-6.28-2.75-9.53-4.36-6.63-3.27-10-5-6.71-3.79-10.1-5.68c-3.3-2.06-6.65-4-9.83-6.15s-6.3-4.24-9.21-6.46-5.77-4.26-8.32-6.47-5-4.13-7.13-6.19-4.05-3.87-5.74-5.55-3-3.31-4.14-4.57c-2.24-2.57-3.47-4.08-3.47-4.08a1.15,1.15,0,0,1,1.54-1.67l.06,0s1.62,1.08,4.34,3c1.37,1,3,2.2,4.86,3.53s4.1,2.78,6.42,4.42,5,3.25,7.65,5.11,5.67,3.57,8.63,5.56,6.16,3.75,9.3,5.78,6.45,3.87,9.68,5.85l9.77,5.77c3.3,1.79,6.39,3.78,9.55,5.48,6.21,3.53,12,6.84,17,9.66s9.15,5.24,12.08,6.89l4.56,2.67a1.15,1.15,0,0,1,.42,1.57,1.14,1.14,0,0,1-1.26.53Z"/><path class="cls-3" d="M792.26,754.53s-.52.15-1.51.35-2.5.52-4.37.77-4.2.57-6.84.78-5.61.44-8.87.47l-5.07,0-5.43-.22c-3.73-.14-7.62-.62-11.68-1-4-.62-8.2-1.16-12.38-2.06s-8.44-1.82-12.61-3.1q-3.15-.9-6.27-1.83c-2.05-.68-4.07-1.46-6.09-2.2s-4-1.48-6-2.27-3.82-1.71-5.67-2.57-3.7-1.67-5.45-2.59-3.39-1.89-5-2.81l-4.72-2.73c-1.51-.92-2.9-1.92-4.24-2.86-2.7-1.86-5.1-3.64-7.21-5.23s-3.74-3.3-5.16-4.58-2.47-2.33-3.22-3l-1.11-1.11a1.13,1.13,0,0,1,0-1.62,1.17,1.17,0,0,1,1.21-.28l.09,0,1.45.52c.94.39,2.35.86,4,1.59s3.81,1.55,6.12,2.6,5.13,1.88,8,3c1.48.54,2.93,1.26,4.53,1.77l4.9,1.73,5.12,1.87,5.41,1.77c1.84.6,3.7,1.22,5.56,1.87l5.77,1.72c3.84,1.24,7.8,2.36,11.77,3.42,3.93,1.22,8,2.08,11.88,3.18s7.83,1.93,11.59,2.88l5.56,1.28c1.83.46,3.61.89,5.36,1.24,3.48.81,6.79,1.58,9.86,2.24l14.92,3.37c1.83.38,3.25.75,4.22,1l1.51.34a1.18,1.18,0,0,1,.87,1.42,1.14,1.14,0,0,1-.8.84Z"/><path class="cls-3" d="M803.52,757.76s-1.86,1.49-5.19,3.61c-1.66,1-3.69,2.29-6,3.61s-5,2.74-7.93,4.13-6.11,2.84-9.5,4.25-7,2.8-10.79,4-7.69,2.51-11.66,3.82-8,2.76-12,4.13-8.09,2.6-12,4.06-7.9,2.6-11.64,4c-7.53,2.66-14.6,5.06-20.66,7.26l-8.32,2.93c-2.49.86-4.64,1.69-6.44,2.34l-5.74,1.89-.22.07a1.12,1.12,0,0,1-1.42-.71,1.15,1.15,0,0,1,.44-1.3l5-3.33c1.59-1,3.52-2.32,5.77-3.71l7.67-4.52c2.79-1.73,6-3.22,9.28-5s6.87-3.47,10.56-5.22,7.5-3.55,11.45-5.2,8-3.25,12-4.88,8.14-3.07,12.14-4.58,8-2.9,11.88-4.09,7.63-2.43,11.25-3.36l5.25-1.44,5-1.14c3.17-.76,6.12-1.36,8.69-1.93s4.89-.87,6.77-1.17,3.35-.53,4.38-.63l1.57-.18a1.09,1.09,0,0,1,1.22,1,1.1,1.1,0,0,1-.4,1Z"/><path class="cls-3" d="M815.7,760.91s-.4.45-1.17,1.21-1.88,1.92-3.35,3.24-3.23,3-5.35,4.72l-3.32,2.81-3.78,2.92L794.64,779c-1.45,1-2.93,2.11-4.47,3.2s-3.13,2.19-4.76,3.31l-5,3.32c-3.42,2.19-7,4.4-10.67,6.58-1.82,1.14-3.69,2.18-5.57,3.25s-3.73,2.16-5.64,3.19c-3.79,2.08-7.58,4.14-11.35,6.11s-7.45,3.89-11.13,5.63-7.14,3.51-10.56,5-6.61,3-9.61,4.32-5.76,2.52-8.25,3.56l-6.47,2.68c-1.79.78-3.31,1.27-4.3,1.68l-1.58.52-.37.15a1.12,1.12,0,0,1-1.41-.68,1.08,1.08,0,0,1,.33-1.2s1.66-1.45,4.59-3.95c1.46-1.29,3.24-2.8,5.37-4.43s4.45-3.62,7.18-5.48,5.6-4,8.73-6.1,6.41-4.39,10-6.54,7.1-4.44,10.84-6.6,7.49-4.47,11.32-6.63,7.67-4.26,11.48-6.3l11.22-5.94c7.26-3.84,14.25-7,20.17-9.93s11-5,14.51-6.51l5.54-2.38a1.11,1.11,0,0,1,1.45.57,1.13,1.13,0,0,1-.19,1.17Z"/><path class="cls-3" d="M831.27,764.43s-1.22,1.9-3.59,5-5.87,7.39-10.3,12.31-9.84,10.41-15.89,16c-3,2.77-6.21,5.66-9.54,8.45s-6.71,5.58-10.2,8.3-7,5.41-10.54,7.92-7.05,5-10.55,7.27c-1.75,1.12-3.44,2.26-5.14,3.3s-3.43,2-5.07,3c-3.28,2-6.54,3.59-9.52,5.12s-5.81,2.75-8.32,3.81a56.94,56.94,0,0,1-6.67,2.45c-3.77,1.15-5.92,1.68-5.92,1.68a1.13,1.13,0,0,1-.92-2l.1-.08s1.83-1.23,5-3.24a67.61,67.61,0,0,0,5.63-3.82c1.07-.75,2.21-1.54,3.44-2.37s2.39-1.88,3.68-2.81c2.61-1.92,5.42-4,8.29-6.37s6-4.67,9.14-7.26c1.59-1.26,3.19-2.56,4.82-3.85s3.24-2.67,4.88-4l10-8.23c3.34-2.75,6.69-5.51,10-8.23s6.55-5.39,9.75-7.92c6.35-5.1,12.42-9.74,17.69-13.62,2.64-2,5.1-3.71,7.32-5.22s4.11-2.88,5.73-3.93c3.23-2.14,5.16-3.27,5.17-3.26a1.14,1.14,0,0,1,1.59.41A1.19,1.19,0,0,1,831.27,764.43Z"/><path class="cls-3" d="M848.15,768l-.73,1.47c-.46.94-1.11,2.35-2.1,4.05s-2.13,3.78-3.58,6.08-3.1,4.84-5,7.59-4,5.66-6.27,8.68-4.83,6.11-7.43,9.31-5.53,6.33-8.47,9.51-5.88,6.49-9.11,9.48-6.29,6.18-9.5,9.11-6.37,5.78-9.57,8.44-6.34,5.1-9.31,7.48-5.84,4.53-8.6,6.4-5.35,3.53-7.6,5-4.33,2.65-6,3.69-3,1.71-3.94,2.25l-1.4.76,0,0a1.16,1.16,0,0,1-1.43-1.78l1-1.18c.67-.79,1.64-2,2.93-3.37s2.91-3.1,4.72-5.05,3.81-4.22,6.13-6.5,4.62-5,7.22-7.69,5.3-5.57,8.13-8.52,5.78-5.92,8.7-9.06,6-6.17,9-9.28c1.53-1.54,3-3.13,4.5-4.7l4.52-4.61c3-3.08,5.95-6.06,8.89-8.9s5.62-5.72,8.38-8.28,5.25-5.06,7.66-7.29,4.58-4.3,6.6-6.06,3.7-3.35,5.17-4.61c2.92-2.51,4.63-3.92,4.63-3.92a1.16,1.16,0,0,1,1.63.17,1.17,1.17,0,0,1,.15,1.23Z"/><path class="cls-3" d="M861.36,770.42s-.18.52-.57,1.51-.86,2.45-1.62,4.23c-1.46,3.65-3.73,8.73-6.69,14.7-1.43,3-3.16,6.17-4.94,9.55s-3.83,6.85-5.95,10.43-4.4,7.24-6.79,10.9c-1.19,1.84-2.39,3.69-3.58,5.55s-2.57,3.62-3.85,5.43c-2.56,3.65-5.16,7.26-7.83,10.74s-5.45,6.8-8,10.07-5.45,6.19-8,9.07-5.25,5.36-7.59,7.76a42.82,42.82,0,0,1-3.55,3.28l-3.3,2.86c-1,.89-2,1.74-2.91,2.48s-1.81,1.39-2.61,2c-1.54,1.22-2.83,2.07-3.69,2.7s-1.29.92-1.29.92a1.16,1.16,0,0,1-1.6-.28,1.11,1.11,0,0,1,0-1.21l.13-.24s1.18-2,3.31-5.22c.56-.81,1.15-1.69,1.8-2.65s1.27-2.09,2-3.2c1.47-2.23,3.09-4.76,4.88-7.52s3.64-5.73,5.65-8.87,4.18-6.42,6.32-9.89,4.62-6.85,6.85-10.5c1.11-1.84,2.35-3.59,3.55-5.39l3.59-5.43c4.81-7.22,9.75-14.4,14.66-21,2.46-3.28,4.8-6.48,7.26-9.37s4.55-5.78,6.81-8.27,4.18-4.83,6.07-6.8l2.62-2.81,2.34-2.32c2.79-2.81,4.6-4.33,4.6-4.33l.17-.15a1.14,1.14,0,0,1,1.81,1.27Z"/><path class="cls-3" d="M877.15,772.83s-.15.56-.42,1.61-.66,2.58-1.29,4.48c-1.17,3.84-3,9.3-5.5,15.64s-5.66,13.66-9.37,21.32c-1.81,3.85-3.82,7.76-6,11.69s-4.33,7.89-6.6,11.82c-1.11,2-2.29,3.92-3.5,5.83s-2.41,3.83-3.64,5.71c-2.44,3.75-4.91,7.4-7.33,10.91s-5.1,6.73-7.53,9.82-4.82,5.92-7,8.52-4.61,4.81-6.59,6.79-3.83,3.61-5.32,5c-3,2.72-4.79,4.15-4.79,4.15a1.16,1.16,0,0,1-1.79-1.35l0-.09s.9-2.18,2.64-5.77c.87-1.79,1.91-4,3.2-6.4s2.8-5.06,4.33-8.08,3.2-6.26,5-9.65,3.85-6.86,5.9-10.51,4.1-7.48,6.31-11.28,4.58-7.56,6.79-11.48,4.56-7.69,6.89-11.42,4.67-7.43,6.91-11,4.51-7,6.68-10.15,4.2-6.25,6.17-9c3.9-5.52,7.33-10.09,9.81-13.21,1.2-1.6,2.25-2.81,2.89-3.66l1.09-1.26a1.16,1.16,0,0,1,1.65-.15A1.18,1.18,0,0,1,877.15,772.83Z"/><path class="cls-3" d="M892.16,775s0,.62-.1,1.71-.19,2.71-.52,4.65-.59,4.37-1.12,7-1.18,5.6-2,8.76c-.42,1.56-.87,3.17-1.34,4.85s-1,3.38-1.57,5.14-1.19,3.49-1.79,5.32l-2,5.45c-1.44,3.67-3,7.4-4.68,11.16-.78,1.89-1.74,3.71-2.64,5.6s-1.75,3.74-2.72,5.58c-1.87,3.71-3.82,7.36-5.74,10.94-2.08,3.56-3.93,7.08-6,10.4s-3.9,6.57-5.92,9.58-3.77,5.87-5.63,8.49-3.4,5-5,7.16c-.77,1.06-1.52,2.06-2.26,3l-1.84,2.56c-1.08,1.57-2.17,2.78-2.79,3.64s-1.09,1.29-1.09,1.29l-.38.44a1.05,1.05,0,0,1-1.49.13,1,1,0,0,1-.34-1.09s.54-2.06,1.51-5.66c.23-.92.5-1.91.8-3s.73-2.21,1.13-3.45c.84-2.44,1.63-5.28,2.8-8.24s2.26-6.25,3.67-9.63,2.8-7,4.45-10.58,3.23-7.43,5-11.2,3.55-7.63,5.44-11.43c3.7-7.64,7.61-15.18,11.3-22.22s7.27-13.55,10.37-19.13c6.2-11.08,10.55-18.38,10.55-18.38a1.05,1.05,0,0,1,2,.56Z"/><path class="cls-3" d="M900.24,775.43a49.82,49.82,0,0,1,1.28,4.9,106,106,0,0,1,2.11,13c.29,2.7.55,5.63.66,8.74s.25,6.37.17,9.74-.17,6.87-.44,10.42-.69,7.13-1.07,10.72-1,7.17-1.62,10.68-1.4,7-2.15,10.27-1.68,6.5-2.6,9.48-2,5.8-2.88,8.37-2.1,4.85-3,6.9-1.92,3.73-2.64,5.14c-1.57,2.81-2.55,4.34-2.55,4.34a1.14,1.14,0,0,1-1.61.35,1.12,1.12,0,0,1-.53-1.06v-.08s.17-1.84.59-4.91c.23-1.56.56-3.39.78-5.56s.52-4.54.91-7.13c.57-5.22,1.22-11.31,1.93-17.84.32-3.25.61-6.62,1-10s.68-6.92,1-10.39.66-7,1-10.41c.14-1.71.33-3.41.52-5.09s.34-3.37.55-5c.4-3.28.8-6.44,1.23-9.44s.84-5.86,1.32-8.48c.88-5.27,1.78-9.68,2.52-12.77s1.24-4.87,1.25-4.87a1.2,1.2,0,0,1,1.49-.8A1.27,1.27,0,0,1,900.24,775.43Z"/><path class="cls-3" d="M905.74,775.54a31.69,31.69,0,0,1,2.46,2.62,76.81,76.81,0,0,1,5.61,7.42c1.08,1.61,2.18,3.36,3.27,5.26s2.16,3.94,3.25,6.09,2.07,4.38,3.06,6.69,1.89,4.69,2.66,7.13,1.6,4.85,2.22,7.29,1.27,4.84,1.7,7.23.88,4.63,1.11,6.84.51,4.25.55,6.21.09,3.71.12,5.28-.19,2.95-.25,4.08c-.19,2.26-.39,3.54-.39,3.54a1.18,1.18,0,0,1-1.35,1,1.16,1.16,0,0,1-.89-.69l0-.06s-.52-1.2-1.28-3.25c-.36-1.05-.83-2.29-1.29-3.74s-1.15-3-1.72-4.76-1.33-3.61-2-5.61-1.44-4.05-2.2-6.21l-4.79-13.47c-1.63-4.6-3.27-9.19-4.74-13.54-.73-2.18-1.42-4.32-2.08-6.31s-1.23-3.95-1.77-5.73-1-3.44-1.4-4.92-.74-2.78-1-3.84c-.54-2.16-.8-3.43-.8-3.43a1.21,1.21,0,0,1,.94-1.41A1.18,1.18,0,0,1,905.74,775.54Z"/></g><g class="cls-2"><path class="cls-3" d="M1229.06,880.53l-1.63.07c-1.1,0-2.66.08-4.64.12-4,0-9.63.1-16.41-.11-3.39-.06-7.06-.26-10.93-.42s-8-.5-12.18-.79-8.58-.69-13-1.23l-6.66-.75c-2.23-.25-4.46-.6-6.7-.9s-4.47-.6-6.69-.94l-6.62-1.11c-4.38-.68-8.67-1.57-12.81-2.39s-8.12-1.75-11.9-2.64l-5.49-1.29-5.09-1.39c-3.26-.91-6.24-1.7-8.88-2.47s-4.9-1.56-6.77-2.18l-5.89-1.89a.7.7,0,0,1,.4-1.35h0l5.93,1.71,6.79,2c2.64.68,5.65,1.38,8.91,2.18l5.09,1.23,5.5,1.12c3.76.77,7.74,1.6,11.89,2.25s8.41,1.45,12.78,2l6.59.89c2.22.28,4.44.49,6.67.74s4.44.5,6.67.69l6.62.54c4.39.4,8.73.54,12.91.82s8.24.32,12.07.4,7.45.11,10.82.07c6.7,0,12.27-.23,16.16-.42,1.94-.08,3.46-.18,4.48-.25l1.6-.12h0a2.93,2.93,0,1,1,.43,5.84Z"/><path class="cls-3" d="M1155.72,874.14a6,6,0,0,1,.2-.67c.19-.4.31-1.07.58-1.79s.5-1.61.88-2.61.73-2.13,1.21-3.27.91-2.47,1.46-3.75c.27-.65.6-1.28.88-2s.55-1.37.87-2.06c.59-1.4,1.28-2.77,2-4.16.35-.69.66-1.43,1-2.15l1.08-2.12c.72-1.42,1.58-2.76,2.34-4.14s1.52-2.75,2.32-4c.43-.63.85-1.26,1.25-1.88s.88-1.19,1.29-1.77.8-1.16,1.2-1.72l1.17-1.6c.4-.5.79-1,1.15-1.46l1.16-1.29a27.62,27.62,0,0,1,2-2.09c.55-.59,1.09-1,1.42-1.32l.56-.46.31-.24a.67.67,0,0,1,.92.14.65.65,0,0,1,.1.52s-.16.83-.53,2.27-.86,3.52-1.61,6c-.38,1.22-.72,2.57-1.21,4s-1.08,2.81-1.74,4.27-1.28,3-1.94,4.56c-.3.79-.75,1.53-1.12,2.28s-.79,1.52-1.22,2.26c-.85,1.5-1.69,3-2.53,4.45l-2.75,4.13a33.09,33.09,0,0,1-2.79,3.72l-2.65,3.2c-.87,1-1.73,1.77-2.46,2.52s-1.43,1.36-2,1.86-1,.89-1.35,1.11l-.49.37a.66.66,0,0,1-.93-.14.64.64,0,0,1-.11-.56Z"/><path class="cls-3" d="M1151.12,873.92a8.75,8.75,0,0,1-.21-.85c-.14-.56-.33-1.37-.48-2.36s-.34-2.21-.49-3.59-.29-2.9-.35-4.55-.08-3.42,0-5.28.18-3.79.34-5.77.44-4,.75-6.08.67-4.12,1-6.2l1.13-6.17c.42-2.05.76-4,1.19-6,.24-1,.39-1.92.58-2.84s.4-1.85.59-2.73c.46-1.79.75-3.44,1.11-5s.65-3,.93-4.29c.12-.64.32-1.26.44-1.81s.19-1.09.29-1.55c.39-1.89.7-3,.7-3l.07-.27a.67.67,0,0,1,.82-.48.69.69,0,0,1,.49.51l.64,3c.09.47.2,1,.3,1.56s.15,1.2.24,1.87c.12,1.33.4,2.83.45,4.48s.16,3.42.14,5.3,0,3.87-.09,5.92-.26,4.16-.48,6.3-.43,4.31-.71,6.47-.53,4.32-.9,6.44-.74,4.19-1.13,6.18-.85,3.92-1.28,5.74-.93,3.52-1.35,5.09-.78,3-1.24,4.29-.78,2.36-1.08,3.26-.56,1.6-.75,2.09l-.28.73a.67.67,0,0,1-.86.38.64.64,0,0,1-.4-.42Z"/><path class="cls-3" d="M1146.23,873.6s-.64-1.13-1.57-3.19-2.2-5-3.47-8.65a127.73,127.73,0,0,1-3.79-12.58c-.61-2.32-1.12-4.75-1.64-7.22s-.91-5-1.31-7.55-.67-5.09-1-7.61-.46-5-.52-7.42-.19-4.75-.12-7,.14-4.32.25-6.25.38-3.71.55-5.27.5-2.91.67-4c.44-2.23.74-3.48.74-3.48a.71.71,0,0,1,1.39.07v0s.17,1.28.38,3.49c.11,1.1.19,2.43.37,4s.42,3.26.56,5.12.55,3.88.77,6,.64,4.38.93,6.69.74,4.72,1.07,7.15.77,4.9,1.16,7.37.84,4.94,1.25,7.37.79,4.83,1.17,7.14.72,4.59,1,6.72.65,4.17.87,6,.52,3.6.7,5.15.35,2.87.47,4c.26,2.23.36,3.51.36,3.51a.72.72,0,0,1-1.35.4Z"/><path class="cls-3" d="M1135.69,872l-.63-.71a25.34,25.34,0,0,1-1.68-2c-.74-.88-1.44-2-2.36-3.31s-1.77-2.81-2.67-4.5-1.92-3.49-2.74-5.51l-1.35-3.08c-.45-1.05-.8-2.16-1.21-3.28s-.83-2.24-1.2-3.42-.7-2.35-1-3.56c-.71-2.4-1.3-4.88-2-7.33s-1-5-1.5-7.46-.81-4.92-1-7.31c-.11-1.19-.21-2.37-.32-3.52a32.53,32.53,0,0,1-.2-3.37c0-2.22-.09-4.29,0-6.21s.25-3.68.37-5.24.45-2.9.61-4l.69-3.45a.71.71,0,0,1,.84-.55.72.72,0,0,1,.57.62v0l.36,3.4c.12,1.08.11,2.38.36,3.87s.47,3.15.73,5l1,5.85c.39,2.07.89,4.24,1.34,6.49.23,1.12.55,2.25.83,3.39s.55,2.31.83,3.5c.63,2.33,1.26,4.7,1.9,7.06s1.32,4.73,2.06,7,1.41,4.58,2.09,6.78c1.37,4.42,2.58,8.56,3.57,12.14s1.77,6.61,2.27,8.75c.24,1.08.44,1.91.54,2.5s.19.89.19.89a.72.72,0,0,1-.56.86.71.71,0,0,1-.68-.23Z"/><path class="cls-3" d="M1124.67,870a5.89,5.89,0,0,1-.73-.52c-.47-.36-1.16-.89-2-1.61a35.73,35.73,0,0,1-2.79-2.65c-1.1-1-2.13-2.31-3.33-3.67-.59-.7-1.17-1.43-1.76-2.2s-1.18-1.57-1.77-2.43c-1.17-1.68-2.37-3.49-3.47-5.44a66.58,66.58,0,0,1-3.21-6.12c-1.07-2.1-1.87-4.37-2.8-6.58s-1.62-4.53-2.33-6.79-1.24-4.55-1.72-6.77-.8-4.42-1.08-6.49-.33-4.08-.44-5.89.1-3.55.13-5a13.56,13.56,0,0,1,.21-2.08c.1-.64.2-1.23.27-1.76.38-2.12.67-3.3.67-3.3l0-.17a.69.69,0,0,1,.84-.49.7.7,0,0,1,.52.62s.08,1.14.25,3.15a33.47,33.47,0,0,0,.37,3.61c.22,1.39.47,3,.74,4.67s.79,3.51,1.24,5.45,1.11,3.93,1.68,6,1.41,4.18,2.13,6.34,1.62,4.3,2.5,6.45,1.76,4.28,2.73,6.35,1.88,4.12,2.86,6.06,1.91,3.83,2.82,5.59,1.84,3.42,2.66,5c3.39,6.08,5.9,10,5.9,10a.68.68,0,0,1-.2.92.71.71,0,0,1-.72,0Z"/><path class="cls-3" d="M1111.58,867.16a22.58,22.58,0,0,1-2.56-1.79,30.4,30.4,0,0,1-2.76-2.29c-1-.94-2.21-2-3.35-3.17s-2.43-2.53-3.64-4-2.55-3-3.76-4.72-2.47-3.46-3.74-5.25l-3.37-5.71c-.56-1-1.12-1.91-1.64-2.89s-1.09-1.93-1.51-2.93c-.93-2-1.76-4-2.54-5.9-.39-1-.79-1.9-1.16-2.83s-.68-1.85-1-2.75c-.6-1.81-1.09-3.56-1.48-5.19-.21-.81-.41-1.59-.59-2.34s-.31-1.45-.45-2.12c-.3-1.33-.49-2.51-.64-3.49-.32-1.94-.39-3.08-.39-3.08v-.22a.7.7,0,0,1,.63-.73.72.72,0,0,1,.69.41s1.73,4,4.34,10c.66,1.49,1.35,3.12,2.12,4.81s1.72,3.44,2.62,5.26l2.81,5.62c.94,1.92,2.07,3.78,3.11,5.68l3.17,5.66c1.13,1.81,2.25,3.59,3.32,5.32s2.09,3.41,3.18,4.93l3,4.32c.94,1.32,1.86,2.49,2.64,3.55s1.52,2,2.11,2.68c1.17,1.46,1.92,2.26,1.92,2.26a.68.68,0,0,1,0,1,.65.65,0,0,1-.79.09Z"/><path class="cls-3" d="M1103,865a31.85,31.85,0,0,1-3-1.36c-.92-.48-2.08-1-3.32-1.76s-2.65-1.53-4.11-2.51-3.12-2-4.7-3.2-3.37-2.43-5-3.83-3.38-2.92-5.11-4.44-3.44-3.14-5-4.85-3.21-3.44-4.74-5.17c-.76-.87-1.53-1.72-2.25-2.6s-1.33-1.81-2-2.7l-1.91-2.63c-.59-.89-1.18-1.75-1.74-2.59a38.14,38.14,0,0,1-3-4.9c-.41-.78-.8-1.54-1.17-2.27s-.67-1.44-1-2.08c-.64-1.32-1.11-2.5-1.51-3.46-.79-1.92-1.14-3.07-1.14-3.07l-.06-.17a.69.69,0,0,1,1.22-.61l6.74,9.28c1,1.43,2.22,2.82,3.46,4.34l4,4.76c.69.82,1.37,1.68,2.11,2.5s1.52,1.63,2.31,2.46l4.66,5c1.53,1.71,3.25,3.25,4.84,4.86s3.2,3.15,4.74,4.64,3.12,2.86,4.6,4.19,2.83,2.58,4.14,3.71l3.57,3.06,2.79,2.3c1.54,1.28,2.46,2,2.46,2a.68.68,0,0,1-.64,1.19Z"/><path class="cls-3" d="M1096.7,863.3s-1.18-.28-3.18-.9-4.83-1.55-8.18-2.86c-1.66-.65-3.48-1.35-5.34-2.19s-3.87-1.69-5.87-2.69-4.09-2-6.17-3.11l-6.22-3.5c-2-1.27-4.1-2.46-6.06-3.79s-3.88-2.61-5.67-4-3.56-2.62-5.13-4-3.1-2.54-4.4-3.81-2.49-2.39-3.53-3.42-1.85-2-2.56-2.82c-1.37-1.58-2.13-2.51-2.13-2.51a.71.71,0,0,1,1-1l0,0s1,.66,2.68,1.87c.84.59,1.82,1.36,3,2.17s2.53,1.71,4,2.73,3.07,2,4.72,3.14,3.48,2.21,5.31,3.43,3.79,2.31,5.73,3.56,4,2.39,6,3.61l6,3.55c2,1.1,3.94,2.33,5.88,3.37,3.83,2.18,7.4,4.22,10.48,6l7.44,4.25,2.82,1.64a.71.71,0,0,1,.25,1,.69.69,0,0,1-.77.32Z"/><path class="cls-3" d="M1092.67,862.06s-.32.09-.94.21-1.54.33-2.69.48-2.58.35-4.21.48-3.46.27-5.47.29h-3.12l-3.35-.13c-2.3-.09-4.69-.38-7.19-.63s-5.06-.71-7.63-1.27-5.2-1.12-7.77-1.91l-3.86-1.12c-1.27-.43-2.51-.91-3.76-1.36s-2.47-.92-3.67-1.4-2.36-1.05-3.5-1.58-2.28-1-3.35-1.6l-3.11-1.73-2.91-1.69c-.93-.56-1.79-1.18-2.61-1.75-1.66-1.15-3.14-2.25-4.44-3.23s-2.31-2-3.18-2.82-1.53-1.43-2-1.86l-.68-.69a.69.69,0,0,1,0-1,.73.73,0,0,1,.74-.17l0,0,.9.33c.58.23,1.45.53,2.49,1s2.36,1,3.78,1.61,3.16,1.15,4.93,1.86c.91.33,1.8.78,2.79,1.09l3,1.07,3.16,1.15,3.33,1.09c1.13.37,2.28.75,3.42,1.15l3.56,1.06c2.37.76,4.81,1.46,7.25,2.11s4.91,1.28,7.32,2l7.14,1.77,3.43.79c1.12.29,2.22.55,3.3.76,2.14.51,4.19,1,6.08,1.38l9.19,2.09c1.12.23,2,.46,2.6.59l.93.21a.72.72,0,0,1,.53.88.67.67,0,0,1-.49.51Z"/><path class="cls-3" d="M1099.6,864.05s-1.14.92-3.19,2.23c-1,.64-2.28,1.41-3.73,2.22s-3.08,1.69-4.88,2.55-3.77,1.74-5.86,2.61-4.31,1.72-6.64,2.5-4.74,1.54-7.19,2.35l-7.39,2.55c-2.48.83-5,1.6-7.4,2.5s-4.87,1.6-7.17,2.45c-4.64,1.64-9,3.12-12.73,4.48l-5.13,1.8c-1.53.53-2.86,1-4,1.45l-3.55,1.16-.13,0a.68.68,0,0,1-.87-.43.69.69,0,0,1,.27-.8l3.06-2.06c1-.63,2.17-1.43,3.56-2.28l4.72-2.79c1.72-1.07,3.7-2,5.72-3.06s4.23-2.14,6.5-3.22,4.63-2.19,7.06-3.21,4.92-2,7.41-3,5-1.88,7.48-2.81,4.91-1.79,7.32-2.52,4.69-1.5,6.92-2.07l3.24-.89,3.06-.71c2-.46,3.77-.83,5.35-1.18s3-.54,4.17-.72,2.07-.33,2.7-.39l1-.11a.66.66,0,0,1,.75.6.65.65,0,0,1-.25.6Z"/><path class="cls-3" d="M1107.1,866s-.24.28-.71.75-1.16,1.18-2.07,2-2,1.85-3.3,2.91l-2,1.73-2.33,1.8-2.52,2c-.89.63-1.8,1.3-2.75,2s-1.93,1.35-2.94,2l-3.09,2.05c-2.11,1.35-4.32,2.71-6.57,4-1.12.7-2.28,1.34-3.44,2s-2.29,1.34-3.47,2c-2.33,1.28-4.67,2.55-7,3.77s-4.59,2.39-6.86,3.46-4.4,2.17-6.51,3.1-4.07,1.84-5.92,2.66-3.54,1.56-5.08,2.2l-4,1.65c-1.11.48-2,.78-2.66,1l-1,.33-.23.09a.69.69,0,0,1-.86-.42.66.66,0,0,1,.2-.74l2.82-2.44c.91-.79,2-1.72,3.31-2.73s2.75-2.22,4.43-3.37,3.45-2.46,5.38-3.76,3.94-2.71,6.13-4,4.37-2.73,6.67-4.07,4.62-2.75,7-4.08,4.72-2.62,7.07-3.88l6.91-3.66c4.48-2.37,8.79-4.35,12.44-6.12s6.77-3.05,8.93-4l3.42-1.47a.68.68,0,0,1,.89.36.7.7,0,0,1-.11.72Z"/><path class="cls-3" d="M1116.7,868.16s-.75,1.17-2.21,3.07-3.62,4.55-6.35,7.58-6.06,6.42-9.79,9.89c-1.88,1.71-3.82,3.48-5.88,5.2s-4.13,3.44-6.28,5.12-4.3,3.33-6.5,4.88-4.34,3.07-6.49,4.47c-1.08.7-2.13,1.4-3.17,2l-3.13,1.85c-2,1.2-4,2.21-5.86,3.16s-3.58,1.69-5.13,2.34a33.11,33.11,0,0,1-4.1,1.51c-2.33.71-3.65,1-3.65,1a.7.7,0,0,1-.57-1.26l.06,0s1.13-.75,3.1-2c1-.55,2.14-1.43,3.47-2.36.66-.46,1.36-.95,2.12-1.46s1.47-1.15,2.27-1.73c1.61-1.18,3.34-2.46,5.1-3.92s3.71-2.88,5.63-4.48c1-.77,2-1.57,3-2.37l3-2.48,6.14-5.07,6.15-5.06c2-1.68,4-3.33,6-4.88,3.92-3.15,7.65-6,10.9-8.4,1.63-1.2,3.15-2.28,4.51-3.21s2.54-1.78,3.54-2.42c2-1.32,3.17-2,3.18-2a.7.7,0,0,1,1,.25A.72.72,0,0,1,1116.7,868.16Z"/><path class="cls-3" d="M1127.1,870.33s-.16.31-.45.91-.69,1.44-1.29,2.49-1.31,2.33-2.21,3.75-1.91,3-3.07,4.67-2.45,3.49-3.86,5.35-3,3.76-4.58,5.74-3.4,3.9-5.22,5.86-3.62,4-5.61,5.84-3.88,3.8-5.85,5.61-3.93,3.56-5.9,5.2l-5.74,4.61c-1.83,1.46-3.59,2.79-5.3,3.94s-3.29,2.18-4.68,3.09-2.67,1.64-3.68,2.28-1.87,1.05-2.42,1.38l-.87.47v0a.73.73,0,0,1-1-.28.74.74,0,0,1,.08-.82l.65-.73c.42-.48,1-1.22,1.81-2.08s1.79-1.9,2.9-3.11,2.35-2.6,3.78-4,2.85-3.1,4.45-4.74l5-5.25c1.79-1.75,3.56-3.65,5.36-5.58s3.71-3.8,5.58-5.72c.94-1,1.85-1.93,2.77-2.89l2.79-2.85c1.84-1.89,3.66-3.73,5.47-5.48s3.46-3.52,5.16-5.1,3.24-3.12,4.72-4.49,2.83-2.65,4.07-3.73,2.28-2.07,3.18-2.84c1.8-1.55,2.86-2.42,2.86-2.42a.71.71,0,0,1,1.09.86Z"/><path class="cls-3" d="M1135.24,871.85s-.11.32-.35.93-.53,1.51-1,2.61c-.9,2.24-2.3,5.38-4.12,9.05-.88,1.86-2,3.81-3,5.89s-2.36,4.22-3.66,6.42-2.71,4.47-4.18,6.72c-.74,1.13-1.47,2.27-2.21,3.42s-1.58,2.23-2.37,3.34c-1.58,2.25-3.18,4.48-4.83,6.62s-3.35,4.19-5,6.21-3.36,3.81-4.92,5.59-3.23,3.3-4.67,4.78a28.92,28.92,0,0,1-2.19,2l-2,1.76c-.64.55-1.23,1.07-1.8,1.53s-1.11.86-1.6,1.21c-1,.75-1.75,1.28-2.28,1.67l-.8.56a.69.69,0,0,1-1-.17.68.68,0,0,1,0-.75l.08-.14s.72-1.24,2-3.22c.34-.5.7-1,1.11-1.63s.77-1.29,1.23-2c.9-1.38,1.9-2.94,3-4.64s2.24-3.53,3.48-5.46,2.58-4,3.9-6.1,2.84-4.22,4.22-6.47c.68-1.13,1.44-2.21,2.19-3.32l2.2-3.34c3-4.45,6-8.87,9-12.92,1.51-2,3-4,4.47-5.78s2.81-3.56,4.2-5.09,2.57-3,3.74-4.19l1.61-1.73,1.44-1.43c1.72-1.73,2.84-2.67,2.84-2.67l.1-.09a.71.71,0,0,1,1,.08A.7.7,0,0,1,1135.24,871.85Z"/><path class="cls-3" d="M1145,873.33l-.26,1c-.18.63-.41,1.59-.8,2.76-.72,2.36-1.83,5.73-3.38,9.63s-3.49,8.42-5.78,13.14c-1.11,2.37-2.35,4.78-3.67,7.2s-2.67,4.86-4.07,7.28c-.68,1.23-1.41,2.42-2.15,3.6s-1.49,2.36-2.25,3.52c-1.5,2.31-3,4.55-4.51,6.72s-3.14,4.15-4.64,6.05-3,3.64-4.35,5.25-2.84,3-4.06,4.18-2.35,2.23-3.27,3.08c-1.83,1.67-3,2.55-3,2.55a.7.7,0,0,1-1-.11.68.68,0,0,1-.1-.72v-.05s.55-1.35,1.63-3.56c.53-1.1,1.17-2.44,2-3.94s1.73-3.12,2.67-5,2-3.86,3.09-5.95,2.37-4.22,3.63-6.47,2.53-4.61,3.89-7,2.82-4.66,4.18-7.08,2.81-4.73,4.25-7,2.87-4.58,4.25-6.76,2.78-4.29,4.12-6.26,2.59-3.84,3.8-5.56c2.4-3.4,4.51-6.21,6-8.14.74-1,1.39-1.73,1.79-2.25l.67-.78a.72.72,0,0,1,1.25.63Z"/><path class="cls-3" d="M1154.21,874.69s0,.38-.06,1-.11,1.67-.32,2.87-.36,2.69-.69,4.32-.72,3.46-1.22,5.4c-.26,1-.54,1.95-.83,3s-.64,2.08-1,3.17-.73,2.15-1.1,3.27-.83,2.22-1.25,3.36c-.89,2.26-1.86,4.56-2.89,6.88-.48,1.16-1.07,2.29-1.62,3.45s-1.08,2.3-1.68,3.44c-1.15,2.28-2.36,4.53-3.53,6.74s-2.43,4.36-3.71,6.41-2.4,4-3.64,5.9-2.33,3.61-3.47,5.23-2.1,3.09-3.1,4.41c-.47.66-.93,1.27-1.38,1.84s-.8,1.1-1.14,1.58c-.66,1-1.33,1.71-1.72,2.24l-.67.8-.23.27a.65.65,0,0,1-.92.08.64.64,0,0,1-.21-.67s.33-1.27.93-3.49c.14-.56.31-1.18.49-1.85s.45-1.36.7-2.13c.52-1.51,1-3.25,1.72-5.08s1.4-3.85,2.27-5.93,1.72-4.3,2.74-6.52,2-4.58,3.1-6.9,2.19-4.7,3.35-7c2.28-4.71,4.69-9.36,7-13.69s4.47-8.35,6.39-11.79c3.81-6.83,6.5-11.32,6.5-11.32a.64.64,0,0,1,1.2.34Z"/><path class="cls-3" d="M1159.19,874.94a30.69,30.69,0,0,1,.79,3,65.17,65.17,0,0,1,1.3,8c.18,1.66.34,3.47.41,5.38s.15,3.93.1,6-.1,4.24-.26,6.42-.43,4.4-.66,6.61-.64,4.42-1,6.58-.86,4.29-1.33,6.33-1,4-1.6,5.84-1.21,3.57-1.78,5.15-1.29,3-1.84,4.26-1.18,2.29-1.62,3.17c-1,1.72-1.57,2.67-1.57,2.67a.72.72,0,0,1-1,.22.74.74,0,0,1-.33-.66v-.05s.11-1.13.37-3c.14-1,.34-2.08.47-3.42s.33-2.8.57-4.39c.35-3.22.75-7,1.18-11,.2-2,.38-4.07.62-6.18s.42-4.26.6-6.4.41-4.3.61-6.41c.09-1.05.21-2.1.33-3.14s.21-2.07.34-3.07c.24-2,.49-4,.76-5.82s.51-3.61.81-5.22c.54-3.25,1.09-6,1.55-7.87s.77-3,.77-3a.73.73,0,0,1,1.4,0Z"/><path class="cls-3" d="M1162.58,875a20.74,20.74,0,0,1,1.52,1.62,48.09,48.09,0,0,1,3.46,4.57c.66,1,1.34,2.07,2,3.24s1.33,2.43,2,3.75,1.27,2.7,1.88,4.13,1.16,2.89,1.64,4.39,1,3,1.36,4.49.79,3,1,4.46.54,2.85.68,4.21.32,2.62.34,3.83.06,2.28.08,3.25-.12,1.82-.15,2.52c-.12,1.38-.24,2.18-.24,2.18a.74.74,0,0,1-.84.6.69.69,0,0,1-.54-.43l0,0s-.33-.74-.79-2c-.22-.64-.52-1.41-.8-2.3s-.71-1.85-1.06-2.93-.82-2.23-1.22-3.46-.89-2.5-1.36-3.83c-.94-2.65-1.95-5.47-2.95-8.3s-2-5.66-2.92-8.34c-.45-1.34-.88-2.66-1.28-3.89l-1.1-3.53c-.32-1.1-.63-2.11-.85-3s-.46-1.71-.63-2.36c-.33-1.33-.5-2.12-.5-2.12a.74.74,0,0,1,.58-.86A.7.7,0,0,1,1162.58,875Z"/></g><g class="cls-2"><path class="cls-3" d="M1279.64,648.72l2.25-2.8c1.5-1.9,3.59-4.6,6.23-8.09,5.25-7,12.68-17,21.11-29.31,4.3-6.1,8.72-12.87,13.45-20s9.46-14.79,14.42-22.68c4.74-8,9.92-16.13,14.69-24.69q3.64-6.36,7.33-12.82c2.44-4.29,4.71-8.71,7.1-13.07s4.74-8.72,7-13.1,4.43-8.85,6.63-13.21c4.46-8.67,8.46-17.45,12.37-25.89s7.45-16.69,10.77-24.56c1.65-3.93,3.29-7.75,4.83-11.45s2.81-7.36,4.14-10.84c2.62-7,5.1-13.31,7.15-19s3.58-10.74,4.91-14.87l4.29-12.92a1.55,1.55,0,0,0-2.92-1l0,.07s-1.68,4.63-4.65,12.74c-1.48,4-3.28,9-5.34,14.62-2.23,5.59-4.9,11.84-7.7,18.66-1.4,3.43-2.9,7-4.43,10.66s-3.37,7.36-5.15,11.23c-3.51,7.68-7.19,15.83-11.45,24.05s-8.33,16.83-13.05,25.29c-2.3,4.27-4.64,8.58-7,12.89s-4.9,8.52-7.34,12.8-4.89,8.55-7.45,12.75-5.1,8.33-7.63,12.46c-5,8.33-10.37,16.23-15.31,24-5.13,7.66-10.12,15.07-15,22S1304.47,596,1300,602c-8.7,11.89-16.33,21.5-21.71,28.17-2.68,3.35-4.83,5.93-6.28,7.64l-2.27,2.69-.07.08a6.45,6.45,0,1,0,9.83,8.34A.7.7,0,0,0,1279.64,648.72Z"/><path class="cls-3" d="M1363.53,510.08s-.51-.21-1.45-.5-2.32-.86-3.93-1.3-3.53-1.2-5.79-1.83-4.74-1.46-7.39-2.1c-2.69-.82-5.57-1.59-8.56-2.26-1.51-.39-3.05-.6-4.61-1s-3.17-.8-4.81-1.14c-3.25-.76-6.59-1.31-10-1.81-1.7-.29-3.41-.68-5.13-1l-5.17-.83c-3.46-.57-7-.78-10.39-1.24s-6.87-.85-10.19-1.11c-1.7-.05-3.36-.13-5-.21s-3.25,0-4.83,0-3.1-.09-4.59-.1h-4.37c-1.42.07-2.78.13-4.09.16s-2.6.25-3.8.37c-2.34.15-4.5.52-6.29.81s-3.23.63-4.19.82-1.54.39-1.54.39l-.84.25a1.46,1.46,0,0,0-.94,1.8,1.38,1.38,0,0,0,.79.86s1.68.79,4.73,2,7.37,3.05,12.7,4.89c2.67.92,5.5,2.06,8.61,3s6.4,1.72,9.84,2.46,7,1.62,10.63,2.47c1.81.49,3.69.66,5.52,1s3.72.56,5.59.76q5.65.66,11.2,1.28l10.91.47a72.14,72.14,0,0,0,10.22-.12c3.26-.21,6.3-.41,9.14-.57s5.39-.76,7.67-1.1,4.28-.76,5.9-1.14,3-.69,3.74-1l1.3-.39a1.47,1.47,0,0,0,.1-2.76Z"/><path class="cls-3" d="M1369.11,501.62s-.42-.58-1.24-1.49-2-2.34-3.57-3.9-3.49-3.48-5.75-5.55-4.78-4.27-7.63-6.52-6-4.59-9.34-6.9-7-4.6-10.7-6.89-7.73-4.44-11.77-6.58l-12.34-6.24-12.43-6c-4.19-1.91-8.14-3.87-12.15-5.62-2-.85-3.91-1.8-5.81-2.66l-5.62-2.5c-3.76-1.5-7.08-3.13-10.35-4.54s-6.16-2.73-8.82-3.93c-1.3-.62-2.66-1.05-3.81-1.56s-2.17-1.07-3.11-1.49c-3.87-1.77-6.32-2.71-6.32-2.71l-.59-.22a1.46,1.46,0,0,0-1.9.83,1.53,1.53,0,0,0,.27,1.54s1.61,1.8,4.42,5c.73.77,1.52,1.64,2.39,2.57s1.93,1.81,3,2.84c2.21,1.94,4.52,4.4,7.37,6.62s5.89,4.72,9.25,7.14,6.88,5,10.64,7.52,7.73,5,11.81,7.33,8.22,4.83,12.43,7.13,8.37,4.67,12.61,6.77,8.41,4.12,12.47,6,8.07,3.58,11.85,5.19,7.46,2.92,10.8,4.21,6.4,2.53,9.23,3.35l7.2,2.31c2,.67,3.57,1.09,4.68,1.39l1.66.45a1.48,1.48,0,0,0,1.59-2.29Z"/><path class="cls-3" d="M1374.89,492.51s-1.18-2.61-3.64-6.94-6-10.41-10.86-17.4A282.93,282.93,0,0,0,1343,445.11c-3.34-4.1-7-8.16-10.72-12.29s-7.72-8.12-11.7-12.13-8.17-7.81-12.3-11.57-8.3-7.31-12.52-10.57-8.19-6.51-12.22-9.26-7.86-5.37-11.44-7.67-7.09-4.14-10.07-5.87-5.83-2.9-8-4c-4.53-2.12-7.14-3.2-7.14-3.2a1.57,1.57,0,0,0-2,.84,1.54,1.54,0,0,0,.35,1.72l.07.07s2,2,5.7,5.21c1.83,1.62,4.07,3.49,6.55,5.79s5.24,5,8.37,7.65,6.18,6,9.68,9.16,7,6.83,10.68,10.35,7.42,7.43,11.31,11.18,7.71,7.74,11.6,11.63,7.69,7.89,11.48,11.79,7.56,7.67,11.17,11.36l10.59,10.59c3.41,3.33,6.56,6.56,9.61,9.41s5.73,5.59,8.25,7.91,4.65,4.37,6.46,6c3.63,3.33,5.78,5.18,5.78,5.18a1.58,1.58,0,0,0,2.46-1.88Z"/><path class="cls-3" d="M1385.73,471.69s-.16-.69-.43-2-.74-3.26-1.47-5.65-1.73-5.2-2.83-8.49c-1.31-3.17-2.69-6.8-4.53-10.58s-3.71-8-6.23-12c-1.2-2.08-2.45-4.21-3.71-6.41s-2.82-4.22-4.27-6.41-2.91-4.38-4.52-6.56-3.28-4.3-5-6.48c-3.35-4.38-7-8.64-10.5-13-3.68-4.23-7.53-8.33-11.32-12.35s-7.68-7.84-11.65-11.32c-2-1.74-4-3.44-5.86-5.13s-3.75-3.33-5.72-4.74c-3.94-2.89-7.5-5.73-11-8.12s-6.88-4.32-9.81-6.14-5.74-3-7.9-4.12l-7-3.24a1.56,1.56,0,0,0-2.06.78,1.61,1.61,0,0,0,.35,1.82h0s2,1.84,5.58,5.05c1.77,1.62,4.1,3.29,6.41,5.68s5,4.91,7.9,7.75,5.84,6.11,9,9.44,6.39,7.1,9.79,10.82c1.7,1.85,3.3,3.9,5,5.88s3.4,4,5.13,6l10.09,12.55c3.27,4.32,6.7,8.49,9.83,12.79s6.3,8.47,9.34,12.52c6.06,8.17,11.86,15.7,16.93,22.12s9.46,11.73,12.61,15.39c1.59,1.83,2.83,3.26,3.74,4.21l1.33,1.5a1.61,1.61,0,0,0,2.25.11,1.58,1.58,0,0,0,.48-1.51Z"/><path class="cls-3" d="M1396.48,449.51a15,15,0,0,0,0-2c0-1.3-.06-3.21-.32-5.56s-.56-5.21-1.09-8.41-1.35-6.77-2.21-10.67c-.46-1.95-1-3.94-1.62-6s-1.26-4.14-2-6.29c-1.47-4.27-3.14-8.74-5.17-13.23a149.7,149.7,0,0,0-6.71-13.66c-2.34-4.63-5.33-9-8.06-13.53-2.9-4.41-5.94-8.76-9-13s-6.48-8.11-9.8-11.84c-3.53-3.63-6.82-7.15-10.13-10.35s-6.81-5.88-9.89-8.43c-3.26-2.44-6.44-4.43-9.12-6.29a27.71,27.71,0,0,0-4-2.33c-1.26-.66-2.43-1.25-3.48-1.81-4.26-2.09-6.73-3.1-6.73-3.1l-.37-.11a1.5,1.5,0,0,0-2,.84,1.55,1.55,0,0,0,.44,1.72s1.92,1.64,5.26,4.53a78,78,0,0,1,5.94,5.34l7.34,7.39c2.49,2.88,5.22,6,8.09,9.29s5.53,7.07,8.5,10.81,5.61,7.93,8.52,12c2.7,4.23,5.54,8.47,8.21,12.81s5.33,8.7,7.74,13.12,4.88,8.68,7.06,12.94,4.33,8.37,6.28,12.28,3.68,7.71,5.34,11.17c6.43,13.91,10.07,23.42,10.07,23.42a1.48,1.48,0,0,0,1.89.84,1.56,1.56,0,0,0,1-1.25Z"/><path class="cls-3" d="M1408.44,422.56a50.41,50.41,0,0,0,.14-6.87,70.67,70.67,0,0,0-.48-7.88c-.38-3-.6-6.45-1.29-10.07s-1.34-7.6-2.4-11.68-2.05-8.46-3.51-12.81-3-8.88-4.47-13.48c-1.9-4.42-3.84-8.89-5.77-13.39-1-2.23-2-4.47-3-6.67a70.16,70.16,0,0,0-3.25-6.49c-2.31-4.22-4.76-8.27-7.17-12.17-1.2-1.93-2.36-3.87-3.52-5.74s-2.41-3.62-3.59-5.36c-2.43-3.43-4.9-6.56-7.3-9.39l-3.38-4.08c-1.12-1.24-2.18-2.43-3.2-3.54-2-2.26-3.81-4.13-5.37-5.66-3-3.09-5-4.71-5-4.71l-.35-.3a1.52,1.52,0,0,0-2.29,1.92l12.06,20.67c1.79,3.09,3.79,6.43,5.8,10s3.88,7.5,5.94,11.48,4.18,8.1,6.35,12.28,4,8.6,6.06,12.92l5.92,13c1.76,4.36,3.48,8.65,5.16,12.81s3.34,8.14,4.62,12.05,2.63,7.53,3.81,10.92,2,6.55,2.88,9.32,1.52,5.23,2,7.22c1.08,4,1.54,6.35,1.54,6.35a1.5,1.5,0,0,0,3-.1Z"/><path class="cls-3" d="M1415.75,404.62a69.8,69.8,0,0,0,1.45-7.06c.32-2.26.87-5,1.19-8.19s.71-6.7.87-10.56a122.34,122.34,0,0,0,.4-12.51c-.07-4.45.06-9.15-.25-13.95s-.78-9.8-1.24-14.86c-.72-5-1.12-10.18-2.08-15.25s-1.95-10.16-3-15.14c-.56-2.47-1.08-4.94-1.7-7.36s-1.49-4.73-2.21-7.07l-2.19-6.82c-.81-2.2-1.57-4.37-2.35-6.44a80.92,80.92,0,0,0-4.85-11.64c-.86-1.76-1.69-3.43-2.51-5s-1.68-3.08-2.45-4.44c-1.5-2.84-3-5.21-4.18-7.17-2.38-3.9-4-6-4-6l-.24-.32a1.52,1.52,0,0,0-2.12-.3,1.49,1.49,0,0,0-.53,1.68l7.74,24c1.31,3.55,2.12,7.61,3.21,11.78s2.17,8.66,3.28,13.29c.57,2.29,1.2,4.6,1.71,7s.92,4.8,1.38,7.28c.94,4.86,1.89,9.84,2.83,14.8s1.56,10,2.37,14.91,1.45,9.77,2.08,14.45,1,9.26,1.48,13.6.92,8.4,1.21,12.19.57,7.25.82,10.31.35,5.76.47,8c.27,4.4.32,6.94.32,6.94a1.51,1.51,0,0,0,1.52,1.49,1.54,1.54,0,0,0,1.42-1.09Z"/><path class="cls-3" d="M1420.9,391.09s1-2.45,2.54-6.8S1427,373.68,1429,366c1-3.81,2.13-8,3-12.35s2-9.07,2.85-13.93,1.73-9.88,2.48-15,1.22-10.39,1.85-15.61c.4-5.26,1-10.48,1.14-15.69s.4-10.29.29-15.25,0-9.73-.42-14.29-.51-8.81-1.07-12.76-1-7.54-1.5-10.73-1.21-5.93-1.68-8.2c-1-4.5-1.7-7.05-1.7-7.05a1.56,1.56,0,0,0-3.06.34l0,.09s-.12,2.64-.14,7.18c0,2.28,0,5,0,8.15s-.24,6.71-.29,10.57-.44,8.06-.53,12.47-.62,9.06-.81,13.89-.82,9.75-1.11,14.81-.93,10.16-1.35,15.29-1,10.27-1.49,15.3c-.68,5.05-1,10-1.64,14.84-1.1,9.63-2.12,18.63-3,26.35s-1.59,14.22-2.12,18.75l-.74,7.13a1.57,1.57,0,0,0,1.39,1.71,1.54,1.54,0,0,0,1.59-.95Z"/><path class="cls-3" d="M1423.94,382.33s.58-.45,1.58-1.38,2.58-2.33,4.35-4.18,4-4.13,6.33-6.85,5-5.8,7.61-9.35c1.31-1.78,2.67-3.63,4.08-5.53s2.69-4,4.1-6.12c2.83-4.2,5.42-8.84,8.22-13.61,2.55-4.89,5.3-9.91,7.66-15.21s4.75-10.69,6.69-16.29c1-2.77,2-5.56,3-8.32s1.65-5.63,2.47-8.43,1.58-5.58,2.28-8.35,1.19-5.55,1.73-8.27,1.13-5.39,1.51-8,.65-5.23,1-7.77.53-5,.79-7.36.22-4.71.27-6.92c.11-4.44.08-8.51,0-12.09-.22-3.62-.61-6.73-.88-9.31s-.57-4.57-.73-5.94-.33-2.1-.33-2.1a1.55,1.55,0,0,0-1.78-1.3,1.62,1.62,0,0,0-1.28,1.11l0,.12s-.21.69-.59,2-.93,3.26-1.5,5.7-1.36,5.42-2,8.79c-.92,3.36-2,7.12-3.1,11.19-.59,2.05-1,4.21-1.67,6.38s-1.33,4.42-2,6.75-1.34,4.67-2.05,7.11-1.57,4.83-2.39,7.33-1.63,5-2.4,7.58-1.81,5.12-2.74,7.7c-1.72,5.2-3.65,10.43-5.66,15.63-1.82,5.27-4.1,10.39-6,15.54s-4.15,10.13-6.12,15c-1,2.4-2,4.78-3,7.11s-1.91,4.66-2.93,6.86c-1.89,4.46-3.7,8.7-5.44,12.59-3.42,7.89-6.25,14.44-8.24,19-1,2.3-1.78,4.15-2.32,5.39s-.83,1.92-.83,1.92a1.61,1.61,0,0,0,.86,2.1,1.53,1.53,0,0,0,1.55-.2Z"/><path class="cls-3" d="M1418.47,397.24s3.11-.84,8.1-2.79c2.48-1,5.47-2.22,8.79-3.74s7-3.27,10.87-5.37,8-4.42,12.25-7,8.66-5.42,13.07-8.56,8.9-6.43,13.51-9.73,9.4-6.52,14.12-9.82,9.32-6.79,14.07-9.92,9.16-6.56,13.67-9.55c8.94-6.12,17.23-11.94,24.48-16.81l9.87-6.77c2.93-2,5.56-3.73,7.71-5.18l6.67-4.78.25-.18a1.52,1.52,0,0,0,.36-2.12,1.54,1.54,0,0,0-1.77-.56l-7.63,2.77c-2.4.93-5.36,2-8.68,3.36l-11.08,4.78c-4.14,1.67-8.33,4-12.88,6.18s-9.3,4.75-14.17,7.38-9.89,5.38-14.85,8.38-10,6.14-15,9.26-9.87,6.46-14.73,9.64-9.55,6.41-14,9.74-8.77,6.39-12.68,9.62c-2,1.58-3.92,3.1-5.78,4.61s-3.55,3.07-5.22,4.51c-3.37,2.86-6.38,5.61-9,8s-4.88,4.66-6.71,6.48-3.26,3.24-4.2,4.29-1.44,1.58-1.44,1.58a1.47,1.47,0,0,0,.08,2.12,1.52,1.52,0,0,0,1.4.34Z"/><path class="cls-3" d="M1412.17,413.09s.82-.07,2.26-.31,3.6-.52,6.22-1.07,5.88-1.14,9.46-2.09l5.74-1.39c2-.55,4-1.17,6.21-1.8l6.76-1.93c2.29-.76,4.65-1.52,7.08-2.33s4.9-1.68,7.44-2.57l7.64-2.84c5.14-2,10.43-4.16,15.76-6.42,2.69-1.08,5.33-2.3,8-3.5s5.36-2.35,8-3.62c5.32-2.48,10.61-5,15.78-7.54s10.23-5.05,15.07-7.69,9.56-5,14-7.53,8.56-4.85,12.42-7.08,7.37-4.28,10.51-6.18l8.1-4.94c2.29-1.33,4-2.61,5.28-3.37l1.84-1.31.45-.28a1.52,1.52,0,0,0,.39-2.09,1.49,1.49,0,0,0-1.58-.61s-2.91.67-8,1.87c-2.58.57-5.65,1.31-9.15,2.34s-7.52,2-11.74,3.48-8.86,2.93-13.67,4.68-9.93,3.5-15.11,5.67-10.55,4.21-15.91,6.57-10.89,4.63-16.32,7.1-10.79,5-16.08,7.54-10.46,5.1-15.48,7.53c-10,4.88-19.13,10-27,14.15s-14.22,8.08-18.74,10.68l-7,4.16a1.49,1.49,0,0,0,.89,2.77Z"/><path class="cls-3" d="M1403.57,433s3,.19,8.32.06,12.79-.51,21.73-1.44,19.28-2.44,30.28-4.55c5.47-1.13,11.16-2.28,16.88-3.7s11.48-2.88,17.26-4.52,11.5-3.32,17.1-5.21,11.11-3.73,16.39-5.74c2.64-1,5.24-2,7.74-3s5-2.13,7.35-3.14c4.76-2,9.16-4.29,13.22-6.33s7.67-4.16,10.83-6.06a77.48,77.48,0,0,0,8-5.34c4.28-3.21,6.59-5.14,6.59-5.14a1.54,1.54,0,0,0-1.5-2.64l-.17,0s-2.81,1-7.57,2.92a91,91,0,0,1-8.69,3.1l-5.35,1.87c-1.87.63-4,1.12-6,1.79-4.19,1.33-8.71,2.74-13.6,4s-9.94,2.85-15.27,4.2c-2.65.73-5.35,1.45-8.07,2.19l-8.31,2.13c-5.6,1.44-11.29,2.89-17,4.33s-11.39,2.93-17,4.35-11.14,2.85-16.47,4.33c-10.67,2.87-20.6,5.81-29.08,8.48-4.24,1.34-8.13,2.62-11.56,3.83s-6.44,2.21-8.89,3.15c-4.93,1.81-7.71,3-7.7,3a1.57,1.57,0,0,0-.84,2.07A1.62,1.62,0,0,0,1403.57,433Z"/><path class="cls-3" d="M1393.92,454.27l2.19.37c1.4.25,3.46.66,6.11.94s5.84.7,9.53.95,7.79.47,12.3.62,9.38.17,14.51.07,10.55-.4,16.15-.68,11.35-1,17.19-1.66,11.8-1.26,17.66-2.4,11.81-1.94,17.58-3.12,11.43-2.35,16.91-3.72,10.65-2.86,15.64-4.21,9.63-2.77,13.89-4.3,8.14-3,11.57-4.31,6.37-2.62,8.82-3.59,4.3-2,5.61-2.51l2-.92,0,0a1.56,1.56,0,0,0,.76-2.07,1.59,1.59,0,0,0-1.56-.92l-2.13.21c-1.4.11-3.48.21-6,.51s-5.71.71-9.31,1.13-7.66.8-12,1.52-9.2,1-14.19,1.75-10.34,1.35-15.84,2.09c-5.43.9-11.11,1.59-16.88,2.28s-11.57,1.64-17.41,2.48c-2.91.44-5.83.79-8.74,1.17s-5.81.83-8.67,1.26c-5.76.81-11.4,1.66-16.86,2.6s-10.76,1.59-15.76,2.56-9.75,1.7-14.12,2.56-8.37,1.58-11.92,2.38-6.63,1.37-9.18,2c-5.08,1.18-8,1.93-8,1.93a1.57,1.57,0,0,0,.11,3.07Z"/><path class="cls-3" d="M1386.05,470.71s.72.22,2.12.59,3.36,1,5.93,1.6c5.15,1.32,12.54,2.9,21.44,4.44,4.44.85,9.29,1.48,14.42,2.23s10.55,1.28,16.17,1.82,11.45,1,17.37,1.29l8.94.52c3,0,6,.09,9,.13,6,.12,12.08.16,18,0s11.81-.52,17.46-.74,11.14-1,16.32-1.48,10.06-1.47,14.57-2.11a57.43,57.43,0,0,0,6.42-1.27c2-.45,4-.9,5.78-1.32s3.5-.79,5-1.2,3-.87,4.25-1.28c2.57-.72,4.54-1.45,5.91-1.88s2-.68,2-.68a1.58,1.58,0,0,0,1-2,1.49,1.49,0,0,0-1.3-1l-.37-.05s-3.13-.32-8.37-.56l-4.33-.14c-1.58-.12-3.31-.29-5.11-.38-3.62-.18-7.69-.42-12.14-.68l-14.23-.91c-5.08-.32-10.38-.56-15.89-1s-11.19-.42-17-.9c-2.9-.27-5.81-.31-8.74-.43L1482,463c-11.76-.5-23.57-.84-34.69-.72-5.56.07-10.94.08-16.07.46s-10,.36-14.5.83-8.64.72-12.32,1.21l-5.17.63-4.4.7c-5.31.8-8.42,1.57-8.42,1.57l-.31.07a1.56,1.56,0,0,0-1.14,1.86A1.58,1.58,0,0,0,1386.05,470.71Z"/><path class="cls-3" d="M1376.06,489.92l2.09.84c1.37.5,3.37,1.34,5.95,2.17,5.14,1.79,12.56,4.18,21.52,6.49s19.48,4.73,30.85,6.8c5.66,1.09,11.55,2,17.56,2.82s12.11,1.57,18.23,2.23c3.06.37,6.13.63,9.18.83s6.13.43,9.18.58c6.05.34,12,.55,17.81.71s11.44-.2,16.77-.39,10.34-.55,15-.91,9-1.2,12.71-1.78,7-1.3,9.73-1.83c5.35-1.07,8.37-1.93,8.37-1.93a1.57,1.57,0,0,0,0-3l-.13,0s-3.1-.76-8.42-1.72c-2.67-.48-5.88-1.08-9.57-1.62s-7.79-1-12.32-1.72-9.41-1.5-14.58-2.23-10.59-1.27-16.23-1.95-11.47-1.49-17.4-2.12-11.94-1-18-1.75-12.07-1.15-18-1.59-11.86-.83-17.54-1.21-11.21-.63-16.46-.81-10.2-.39-14.82-.47c-9.17-.14-16.91,0-22.32.17-2.7,0-4.87.23-6.32.25l-2.25.18a1.58,1.58,0,0,0-.49,3Z"/><path class="cls-3" d="M1366.46,508.12s.68.49,2,1.26,3.12,2,5.5,3.15,5.26,2.85,8.59,4.39,7.08,3.2,11.18,4.83c2,.79,4.18,1.58,6.39,2.42s4.53,1.57,6.88,2.39,4.78,1.49,7.26,2.3,5,1.4,7.6,2.13c5.17,1.35,10.51,2.62,16,3.8,2.7.65,5.47,1.06,8.25,1.59s5.5,1.07,8.29,1.48c5.55.92,11.12,1.71,16.57,2.48,5.57.56,10.9,1.36,16.2,1.74s10.31,1,15.22,1.18,9.44.56,13.8.63,8.22.29,11.86.23c1.78,0,3.47,0,5.08-.07s3,0,4.28,0c2.58.07,4.78-.15,6.22-.15l2.28-.16.79-.06a1.44,1.44,0,0,0,.42-2.78l-7.41-2.88-3.94-1.53c-1.43-.46-3-1-4.68-1.52-3.35-1-7.09-2.43-11.27-3.53s-8.66-2.52-13.49-3.68-9.87-2.51-15.13-3.59-10.73-2.41-16.31-3.45-11.18-2.21-16.87-3.18c-11.32-2.06-22.71-3.82-33.37-5.4s-20.65-2.88-29.24-3.95c-17.1-2.09-28.58-3.16-28.58-3.16a1.41,1.41,0,0,0-1.55,1.29,1.39,1.39,0,0,0,.6,1.3Z"/><path class="cls-3" d="M1360.43,517.29a66.83,66.83,0,0,0,4.34,5.33,146.17,146.17,0,0,0,12.57,12.73c2.73,2.47,5.73,5.1,9,7.71s6.78,5.37,10.53,8,7.67,5.31,11.76,7.86,8.36,4.94,12.59,7.4,8.69,4.62,13,6.77,8.74,4,13,5.86,8.46,3.37,12.46,4.74,7.91,2.5,11.46,3.54c3.64.89,7,1.59,9.95,2.25s5.62.88,7.75,1.23c4.32.52,6.78.67,6.78.67a1.55,1.55,0,0,0,1.68-1.48,1.58,1.58,0,0,0-.74-1.44l-.1-.05s-2.14-1.28-5.85-3.28c-1.88-1-4.15-2.09-6.7-3.59s-5.4-3.07-8.54-4.7l-21.08-12.17c-3.82-2.24-7.74-4.63-11.79-6.93-4-2.48-8.12-4.78-12.15-7.25s-8.18-4.86-12.2-7.24c-2-1.2-4-2.36-6-3.5s-4-2.32-5.91-3.38c-3.91-2.2-7.69-4.28-11.33-6.21s-7.08-3.77-10.34-5.34c-6.47-3.25-12-5.8-16-7.45s-6.33-2.55-6.34-2.54a1.63,1.63,0,0,0-2.06,1A1.7,1.7,0,0,0,1360.43,517.29Z"/><path class="cls-3" d="M1356.14,523.4a47.67,47.67,0,0,0,.9,4.79,106.16,106.16,0,0,0,3.65,12.09c.89,2.46,1.94,5.07,3.14,7.79s2.59,5.52,4.06,8.43,3.15,5.77,4.89,8.7,3.63,5.82,5.68,8.63,4,5.61,6.21,8.25,4.28,5.27,6.55,7.65,4.37,4.67,6.61,6.68,4.24,4,6.35,5.58,4,3.06,5.7,4.35,3.38,2.15,4.66,3c2.62,1.59,4.19,2.4,4.19,2.4a1.59,1.59,0,0,0,2.15-.7,1.56,1.56,0,0,0,0-1.51l0-.09s-.89-1.53-2.53-4c-.87-1.22-1.84-2.74-3.06-4.39s-2.37-3.67-3.84-5.7-2.89-4.35-4.55-6.67-3.29-4.82-5-7.37c-3.49-5.14-7.2-10.58-10.91-16s-7.45-10.93-11-16c-1.8-2.54-3.59-5-5.25-7.32s-3.33-4.51-4.84-6.53-3-3.87-4.28-5.46-2.45-3-3.38-4.19c-1.94-2.32-3.12-3.63-3.12-3.63a1.65,1.65,0,0,0-2.3-.09A1.6,1.6,0,0,0,1356.14,523.4Z"/></g><path class="cls-1" d="M268.36,105.09C254.52,148.24,280,195,273.51,239.82,266,292,216.88,328.88,166.83,345.57S62.91,364.79,12.75,381.18C8.64,382.52,4.53,384,.44,385.65V29.12L0,.25,29.56,0H327.21a171.26,171.26,0,0,1-19.68,42.32C294.1,63.13,275.9,81.52,268.36,105.09Z"/></g></g></svg>